<svg width="1440" height="1411" viewBox="0 0 1440 1411" fill="none" xmlns="http://www.w3.org/2000/svg">
<path d="M-59.4282 304.172C-137.837 387.569 -66.8006 651.831 -38.4812 720.554C25.0214 875.468 -80.8518 857.441 -83.8133 998.058C-86.7748 1138.68 200.391 1216.62 465.751 1137.76C785.764 1042.66 665.637 993.38 1099.66 1008.76C1533.69 1024.13 1579.15 639.195 1551.7 593.768C1528.43 555.273 1579.04 388.877 1510.5 361.54C1478.2 348.658 1478.5 239.04 1367.43 262.227C1245.97 287.581 1142.36 108.289 1017.74 198.281C893.11 288.272 886.692 80.2029 708.708 139.749C530.724 199.294 325.817 131.617 223.5 185.54C27.443 288.866 37.7605 200.801 -59.4282 304.172Z" fill="url(#paint0_linear)"/>
<path d="M176 755.136C106 744.336 29.5 814.969 0 851.636L-8 1410.54H1495V886.136C1422 911.136 1441 797.636 1291 705.136C1141 612.636 1034 776.636 915 845.636C796 914.636 693.5 731.136 608 727.636C522.5 724.136 499 805.136 405 851.636C311 898.135 263.5 768.636 176 755.136Z" fill="white"/>
<defs>
<linearGradient id="paint0_linear" x1="-101.88" y1="345.598" x2="1840.42" y2="852.308" gradientUnits="userSpaceOnUse">
<stop stop-color="#0470DC"/>
<stop offset="1" stop-color="#70DDFF"/>
</linearGradient>
</defs>
</svg>
