<svg width="24" height="23" viewBox="0 0 24 23" fill="none" xmlns="http://www.w3.org/2000/svg">
<path d="M23.3186 0.573922C23.3186 0.573922 -2.80418 -1.00249 0.24806 17.35C0.24806 17.35 -0.36376 20.5923 2.57162 22.0654C2.57162 22.0654 2.61972 20.6887 5.2595 21.1637C6.19712 21.3217 7.15015 21.3679 8.09864 21.3013C9.38092 21.2164 10.6002 20.7136 11.5702 19.8695C11.5702 19.8695 18.9259 16.8268 21.7856 4.79375C21.7856 4.79375 23.8961 2.17098 23.8136 1.49636L19.4002 3.38255C19.4002 3.38255 20.9057 6.56979 19.7233 9.22009C19.7233 9.22009 19.5789 3.49958 18.7334 3.63037C18.5615 3.63037 16.4373 4.73868 16.4373 4.73868C16.4373 4.73868 19.0358 10.294 17.0766 14.3279C17.0766 14.3279 17.8191 7.48536 15.6261 5.13795L12.5189 6.98283C12.5189 6.98283 15.5505 12.7171 13.4951 17.3982C13.4951 17.3982 14.0244 10.2183 11.8658 7.4234L9.05419 9.62624C9.05419 9.62624 11.9002 15.2779 10.1678 19.1604C10.1678 19.1604 9.93411 10.8034 8.44236 10.1701C8.44236 10.1701 5.98131 12.3454 5.60322 13.2403C5.60322 13.2403 7.55556 17.3706 6.34567 19.5115C6.34567 19.5115 5.60323 13.9425 4.97078 13.9149C4.97078 13.9149 2.51661 17.6047 2.26226 20.1104C2.38508 17.7741 3.11493 15.5104 4.37959 13.5432C2.96338 13.8118 1.65637 14.4889 0.619263 15.4913C0.619263 15.4913 1.00426 12.8823 4.98455 12.6552C4.98455 12.6552 7.04686 9.85341 7.55557 9.68131C7.55557 9.68131 3.59591 9.35089 1.19673 10.4179C1.19673 10.4179 3.30717 7.96034 8.27738 9.07553L11.0271 6.80385C11.0271 6.80385 5.80947 6.11546 3.60278 6.87957C3.60278 6.87957 6.14633 4.70426 11.7765 6.28756L14.8012 4.47709C14.8012 4.47709 10.3534 3.52023 7.70679 3.86442C7.70679 3.86442 10.5047 2.35685 15.688 3.98833L17.8534 3.01771C17.8534 3.01771 14.595 2.3775 13.6394 2.27425C12.6839 2.17099 12.6358 1.9094 12.6358 1.9094C14.6995 1.56563 16.8179 1.80399 18.754 2.59779C18.754 2.59779 23.4011 0.863046 23.3186 0.573922Z" fill="#6C63FF"/>
</svg>
