<svg width="19" height="22" viewBox="0 0 19 22" fill="none" xmlns="http://www.w3.org/2000/svg">
<path d="M3.21869 8.10254V13.54C3.21869 13.915 3.09369 14.2275 2.84369 14.4775C2.59369 14.7275 2.28119 14.8525 1.90619 14.8525C1.53119 14.8525 1.20306 14.7275 0.921814 14.4775C0.640564 14.2275 0.499939 13.915 0.499939 13.54V8.10254C0.499939 7.75879 0.640564 7.46191 0.921814 7.21191C1.20306 6.96191 1.51556 6.83691 1.85931 6.83691C2.23431 6.83691 2.54681 6.96191 2.79681 7.21191C3.07806 7.46191 3.21869 7.75879 3.21869 8.10254ZM3.68744 15.4619C3.68744 15.8682 3.82806 16.2119 4.10931 16.4932C4.39056 16.7432 4.71869 16.8682 5.09369 16.8682H6.03119V19.7275C6.03119 20.29 6.24994 20.665 6.68744 20.8525C7.12494 21.0713 7.54681 21.0713 7.95306 20.8525C8.39056 20.6338 8.60931 20.2588 8.60931 19.7275V16.8682H10.3906V19.7275C10.3906 20.29 10.5937 20.665 10.9999 20.8525C11.4374 21.0713 11.8749 21.0713 12.3124 20.8525C12.7499 20.665 12.9687 20.29 12.9687 19.7275V16.8682H13.9062C14.2812 16.8682 14.6093 16.7432 14.8906 16.4932C15.1718 16.2119 15.3124 15.8682 15.3124 15.4619V7.07129H3.68744V15.4619ZM15.3124 6.60254H3.64056C3.64056 5.63379 3.90619 4.74316 4.43744 3.93066C4.99994 3.08691 5.73431 2.43066 6.64056 1.96191L5.74994 0.321289C5.68744 0.196289 5.70306 0.118164 5.79681 0.0869141C5.92181 0.0244141 5.99994 0.0400391 6.03119 0.133789L6.96869 1.77441C7.78119 1.43066 8.62494 1.25879 9.49994 1.25879C10.4062 1.25879 11.2499 1.43066 12.0312 1.77441L12.9687 0.133789C12.9999 0.0400391 13.0624 0.0244141 13.1562 0.0869141C13.2812 0.118164 13.3124 0.196289 13.2499 0.321289L12.3593 1.96191C13.2656 2.43066 13.9843 3.08691 14.5156 3.93066C15.0468 4.74316 15.3124 5.63379 15.3124 6.60254ZM7.34369 4.02441C7.34369 3.89941 7.29681 3.79004 7.20306 3.69629C7.10931 3.57129 6.98431 3.50879 6.82806 3.50879C6.70306 3.50879 6.59369 3.57129 6.49994 3.69629C6.40619 3.79004 6.35931 3.89941 6.35931 4.02441C6.35931 4.14941 6.40619 4.25879 6.49994 4.35254C6.59369 4.44629 6.70306 4.49316 6.82806 4.49316C6.98431 4.49316 7.10931 4.44629 7.20306 4.35254C7.29681 4.25879 7.34369 4.14941 7.34369 4.02441ZM12.6406 4.02441C12.6406 3.89941 12.5937 3.79004 12.4999 3.69629C12.4062 3.57129 12.2968 3.50879 12.1718 3.50879C12.0468 3.50879 11.9218 3.57129 11.7968 3.69629C11.7031 3.79004 11.6562 3.89941 11.6562 4.02441C11.6562 4.14941 11.7031 4.25879 11.7968 4.35254C11.9218 4.44629 12.0468 4.49316 12.1718 4.49316C12.2968 4.49316 12.4062 4.44629 12.4999 4.35254C12.5937 4.25879 12.6406 4.14941 12.6406 4.02441ZM17.0937 6.83691C16.7499 6.83691 16.4374 6.96191 16.1562 7.21191C15.9062 7.46191 15.7812 7.77441 15.7812 8.14941V13.54C15.7812 13.915 15.9062 14.2275 16.1562 14.4775C16.4374 14.7275 16.7499 14.8525 17.0937 14.8525C17.4687 14.8525 17.7968 14.7275 18.0781 14.4775C18.3593 14.2275 18.4999 13.915 18.4999 13.54V8.10254C18.4999 7.75879 18.3593 7.46191 18.0781 7.21191C17.7968 6.96191 17.4687 6.83691 17.0937 6.83691Z" fill="white"/>
</svg>
