<svg width="18" height="22" viewBox="0 0 18 22" fill="none" xmlns="http://www.w3.org/2000/svg">
<path d="M14.7657 11.1494C14.7345 9.43066 15.5157 8.10254 17.1095 7.16504C16.2345 5.91504 14.9064 5.21191 13.1251 5.05566C12.6564 5.02441 12.1251 5.08691 11.5314 5.24316C11.1876 5.33691 10.7189 5.49316 10.1251 5.71191C9.53137 5.93066 9.14075 6.04004 8.95325 6.04004C8.76575 6.04004 8.34387 5.91504 7.68762 5.66504C6.65637 5.29004 5.89075 5.10254 5.39075 5.10254C4.4845 5.13379 3.6095 5.38379 2.76575 5.85254C1.95325 6.32129 1.297 7.00879 0.796997 7.91504C0.265747 8.88379 0.00012207 10.04 0.00012207 11.3838C0.00012207 12.6025 0.218872 13.8682 0.656372 15.1807C0.906372 15.8682 1.26575 16.6338 1.7345 17.4775C2.32825 18.5088 2.922 19.3213 3.51575 19.915C4.297 20.6963 5.03137 21.0713 5.71887 21.04C6.06262 21.04 6.56262 20.915 7.21887 20.665C8.03137 20.3525 8.70325 20.1963 9.2345 20.1963C9.76575 20.1963 10.4064 20.3369 11.1564 20.6182C11.8439 20.8994 12.4064 21.04 12.8439 21.04C13.8439 21.0088 14.8595 20.29 15.8907 18.8838C16.672 17.79 17.2501 16.6494 17.6251 15.4619C16.3751 14.8682 15.5314 13.9932 15.0939 12.8369C14.8439 12.2744 14.7345 11.7119 14.7657 11.1494ZM12.0939 3.41504C12.9376 2.41504 13.3126 1.29004 13.2189 0.0400391C12.6564 0.0712891 12.0782 0.243164 11.4845 0.555664C10.8907 0.868164 10.4064 1.24316 10.0314 1.68066C9.12512 2.68066 8.7345 3.80566 8.8595 5.05566C10.0157 5.14941 11.0939 4.61816 12.0939 3.46191V3.41504Z" fill="white"/>
</svg>
