<svg width="54" height="59" viewBox="0 0 54 59" fill="none" xmlns="http://www.w3.org/2000/svg">
<circle cx="27" cy="31.54" r="26.5" fill="white" stroke="#F2F3F3"/>
<path d="M29.6289 33.625H27.5781V39.75H24.8438V33.625H22.6289V31.082H24.8438V29.168C24.8438 28.4388 24.9805 27.819 25.2539 27.3086C25.5273 26.7982 25.9102 26.4154 26.4023 26.1602C26.9128 25.8867 27.4961 25.75 28.1523 25.75C28.444 25.75 28.7539 25.7682 29.082 25.8047C29.4102 25.8229 29.6654 25.8503 29.8477 25.8867L30.1211 25.9141V28.0742H29.0273C28.5169 28.0742 28.1432 28.2109 27.9062 28.4844C27.6875 28.7396 27.5781 29.0586 27.5781 29.4414V31.082H30.0117L29.6289 33.625Z" fill="#BDD3DF"/>
</svg>
