<svg width="100" height="35" viewBox="0 0 100 35" fill="none" xmlns="http://www.w3.org/2000/svg">
<ellipse opacity="0.2" cx="13" cy="31.04" rx="13" ry="3.5" fill="#C7CCE1"/>
<path fill-rule="evenodd" clip-rule="evenodd" d="M12.5 24.54C12.5 24.54 22 16.54 22 10.04C22 4.79333 17.7467 0.540039 12.5 0.540039C7.25329 0.540039 3 4.79333 3 10.04C3 17.04 12.5 24.54 12.5 24.54ZM12.5 13.54C14.9853 13.54 17 11.5253 17 9.04004C17 6.55476 14.9853 4.54004 12.5 4.54004C10.0147 4.54004 8 6.55476 8 9.04004C8 11.5253 10.0147 13.54 12.5 13.54Z" fill="#13F1FC"/>
<path d="M38.486 23.806C37.1433 23.806 35.9527 23.521 34.914 22.951C33.888 22.381 33.09 21.5767 32.52 20.538C31.95 19.4867 31.665 18.2707 31.665 16.89C31.665 15.522 31.9563 14.3187 32.539 13.28C33.1343 12.2287 33.9513 11.418 34.99 10.848C36.0413 10.2654 37.232 9.97404 38.562 9.97404C39.8413 9.97404 40.9877 10.2337 42.001 10.753L41.735 13.071C41.1903 12.8304 40.6647 12.6467 40.158 12.52C39.664 12.3807 39.1257 12.311 38.543 12.311C37.1877 12.311 36.1427 12.729 35.408 13.565C34.686 14.401 34.325 15.5094 34.325 16.89C34.325 18.2707 34.6797 19.379 35.389 20.215C36.111 21.051 37.1433 21.469 38.486 21.469C39.0813 21.469 39.626 21.4057 40.12 21.279C40.6267 21.1524 41.165 20.9624 41.735 20.709L42.001 23.027C40.899 23.5464 39.7273 23.806 38.486 23.806ZM43.6801 10.24H46.0361V12.596H43.6801V10.24ZM43.6801 14.04H46.0361V23.54H43.6801V14.04ZM51.3416 23.73C50.5056 23.73 49.8722 23.4894 49.4416 23.008C49.0109 22.514 48.7956 21.925 48.7956 21.241V15.978H47.4466L47.6556 14.04H48.7956V11.95L51.1516 11.703V14.04H53.2416V15.978H51.1516V20.272C51.1516 20.7787 51.1769 21.1334 51.2276 21.336C51.2909 21.526 51.4112 21.6527 51.5886 21.716C51.7786 21.7667 52.1142 21.792 52.5956 21.792H53.2416L53.0326 23.73H51.3416ZM57.6448 22.913L53.6928 14.04H56.3148L58.7468 20.158L61.2168 14.04H63.8388L57.8918 28.138H55.5358L57.6448 22.913ZM75.7863 23.54L74.6463 14.629L71.2453 20.747L67.8253 14.648L66.6853 23.54H64.1583L66.0013 10.24H67.9963L71.2453 16.301L74.4753 10.24H76.4703L78.3133 23.54H75.7863ZM82.1921 23.73C81.4068 23.73 80.7481 23.4767 80.2161 22.97C79.6968 22.4507 79.4371 21.754 79.4371 20.88C79.4371 20.0567 79.7348 19.398 80.3301 18.904C80.9254 18.3974 81.6284 18.0427 82.4391 17.84C83.2498 17.6247 84.0288 17.5044 84.7761 17.479C84.7508 16.9217 84.6051 16.5227 84.3391 16.282C84.0858 16.0414 83.6614 15.921 83.0661 15.921C82.6481 15.921 82.2364 15.978 81.8311 16.092C81.4384 16.206 80.9824 16.3897 80.4631 16.643L80.2541 14.724C81.4068 14.1667 82.5594 13.888 83.7121 13.888C84.8268 13.888 85.6754 14.192 86.2581 14.8C86.8534 15.408 87.1511 16.377 87.1511 17.707V20.272C87.1511 20.7534 87.1701 21.1017 87.2081 21.317C87.2588 21.5197 87.3348 21.6527 87.4361 21.716C87.5501 21.7667 87.7338 21.792 87.9871 21.792H88.2911L88.0821 23.73H87.2271C86.7078 23.73 86.2708 23.635 85.9161 23.445C85.5614 23.2424 85.2891 22.97 85.0991 22.628C84.7951 22.97 84.3771 23.2424 83.8451 23.445C83.3258 23.635 82.7748 23.73 82.1921 23.73ZM83.1801 21.925C83.4208 21.925 83.6931 21.868 83.9971 21.754C84.3011 21.6274 84.5671 21.4564 84.7951 21.241V19.075C84.0351 19.113 83.3638 19.2777 82.7811 19.569C82.1984 19.8604 81.9071 20.2657 81.9071 20.785C81.9071 21.1777 82.0084 21.469 82.2111 21.659C82.4138 21.8364 82.7368 21.925 83.1801 21.925ZM94.562 13.888C95.4613 13.888 96.234 14.1097 96.88 14.553C97.526 14.9964 98.0136 15.5917 98.343 16.339C98.6723 17.0864 98.837 17.9097 98.837 18.809C98.837 19.7084 98.6723 20.5317 98.343 21.279C98.0136 22.0264 97.526 22.6217 96.88 23.065C96.234 23.5084 95.4613 23.73 94.562 23.73C93.992 23.73 93.5043 23.6667 93.099 23.54C92.7063 23.426 92.3263 23.236 91.959 22.97V28.138H89.603V14.04H91.503L91.75 14.914C92.1553 14.572 92.5796 14.3187 93.023 14.154C93.4663 13.9767 93.9793 13.888 94.562 13.888ZM94.201 21.792C94.8976 21.792 95.4423 21.5197 95.835 20.975C96.2276 20.4304 96.424 19.7084 96.424 18.809C96.424 17.9097 96.2276 17.1877 95.835 16.643C95.4423 16.0984 94.8976 15.826 94.201 15.826C93.4156 15.826 92.8266 16.092 92.434 16.624C92.0413 17.156 91.845 17.8844 91.845 18.809C91.845 19.7337 92.0413 20.462 92.434 20.994C92.8266 21.526 93.4156 21.792 94.201 21.792Z" fill="#727A9C"/>
</svg>
