<svg width="96" height="384" viewBox="0 0 96 384" fill="none" xmlns="http://www.w3.org/2000/svg">
<path d="M55.3774 99.7507H0.369141V105.346H55.3774V99.7507Z" fill="#70DDFF"/>
<path d="M29.8439 84.8359H23.9492V105.346H29.8439V84.8359Z" fill="#70DDFF"/>
<path d="M78.9578 79.241H23.9492V84.8359H78.9578V79.241Z" fill="#70DDFF"/>
<path d="M28.3096 139.835C39.3433 139.835 48.2878 131.346 48.2878 120.874C48.2878 110.401 39.3433 101.912 28.3096 101.912C17.2759 101.912 8.3313 110.401 8.3313 120.874C8.3313 131.346 17.2759 139.835 28.3096 139.835Z" fill="url(#paint0_linear)"/>
<path d="M28.3097 135.283C38.4782 135.283 46.7213 127.459 46.7213 117.808C46.7213 108.157 38.4782 100.333 28.3097 100.333C18.1412 100.333 9.89795 108.157 9.89795 117.808C9.89795 127.459 18.1412 135.283 28.3097 135.283Z" fill="#FFEB3B"/>
<path d="M78.9578 25.1616H73.0626V303.009H78.9578V25.1616Z" fill="#70DDFF"/>
<path d="M76.4543 28.4728C84.5534 28.4728 91.119 22.2413 91.119 14.5544C91.119 6.86747 84.5534 0.635986 76.4543 0.635986C68.3551 0.635986 61.7894 6.86747 61.7894 14.5544C61.7894 22.2413 68.3551 28.4728 76.4543 28.4728Z" fill="#4F79A4"/>
<path d="M76.7771 383.208C87.0972 383.208 95.5278 385.554 95.5278 375.759V304.557C95.5151 299.839 93.5359 295.318 90.0226 291.981C86.5094 288.644 81.7476 286.761 76.7771 286.745C71.8066 286.761 67.0448 288.644 63.5316 291.981C60.0184 295.318 58.0393 299.839 58.0265 304.557V375.759C58.0265 385.554 66.3924 383.208 76.7771 383.208Z" fill="#70DDFF"/>
<defs>
<linearGradient id="paint0_linear" x1="-21836" y1="14127" x2="-21836" y2="13188.4" gradientUnits="userSpaceOnUse">
<stop stop-color="#808080" stop-opacity="0.25"/>
<stop offset="0.54" stop-color="#808080" stop-opacity="0.12"/>
<stop offset="1" stop-color="#808080" stop-opacity="0.1"/>
</linearGradient>
</defs>
</svg>
