<svg width="54" height="55" viewBox="0 0 54 55" fill="none" xmlns="http://www.w3.org/2000/svg">
<circle cx="27" cy="27.54" r="26.5" stroke="#F2F3F3"/>
<path d="M28.5547 27.5244C28.6094 27.8343 28.6367 28.126 28.6367 28.3994C28.6367 29.402 28.4271 30.2952 28.0078 31.0791C27.5885 31.8447 26.9961 32.4463 26.2305 32.8838C25.4648 33.3213 24.5898 33.54 23.6055 33.54C22.6576 33.54 21.7734 33.3031 20.9531 32.8291C20.151 32.3551 19.513 31.7171 19.0391 30.915C18.5833 30.113 18.3555 29.238 18.3555 28.29C18.3555 27.3421 18.5833 26.4671 19.0391 25.665C19.513 24.863 20.151 24.2249 20.9531 23.751C21.7734 23.277 22.6576 23.04 23.6055 23.04C24.9727 23.04 26.1393 23.4958 27.1055 24.4072L25.6836 25.7744C25.1367 25.2458 24.444 24.9814 23.6055 24.9814C23.0221 24.9814 22.4753 25.1273 21.9648 25.4189C21.4727 25.7106 21.0807 26.1117 20.7891 26.6221C20.4974 27.1325 20.3516 27.6885 20.3516 28.29C20.3516 28.8916 20.4974 29.4476 20.7891 29.958C21.0807 30.4684 21.4727 30.8695 21.9648 31.1611C22.4753 31.4528 23.0221 31.5986 23.6055 31.5986C24.2435 31.5986 24.7995 31.4619 25.2734 31.1885C25.6562 30.9697 25.9661 30.6598 26.2031 30.2588C26.4036 29.9489 26.5312 29.6481 26.5859 29.3564H23.6055V27.5244H28.5547ZM33.6133 27.7158V26.1846H32.082V27.7158H30.5781V29.2471H32.082V30.7783H33.6133V29.2471H35.1445V27.7158H33.6133Z" fill="#BDD3DF"/>
</svg>
