<svg width="54" height="55" viewBox="0 0 54 55" fill="none" xmlns="http://www.w3.org/2000/svg">
<circle cx="27" cy="27.54" r="26.5" stroke="#13F1FC"/>
<path d="M28.5547 27.5244C28.6094 27.8343 28.6367 28.126 28.6367 28.3994C28.6367 29.9124 28.1719 31.152 27.2422 32.1182C26.3125 33.0661 25.1003 33.54 23.6055 33.54C22.1471 33.54 20.9076 33.0296 19.8867 32.0088C18.8659 30.988 18.3555 29.7484 18.3555 28.29C18.3555 26.8317 18.8659 25.5921 19.8867 24.5713C20.9076 23.5505 22.1471 23.04 23.6055 23.04C24.9727 23.04 26.1393 23.4958 27.1055 24.4072L25.6836 25.7744C25.1367 25.2458 24.444 24.9814 23.6055 24.9814C23.0221 24.9814 22.4753 25.1273 21.9648 25.4189C21.4727 25.7106 21.0807 26.1117 20.7891 26.6221C20.4974 27.1325 20.3516 27.6885 20.3516 28.29C20.3516 29.2015 20.6706 29.9854 21.3086 30.6416C21.9466 31.2796 22.7122 31.5986 23.6055 31.5986C24.5169 31.5986 25.2188 31.3525 25.7109 30.8604C26.2031 30.3682 26.4948 29.8669 26.5859 29.3564H23.6055V27.5244H28.5547ZM33.6133 27.7158H35.1445V29.2471H33.6133V30.7783H32.082V29.2471H30.5781V27.7158H32.082V26.1846H33.6133V27.7158Z" fill="#13F1FC"/>
</svg>
