<svg width="1600" height="918" viewBox="0 0 1600 918" fill="none" xmlns="http://www.w3.org/2000/svg">
<path opacity="0.2" d="M459.5 829.5C168.997 848.31 34.5 770 -1 743V630.5H1920V845C1203.5 1021 895.057 795.465 662.5 814.5C522 826 529 825 459.5 829.5Z" fill="url(#paint0_linear)"/>
<path opacity="0.2" d="M1920 2H0V740C423 704 397.5 928 814.5 851C1039.82 809.394 1226.5 922 1920 843V2Z" fill="url(#paint1_linear)"/>
<path d="M0 0H1920V845C1116 690 1062 925.5 629 800C408.927 736.215 294 676.5 0 740.5V0Z" fill="url(#paint2_linear)"/>
<circle opacity="0.2" cx="332" cy="205" r="6" fill="#70DDFF"/>
<ellipse opacity="0.2" cx="1255" cy="195" rx="6" ry="5" fill="#13F1FC"/>
<circle opacity="0.2" cx="111.5" cy="495.5" r="3.5" fill="#13F1FC"/>
<defs>
<linearGradient id="paint0_linear" x1="41.4997" y1="553.001" x2="1679.5" y2="996.501" gradientUnits="userSpaceOnUse">
<stop stop-color="#0470DC"/>
<stop offset="1" stop-color="#13F1FC"/>
</linearGradient>
<linearGradient id="paint1_linear" x1="81.5" y1="763" x2="1920" y2="-288.5" gradientUnits="userSpaceOnUse">
<stop stop-color="#0470DC"/>
<stop offset="1" stop-color="#13F1FC"/>
</linearGradient>
<linearGradient id="paint2_linear" x1="0.000103962" y1="-63.0002" x2="1858.5" y2="1111" gradientUnits="userSpaceOnUse">
<stop stop-color="#0470DC"/>
<stop offset="1" stop-color="#13F1FC"/>
</linearGradient>
</defs>
</svg>
