<svg width="32" height="31" viewBox="0 0 32 31" fill="none" xmlns="http://www.w3.org/2000/svg">
<path fill-rule="evenodd" clip-rule="evenodd" d="M19.5925 11.2962C19.5925 15.8781 15.8781 19.5925 11.2962 19.5925C6.71435 19.5925 3 15.8781 3 11.2962C3 6.71435 6.71435 3 11.2962 3C15.8781 3 19.5925 6.71435 19.5925 11.2962ZM18.4865 20.009C16.5332 21.6228 14.0279 22.5925 11.2962 22.5925C5.0575 22.5925 0 17.535 0 11.2962C0 5.0575 5.0575 0 11.2962 0C17.535 0 22.5925 5.0575 22.5925 11.2962C22.5925 13.7211 21.8285 15.9674 20.528 17.8078L31.0496 28.3294L28.9283 30.4507L18.4865 20.009Z" fill="white"/>
</svg>
