<svg width="333" height="261" viewBox="0 0 333 261" fill="none" xmlns="http://www.w3.org/2000/svg">
<g clip-path="url(#clip0)">
<path opacity="0.1" d="M211.266 34.8736C193.561 34.2603 176.697 28.5315 160.592 22.2825C144.487 16.0335 128.537 9.07802 111.255 5.75763C100.139 3.62218 87.4285 3.32033 78.4689 9.28996C69.8524 15.0348 67.0667 24.9542 65.5697 34.1543C64.4414 41.0776 63.781 48.3671 66.868 54.8473C69.0093 59.343 72.8143 63.129 75.4461 67.4384C84.6012 82.4379 78.1291 100.931 68.2079 115.574C63.5534 122.427 58.1521 128.981 54.565 136.28C50.978 143.579 49.3111 151.973 52.4526 159.43C55.5684 166.815 62.9893 172.377 71.0448 176.285C87.3772 184.217 106.627 186.487 125.382 187.775C166.92 190.62 208.679 189.381 250.329 188.154C265.741 187.698 281.221 187.235 296.383 184.846C304.804 183.52 313.497 181.417 319.61 176.337C327.371 169.889 329.294 158.967 324.098 150.881C315.376 137.317 291.257 133.949 285.163 119.392C281.807 111.38 285.253 102.453 290.129 95.0226C300.592 79.0822 318.126 65.0974 319.049 46.8771C319.691 34.3534 311.253 21.8297 298.213 15.9082C284.551 9.70099 265.61 10.4813 255.528 20.7572C245.139 31.3477 226.899 35.4195 211.266 34.8736Z" fill="#6C63FF"/>
<path d="M161.288 240.76C161.288 240.76 146.542 214.585 124.321 207.042C114.996 203.876 106.857 197.922 101.292 189.785C98.6592 185.921 96.3845 181.824 94.4967 177.544" stroke="#535461" stroke-width="2" stroke-miterlimit="10"/>
<path d="M80.5269 172.702C83.0561 175.161 94.8461 177.708 94.8461 177.708C94.8461 177.708 91.9611 165.981 89.4223 163.518C88.1983 162.38 86.5784 161.768 84.9094 161.812C83.2404 161.856 81.6548 162.552 80.4922 163.753C79.3295 164.953 78.6822 166.562 78.6886 168.234C78.6951 169.907 79.3549 171.51 80.5269 172.702Z" fill="#6C63FF"/>
<path d="M87.1944 193.924C90.6564 194.612 101.94 190.331 101.94 190.331C101.94 190.331 93.1472 182.059 89.6884 181.372C88.8587 181.19 88.0013 181.176 87.1662 181.331C86.3311 181.485 85.5351 181.805 84.8248 182.271C84.1144 182.737 83.504 183.34 83.0291 184.046C82.5542 184.751 82.2245 185.544 82.0591 186.378C81.8938 187.213 81.8961 188.072 82.0661 188.905C82.236 189.739 82.5701 190.53 83.0489 191.232C83.5276 191.935 84.1414 192.535 84.8543 192.997C85.5672 193.459 86.3649 193.775 87.2009 193.924H87.1944Z" fill="#6C63FF"/>
<path d="M111.48 216.881C114.814 215.725 122.379 206.326 122.379 206.326C122.379 206.326 110.624 203.632 107.29 204.788C105.739 205.379 104.478 206.552 103.775 208.059C103.072 209.565 102.981 211.286 103.523 212.858C104.065 214.43 105.196 215.729 106.677 216.48C108.158 217.231 109.872 217.375 111.457 216.881H111.48Z" fill="#6C63FF"/>
<path d="M133.758 230.121C137.24 229.546 146.292 221.566 146.292 221.566C146.292 221.566 135.159 216.92 131.678 217.495C130.034 217.8 128.575 218.74 127.615 220.111C126.654 221.482 126.269 223.176 126.541 224.829C126.813 226.482 127.722 227.962 129.071 228.951C130.421 229.941 132.103 230.361 133.758 230.121Z" fill="#6C63FF"/>
<path d="M111.765 181.166C111.765 184.699 105.383 194.952 105.383 194.952C105.383 194.952 98.9909 184.705 98.9877 181.173C98.9877 179.475 99.6608 177.848 100.859 176.647C102.057 175.447 103.682 174.773 105.376 174.773C107.071 174.773 108.696 175.447 109.894 176.647C111.092 177.848 111.765 179.475 111.765 181.173V181.166Z" fill="#6C63FF"/>
<path d="M137.624 196.972C136.57 200.344 127.418 208.211 127.418 208.211C127.418 208.211 124.379 196.519 125.434 193.147C125.656 192.313 126.044 191.532 126.575 190.851C127.107 190.171 127.77 189.606 128.525 189.189C129.281 188.773 130.112 188.513 130.97 188.427C131.828 188.341 132.695 188.43 133.517 188.688C134.34 188.947 135.102 189.369 135.758 189.93C136.413 190.492 136.948 191.18 137.331 191.954C137.714 192.728 137.937 193.571 137.985 194.434C138.034 195.296 137.908 196.16 137.615 196.972H137.624Z" fill="#6C63FF"/>
<path d="M160.653 215.789C160.185 219.29 152.492 228.596 152.492 228.596C152.492 228.596 147.523 217.588 148.004 214.084C148.116 213.252 148.39 212.449 148.811 211.723C149.233 210.996 149.793 210.36 150.46 209.851C151.126 209.341 151.887 208.968 152.697 208.753C153.508 208.538 154.353 208.484 155.184 208.596C156.016 208.708 156.817 208.983 157.542 209.405C158.267 209.827 158.902 210.388 159.411 211.056C159.919 211.724 160.292 212.486 160.507 213.298C160.721 214.11 160.774 214.957 160.663 215.789H160.653Z" fill="#6C63FF"/>
<path opacity="0.25" d="M80.5269 172.702C83.0561 175.161 94.8461 177.708 94.8461 177.708C94.8461 177.708 91.9611 165.981 89.4223 163.518C88.1983 162.38 86.5784 161.768 84.9094 161.812C83.2404 161.856 81.6548 162.552 80.4922 163.753C79.3295 164.953 78.6822 166.562 78.6886 168.234C78.6951 169.907 79.3549 171.51 80.5269 172.702Z" fill="black"/>
<path opacity="0.25" d="M87.1944 193.924C90.6564 194.612 101.94 190.331 101.94 190.331C101.94 190.331 93.1472 182.059 89.6884 181.372C88.8587 181.19 88.0013 181.176 87.1662 181.331C86.3311 181.485 85.5351 181.805 84.8248 182.271C84.1144 182.737 83.504 183.34 83.0291 184.046C82.5542 184.751 82.2245 185.544 82.0591 186.378C81.8938 187.213 81.8961 188.072 82.0661 188.905C82.236 189.739 82.5701 190.53 83.0489 191.232C83.5276 191.935 84.1414 192.535 84.8543 192.997C85.5672 193.459 86.3649 193.775 87.2009 193.924H87.1944Z" fill="black"/>
<path opacity="0.25" d="M111.48 216.881C114.814 215.725 122.379 206.326 122.379 206.326C122.379 206.326 110.624 203.632 107.29 204.788C105.739 205.379 104.478 206.552 103.775 208.059C103.072 209.565 102.981 211.286 103.523 212.858C104.065 214.43 105.196 215.729 106.677 216.48C108.158 217.231 109.872 217.375 111.457 216.881H111.48Z" fill="black"/>
<path opacity="0.25" d="M133.758 230.121C137.24 229.546 146.292 221.566 146.292 221.566C146.292 221.566 135.159 216.92 131.678 217.495C130.034 217.8 128.575 218.74 127.615 220.111C126.654 221.482 126.269 223.176 126.541 224.829C126.813 226.482 127.722 227.962 129.071 228.951C130.421 229.941 132.103 230.361 133.758 230.121Z" fill="black"/>
<path opacity="0.25" d="M111.765 181.166C111.765 184.699 105.383 194.952 105.383 194.952C105.383 194.952 98.9909 184.705 98.9877 181.173C98.9877 179.475 99.6608 177.848 100.859 176.647C102.057 175.447 103.682 174.773 105.376 174.773C107.071 174.773 108.696 175.447 109.894 176.647C111.092 177.848 111.765 179.475 111.765 181.173V181.166Z" fill="black"/>
<path opacity="0.25" d="M137.624 196.972C136.57 200.344 127.418 208.211 127.418 208.211C127.418 208.211 124.379 196.519 125.434 193.147C125.656 192.313 126.044 191.532 126.575 190.851C127.107 190.171 127.77 189.606 128.525 189.189C129.281 188.773 130.112 188.513 130.97 188.427C131.828 188.341 132.695 188.43 133.517 188.688C134.34 188.947 135.102 189.369 135.758 189.93C136.413 190.492 136.948 191.18 137.331 191.954C137.714 192.728 137.937 193.571 137.985 194.434C138.034 195.296 137.908 196.16 137.615 196.972H137.624Z" fill="black"/>
<path opacity="0.25" d="M160.653 215.789C160.185 219.29 152.492 228.596 152.492 228.596C152.492 228.596 147.523 217.588 148.004 214.084C148.116 213.252 148.39 212.449 148.811 211.723C149.233 210.996 149.793 210.36 150.46 209.851C151.126 209.341 151.887 208.968 152.697 208.753C153.508 208.538 154.353 208.484 155.184 208.596C156.016 208.708 156.817 208.983 157.542 209.405C158.267 209.827 158.902 210.388 159.411 211.056C159.919 211.724 160.292 212.486 160.507 213.298C160.721 214.11 160.774 214.957 160.663 215.789H160.653Z" fill="black"/>
<path d="M160.438 240.24C160.438 240.24 157.553 210.321 140.285 194.406C133.04 187.727 128.008 178.992 126.213 169.282C125.367 164.679 124.946 160.009 124.953 155.329" stroke="#70DDFF" stroke-width="2" stroke-miterlimit="10"/>
<path d="M114.137 145.236C115.455 148.515 125.203 155.628 125.203 155.628C125.203 155.628 127.302 143.73 125.985 140.451C125.671 139.671 125.207 138.961 124.62 138.36C124.032 137.76 123.332 137.281 122.559 136.951C121.787 136.622 120.957 136.448 120.118 136.44C119.278 136.431 118.445 136.589 117.666 136.903C116.888 137.217 116.178 137.682 115.579 138.271C114.979 138.86 114.502 139.561 114.173 140.335C113.844 141.109 113.67 141.94 113.662 142.781C113.654 143.622 113.811 144.456 114.124 145.236H114.137Z" fill="#13F1FC"/>
<path d="M111.646 167.345C114.531 169.378 126.575 170.043 126.575 170.043C126.575 170.043 121.885 158.913 119 156.877C118.315 156.376 117.537 156.017 116.712 155.82C115.887 155.623 115.031 155.593 114.194 155.732C113.357 155.87 112.556 156.174 111.837 156.625C111.119 157.077 110.498 157.668 110.009 158.362C109.521 159.057 109.176 159.842 108.994 160.672C108.812 161.502 108.796 162.36 108.949 163.196C109.101 164.032 109.418 164.829 109.881 165.541C110.345 166.253 110.945 166.865 111.646 167.342V167.345Z" fill="#13F1FC"/>
<path d="M124.558 198.199C128.085 198.494 138.804 192.977 138.804 192.977C138.804 192.977 129.146 185.733 125.629 185.447C124.783 185.357 123.927 185.437 123.113 185.682C122.298 185.928 121.54 186.334 120.884 186.877C120.228 187.419 119.687 188.088 119.292 188.843C118.898 189.598 118.658 190.425 118.587 191.274C118.515 192.124 118.614 192.979 118.877 193.789C119.14 194.6 119.562 195.35 120.118 195.995C120.675 196.64 121.354 197.167 122.117 197.545C122.879 197.924 123.709 198.146 124.558 198.199Z" fill="#13F1FC"/>
<path d="M139.573 219.341C142.99 220.227 154.495 216.605 154.495 216.605C154.495 216.605 146.196 207.838 142.782 206.952C141.152 206.557 139.433 206.819 137.995 207.682C136.556 208.545 135.514 209.94 135.093 211.566C134.673 213.192 134.907 214.919 135.746 216.373C136.584 217.828 137.96 218.894 139.577 219.341H139.573Z" fill="#13F1FC"/>
<path d="M139.272 165.653C137.842 168.887 127.86 175.665 127.86 175.665C127.86 175.665 126.161 163.704 127.588 160.473C128.279 158.93 129.552 157.723 131.129 157.117C132.706 156.511 134.458 156.555 136.002 157.24C137.547 157.925 138.757 159.194 139.37 160.771C139.983 162.347 139.948 164.102 139.272 165.653Z" fill="#13F1FC"/>
<path d="M156.518 190.601C154.191 193.256 142.641 196.734 142.641 196.734C142.641 196.734 144.593 184.811 146.92 182.159C147.474 181.527 148.146 181.011 148.898 180.64C149.651 180.269 150.469 180.05 151.306 179.996C152.142 179.941 152.982 180.053 153.776 180.323C154.57 180.594 155.303 181.018 155.933 181.573C156.563 182.127 157.078 182.8 157.449 183.554C157.819 184.308 158.038 185.127 158.092 185.965C158.146 186.804 158.035 187.644 157.765 188.44C157.495 189.235 157.071 189.97 156.518 190.601Z" fill="#13F1FC"/>
<path d="M169.962 217.154C168.103 220.166 157.319 225.551 157.319 225.551C157.319 225.551 157.23 213.471 159.076 210.459C159.963 209.011 161.387 207.975 163.036 207.58C164.685 207.184 166.424 207.461 167.869 208.349C169.314 209.237 170.348 210.664 170.743 212.316C171.138 213.968 170.862 215.71 169.975 217.157L169.962 217.154Z" fill="#13F1FC"/>
<path opacity="0.1" d="M191.648 261C239.237 261 277.816 258.221 277.816 254.793C277.816 251.365 239.237 248.585 191.648 248.585C144.058 248.585 105.479 251.365 105.479 254.793C105.479 258.221 144.058 261 191.648 261Z" fill="#6C63FF"/>
<path d="M313.539 81.5163C313.789 80.8323 311.914 77.0367 311.914 76.8504C311.914 76.6642 309.974 74.548 309.974 73.3663C309.974 72.1846 307.41 69.6349 307.41 69.6349C307.41 69.6349 303.97 68.2027 303.595 65.091C303.22 61.9794 299.476 61.9183 299.467 61.9183C299.467 61.9183 299.483 61.6326 299.489 61.2055C299.489 60.2421 299.46 58.5081 299.027 57.564C298.386 56.196 296.899 55.7593 296.899 55.7593C296.899 55.7593 296.524 53.3316 295.774 52.5834C295.354 52.1446 295.054 51.6057 294.901 51.0179C294.747 50.43 294.747 49.8126 294.899 49.2245C295.274 48.046 294.399 45.0499 292.584 44.6228C290.77 44.1957 288.706 43.5021 288.706 43.5021C288.706 43.5021 288.504 43.5406 288.205 43.5824L287.955 43.5021C287.521 43.5831 287.082 43.6378 286.641 43.6659C286.258 43.6765 285.882 43.5527 285.58 43.3159C284.939 42.6319 279.89 41.3249 278.951 41.3249C278.012 41.3249 275.322 40.079 275.322 40.079C275.322 40.079 273.447 38.65 272.636 38.027C271.88 37.4522 270.485 35.1177 270.283 34.7741L270.258 34.7291H270.242C270.05 34.287 269.886 33.8334 269.751 33.3708C269.722 33.2744 269.7 33.1781 269.674 33.0818C270.589 32.1195 271.371 31.0396 272.001 29.8706C272.066 29.7485 272.123 29.6233 272.184 29.5013C272.322 29.5009 272.46 29.4792 272.591 29.4371C272.647 29.4184 272.701 29.397 272.755 29.3728C273.388 29.0383 273.865 28.4673 274.082 27.7833C274.127 27.6484 274.165 27.5103 274.2 27.3723L274.229 27.2342C274.252 27.141 274.271 27.0447 274.29 26.9484C274.309 26.852 274.306 26.8424 274.316 26.7878C274.325 26.7332 274.345 26.6016 274.357 26.5084C274.37 26.4153 274.357 26.4025 274.38 26.3511C274.396 26.2323 274.409 26.1167 274.425 25.9979C274.476 25.5579 274.527 25.118 274.62 24.6877C274.619 24.6813 274.619 24.6748 274.62 24.6684C274.992 22.9793 276.008 21.5536 276.726 19.9929C276.829 19.7681 276.925 19.5401 277.015 19.3121C277.105 19.0841 277.188 18.8112 277.262 18.5543C277.284 18.4772 277.3 18.4002 277.323 18.3231C277.37 18.1347 277.411 17.9452 277.448 17.7547C277.464 17.6744 277.48 17.5941 277.493 17.5107C277.537 17.2538 277.573 16.9936 277.592 16.7335C277.721 15.2466 277.501 13.7501 276.951 12.3631C276.483 11.1942 275.784 10.1409 275.31 8.97528C274.591 7.20269 274.402 5.19891 273.524 3.51624C272.053 0.687169 268.584 -0.728971 265.735 0.333937C264.375 0.841306 263.196 1.82715 261.814 2.26066C259.968 2.85152 257.99 2.40837 256.076 2.14184C254.162 1.87531 252.05 1.85283 250.511 3.1052C248.739 4.54703 248.267 7.25729 246.594 8.8372C245.895 9.50191 245.027 9.92579 244.289 10.5391C243.771 10.9558 243.372 11.5018 243.132 12.1223C243.132 12.1672 243.103 12.2122 243.09 12.2571C243.078 12.3021 243.062 12.3631 243.049 12.4177C243.036 12.4723 243.026 12.5429 243.017 12.6039C243.007 12.6649 243.017 12.6906 243.017 12.7324C243.008 12.8392 243.008 12.9467 243.017 13.0535C243.027 13.1615 243.044 13.2687 243.068 13.3746C243.074 13.4029 243.081 13.4308 243.09 13.4581C243.111 13.5472 243.137 13.6352 243.167 13.7214C243.167 13.7214 243.167 13.7535 243.167 13.7696C243.203 13.8659 243.241 13.9591 243.28 14.0554L243.34 14.1935C243.34 14.232 243.376 14.2705 243.392 14.3123C243.635 14.7721 243.83 15.2565 243.972 15.7573C244.052 16.0768 244.032 16.4131 243.914 16.7207C243.747 17.0679 243.511 17.378 243.222 17.6327C241.977 18.929 241.015 20.4711 240.398 22.1605C240.327 22.3531 240.26 22.5458 240.196 22.7417C240.196 22.7417 240.196 22.7417 240.196 22.7578L240.279 22.7802C240.459 22.8321 240.642 22.8718 240.827 22.899C240.933 22.899 241.039 22.9247 241.148 22.9312C241.578 22.9559 242.009 22.9235 242.43 22.8348C242.539 22.8123 242.645 22.7867 242.751 22.7578C243.186 22.6402 243.609 22.4844 244.017 22.2921C244.017 22.4206 244.017 22.5458 244.017 22.6743C244.017 22.7449 244.017 22.8156 244.017 22.8862C244.02 25.6384 244.79 28.3351 246.24 30.6729C247.69 33.0108 249.762 34.897 252.223 36.1196C252.242 36.2576 252.258 36.3893 252.278 36.5242C252.297 36.659 252.306 36.7522 252.319 36.8646L252.149 36.7008C252.149 36.7008 251.024 36.142 249.96 37.7605C248.896 39.3789 246.895 40.1239 246.895 40.1239C246.895 40.1239 235.513 41.9286 235.077 43.4218L229.759 43.743C229.759 43.743 227.883 43.9902 227.697 47.9175C227.511 51.8448 226.508 52.2109 226.508 52.2109C226.508 52.2109 224.319 56.0643 224.508 58.0585C224.697 60.0526 222.818 61.0449 222.818 61.0449L222.568 64.5772C222.568 64.5772 220.504 64.2561 219.94 66.6934C219.376 69.1307 218.379 70.2257 218.379 70.2257C218.379 70.2257 214.936 73.0901 214.75 75.5146L212.625 76.8215C212.625 76.8215 207.682 75.7008 206.557 73.7099L206.21 73.3888C206.199 73.3739 206.189 73.3577 206.182 73.3406C206.181 73.3481 206.181 73.3556 206.182 73.3631C205.444 72.6662 203.874 71.2019 204.114 71.5391C204.259 71.8523 204.295 72.2049 204.217 72.541L203.848 72.1332L202.864 71.0382C202.864 71.0382 195.514 62.5799 190.824 61.9858L190.468 61.2825C190.371 61.0924 190.203 60.9484 190.001 60.8822C189.798 60.816 189.578 60.8329 189.388 60.9293L182.313 64.4616C182.219 64.5084 182.135 64.5734 182.065 64.6528C181.996 64.7323 181.944 64.8247 181.91 64.9247C181.877 65.0247 181.863 65.1303 181.871 65.2354C181.879 65.3406 181.907 65.4432 181.954 65.5374L182.746 67.0948H182.73C182.721 67.0992 182.713 67.1054 182.706 67.1131C182.699 67.1207 182.695 67.1296 182.692 67.1392C182.689 67.1489 182.688 67.159 182.689 67.169C182.69 67.1791 182.693 67.1888 182.698 67.1976L182.977 67.7467C182.986 67.7649 183.001 67.7789 183.021 67.7855C183.04 67.7922 183.061 67.7909 183.079 67.782L183.371 68.3568C183.351 68.3671 183.335 68.3851 183.328 68.4067C183.321 68.4283 183.322 68.4519 183.332 68.4724L183.861 69.5128C183.866 69.5232 183.873 69.5325 183.881 69.5401C183.89 69.5478 183.9 69.5536 183.911 69.5572C183.921 69.5608 183.933 69.5621 183.944 69.5611C183.956 69.5601 183.967 69.5568 183.977 69.5514L184.191 69.972C184.173 69.9823 184.159 69.9993 184.152 70.0196C184.146 70.0399 184.147 70.062 184.156 70.0812L184.695 71.1409C184.699 71.1508 184.706 71.1597 184.714 71.1669C184.722 71.1742 184.731 71.1796 184.741 71.1829C184.752 71.1863 184.763 71.1874 184.773 71.1862C184.784 71.1851 184.794 71.1817 184.804 71.1762L189.933 81.3269C190.029 81.5169 190.197 81.661 190.4 81.7278C190.602 81.7946 190.822 81.7786 191.013 81.6833L196.443 78.9634L196.635 79.1047L198.238 81.1695C197.966 81.8117 197.738 82.454 197.546 83.0288C197.542 83.0473 197.536 83.0655 197.53 83.0834C197.488 83.2054 197.45 83.3274 197.414 83.443L197.376 83.5651C197.337 83.6839 197.302 83.7995 197.27 83.9087L197.212 84.1142C197.212 84.1527 197.187 84.1945 197.177 84.233C197.001 84.856 196.889 85.3376 196.828 85.6042L196.414 85.4757L196.818 85.6491C196.818 85.6716 196.818 85.6973 196.818 85.7133C196.799 85.7968 196.793 85.845 196.793 85.845C196.914 85.9028 197.043 85.9574 197.177 86.012C199.367 86.9753 210.301 91.7729 210.862 92.5018C211.487 93.3111 215.616 95.6745 219.369 93.6836C223.123 91.6926 223.934 88.6452 223.934 88.6452C223.934 88.6452 227.563 83.6036 227.688 82.865C227.813 82.1264 230.627 81.2594 230.627 81.2594C230.627 81.2594 230.877 89.6085 229.438 92.6463C227.999 95.6841 225.309 109.194 225.309 109.194C225.484 109.159 225.663 109.148 225.841 109.162L225.684 109.942C225.902 109.901 226.126 109.901 226.345 109.942C226.146 111.474 224.998 118.612 224.998 118.612C224.998 118.612 224.623 121.849 223.995 122.966C223.367 124.084 223.309 129.935 223.309 129.935L222.309 134.167C222.309 134.167 222.44 134.459 222.687 134.896V134.912C222.687 134.912 223.761 137.301 225.572 138.64C225.489 139.302 225.32 139.95 225.069 140.567C224.428 141.81 224.569 143.553 224.569 143.553C224.569 143.553 223.508 148.341 223.629 149.713C223.751 151.084 222.918 154.439 222.918 154.439L221.793 165.264C221.793 165.264 221.043 174.657 221.418 177.21C221.793 179.763 221.168 183.244 221.168 183.244C221.168 183.244 221.918 190.649 221.729 191.455C221.539 192.261 220.603 195.748 221.168 197.678C221.732 199.608 221.418 204.894 221.418 204.894C221.418 204.894 221.793 211.865 222.229 214.104C222.665 216.342 222.104 219.206 222.104 219.206C222.104 219.206 221.664 223.997 221.463 223.997C221.261 223.997 219.648 227.292 222.963 230.529C226.277 233.766 224.232 233.258 224.232 233.258C224.232 233.258 221.604 231.951 221.918 234.626C222.213 237.173 222.626 236.508 222.665 236.438L222.024 238.483C222.024 238.483 222.187 238.502 222.463 238.544L222.1 238.981C221.721 239.455 221.298 239.894 220.837 240.291C220.087 240.85 220.023 242.092 220.023 242.092C220.023 242.092 215.398 247.134 211.083 249.684C208.813 251.026 206.852 252.163 205.999 253.1C205.23 253.945 205.358 254.629 206.961 255.159C210.339 256.28 216.279 256.838 220.53 255.409C223.066 254.562 225.347 253.085 227.159 251.116C227.159 251.116 229.851 249.745 232.477 250.242C235.102 250.74 240.356 247.32 240.356 247.32L240.26 246.437L239.981 243.897C239.981 243.897 239.34 243.149 239.542 242.343C239.628 241.977 239.497 241.033 239.327 240.095C239.282 239.848 239.234 239.604 239.186 239.373L239.667 239.283C239.667 239.283 239.045 236.11 240.17 235.487C241.295 234.864 240.981 226.714 240.981 226.714C240.981 226.714 239.542 224.848 238.792 224.537C238.042 224.225 238.728 220.362 238.856 219.871C238.984 219.38 239.981 209.73 239.981 209.73C239.981 209.73 239.606 206.682 240.106 205.376C240.606 204.069 239.481 199.03 239.481 199.03C239.481 199.03 239.106 198.407 239.802 197.659C240.497 196.911 240.228 190.276 240.228 190.276C240.228 190.276 240.167 186.918 240.167 186.044C240.167 185.171 240.917 182.001 241.603 180.945C242.289 179.888 241.856 176.587 241.856 176.587L241.895 176.34C241.895 176.247 241.927 176.125 241.949 175.987L242.007 175.666C242.307 173.843 242.714 172.039 243.225 170.264C244.039 167.65 244.979 163.049 244.979 163.049L250.806 147.84L250.874 147.661C250.874 147.661 253.56 152.638 253.56 157.246C253.56 157.246 254.252 162.782 254.063 164.275C253.874 165.769 254.627 172.798 254.627 172.798C254.627 172.798 255.438 182.875 255.438 183.311C255.438 183.748 256.438 191.526 257.067 192.711C257.695 193.895 256.426 197.498 256.063 197.871C255.701 198.243 256.188 207.392 256.188 207.392C256.188 207.392 255.249 214.608 255.063 216.101C254.877 217.594 254.124 223.32 254.743 225.561C255.361 227.803 255.118 228.111 255.118 228.111C255.118 228.111 257.362 230.413 256.057 230.6C254.752 230.786 252.746 232.465 253.553 235.14C254.361 237.815 256.31 241.8 256.31 241.8C256.31 241.8 256.698 241.714 257.346 241.582V242.32L257.423 246.029C257.423 246.029 257.858 249.562 257.608 250.387C257.426 250.975 257.176 253.765 257.054 255.204C257.009 255.737 256.983 256.093 256.983 256.093C256.983 256.093 256.983 259.388 263.923 258.396C270.863 257.403 272.117 254.661 272.117 254.661L272.168 254.317C272.271 253.675 272.489 252.355 272.678 251.614C272.931 250.615 270.681 246.135 270.681 246.135C270.681 246.135 270.302 243.091 269.677 242.404C269.418 242.009 269.247 241.564 269.174 241.097C269.116 240.846 269.068 240.586 269.027 240.329C269.19 240.352 269.347 240.381 269.488 240.413C269.488 240.413 269.113 238.236 270.556 237.549C271.998 236.861 271.617 235.436 271.431 234.813C271.245 234.19 271.992 230.709 271.992 230.709C271.891 230.362 271.885 229.995 271.972 229.645C272.06 229.295 272.24 228.975 272.492 228.718C273.37 227.844 274.056 221.746 274.056 221.746L274.207 198.256C274.207 198.256 274.646 194.082 274.146 192.406C273.646 190.729 273.143 187.492 273.825 186.625C274.508 185.758 273.889 181.712 273.889 181.712C273.889 181.712 273.889 173.186 274.825 171.073C275.762 168.961 275.467 155.579 275.467 155.579L275.713 146.81C275.713 146.81 277.755 144.883 277.271 134.774C279.451 134.639 281.91 134.559 282.282 134.861C282.968 135.42 287.411 138.284 290.036 136.466C290.6 136.216 293.161 134.039 293.161 134.039L292.059 115.385C292.748 116.425 293.165 117.116 293.165 117.116C293.165 114.502 300.537 106.04 300.537 106.04C300.537 106.04 307.416 97.1452 308.917 96.0855C310.417 95.0258 313.356 89.4287 313.356 89.4287C313.792 88.361 314.294 87.3217 314.86 86.3171C315.539 85.1899 313.289 82.2035 313.539 81.5163ZM297.402 88.0511C295.527 88.2374 291.587 92.5307 291.523 93.462C291.491 93.9533 291.078 94.6148 290.693 95.135C290.664 94.7593 290.632 94.3772 290.6 93.9886C290.158 88.491 289.683 81.786 289.901 81.1438C290.276 80.0231 290.148 74.9847 290.148 74.9847L290.219 74.8884C291.482 78.7932 295.396 83.3981 295.396 83.3981C295.396 83.3981 296.085 85.389 296.896 85.45C297.707 85.511 297.402 88.0511 297.402 88.0511Z" fill="url(#paint0_linear)"/>
<path d="M197.129 86.6285C197.129 86.6285 199.408 74.6507 206.746 74.5897L212.106 85.6427L208.531 88.1121C208.531 88.1121 200.764 88.3593 197.129 86.6285Z" fill="#65617D"/>
<path opacity="0.1" d="M212.106 85.6395L208.531 88.1121C208.531 88.1121 203.082 88.2855 199.158 87.3221C198.461 87.1589 197.781 86.9265 197.129 86.6285C197.129 86.6285 197.129 86.5643 197.171 86.4358C197.17 86.4209 197.17 86.4059 197.171 86.3909C197.508 84.8876 197.972 83.4158 198.559 81.9915C198.783 81.4553 199.04 80.8997 199.315 80.3474C200.389 78.2762 201.899 76.2467 203.963 75.2416C204.727 74.8654 205.559 74.647 206.409 74.5994H206.627H206.736L206.852 74.8434L208.666 78.578L212.106 85.6395Z" fill="black"/>
<path d="M273.005 135.41C273.005 135.41 280.698 134.668 281.387 135.224C282.076 135.779 286.442 138.621 289.029 136.829C291.616 135.037 289.892 128.801 289.892 128.554C289.892 128.307 289.648 119.479 289.648 119.479L285.022 113.243L279.23 102.325L267.395 101.153L267.716 118.493L267.655 127.385L273.005 135.41Z" fill="#65617D"/>
<path opacity="0.1" d="M273.005 135.41C273.005 135.41 280.698 134.668 281.387 135.224C282.076 135.779 286.442 138.621 289.029 136.829C291.616 135.037 289.892 128.801 289.892 128.554C289.892 128.307 289.648 119.479 289.648 119.479L285.022 113.243L279.23 102.325L267.395 101.153L267.716 118.493L267.655 127.385L273.005 135.41Z" fill="black"/>
<path d="M205.201 74.2816C205.201 74.2816 204.588 81.815 199.902 81.9371C199.902 81.9371 198.575 81.1343 196.789 79.7984C192.673 76.7124 186.14 70.7813 187.945 65.2645C190.535 57.3617 203.107 71.9342 203.107 71.9342L204.069 73.0196L205.201 74.2816Z" fill="#FBBEBE"/>
<path opacity="0.1" d="M205.201 74.2815C205.201 74.2815 204.588 81.815 199.902 81.937C199.902 81.937 198.575 81.1342 196.789 79.7984L196.389 79.2846C197.183 79.7 198.058 79.9356 198.953 79.975C200.13 80.0007 201.453 79.5639 202.303 77.862C202.79 76.8923 203.218 75.8939 203.585 74.8724C203.81 74.2738 203.969 73.6526 204.06 73.0195L205.201 74.2815Z" fill="black"/>
<path d="M203.168 87.9259L202.114 86.5676L198.556 81.9916L196.748 79.6539C197.541 80.0713 198.417 80.3081 199.312 80.3475C200.489 80.3732 201.812 79.9364 202.665 78.2313C203.153 77.2617 203.581 76.2633 203.947 75.2417C204.534 73.5751 204.521 72.7177 204.316 72.4287C204.111 72.1396 205.624 73.5494 206.352 74.2398L206.377 74.2655C206.586 74.4581 206.72 74.5866 206.72 74.5866L206.845 74.8371L208.631 78.4143L208.65 78.5653C208.813 79.702 209.416 86.9047 203.168 87.9259Z" fill="#E7EFFD"/>
<path d="M240.09 246.861C240.09 246.861 234.913 250.259 232.326 249.751C229.739 249.244 227.085 250.618 227.085 250.618C225.302 252.57 223.053 254.036 220.549 254.879C216.359 256.299 210.506 255.743 207.179 254.629C205.601 254.106 205.476 253.425 206.233 252.59C207.076 251.655 209.009 250.528 211.246 249.196C215.497 246.665 220.059 241.662 220.059 241.662C220.059 241.662 220.119 240.429 220.86 239.873C221.314 239.485 221.73 239.055 222.104 238.589C222.764 237.805 223.386 236.983 223.386 236.983L238.612 237.478C238.612 237.478 238.872 238.579 239.074 239.703C239.244 240.625 239.375 241.563 239.289 241.925C239.103 242.725 239.721 243.467 239.721 243.467L239.994 245.988L240.09 246.861Z" fill="#65617D"/>
<path d="M271.963 251.119C271.78 251.858 271.559 253.184 271.46 253.807C271.424 254.019 271.408 254.147 271.408 254.147C271.408 254.147 270.174 256.864 263.334 257.853C256.493 258.842 256.493 255.567 256.493 255.567C256.493 255.567 256.519 255.213 256.563 254.683C256.682 253.238 256.929 250.474 257.108 249.886C257.355 249.083 256.926 245.564 256.926 245.564L256.852 241.884L256.801 239.315L268.142 238.139C268.214 238.989 268.336 239.834 268.507 240.67C268.578 241.129 268.748 241.567 269.004 241.954C269.62 242.638 269.991 245.66 269.991 245.66C269.991 245.66 272.203 250.13 271.963 251.119Z" fill="#65617D"/>
<path opacity="0.1" d="M238.625 237.475C238.625 237.475 238.885 238.576 239.087 239.7C237.442 240.002 230.252 241.251 228.454 240.378C226.422 239.389 222.043 238.833 222.043 238.833L222.117 238.583C222.777 237.799 223.399 236.977 223.399 236.977L238.625 237.475Z" fill="black"/>
<path opacity="0.1" d="M268.501 240.683C265.616 240.195 259.327 241.376 256.846 241.884L256.794 239.315L268.136 238.139C268.207 238.994 268.329 239.843 268.501 240.683Z" fill="black"/>
<path d="M274.915 147.079L274.668 155.785C274.668 155.785 274.989 169.06 274.053 171.16C273.117 173.26 273.127 181.719 273.127 181.719C273.127 181.719 273.745 185.733 273.066 186.593C272.386 187.454 272.88 190.671 273.386 192.338C273.893 194.005 273.444 198.144 273.444 198.144L273.322 221.483C273.322 221.483 272.646 227.533 271.78 228.4C271.532 228.656 271.355 228.974 271.269 229.321C271.183 229.668 271.19 230.031 271.29 230.375C271.29 230.375 270.549 233.83 270.735 234.45C270.921 235.069 271.29 236.486 269.873 237.163C268.456 237.841 268.822 240.005 268.822 240.005C265.433 239.202 255.82 241.367 255.82 241.367C255.82 241.367 253.896 237.414 253.105 234.758C252.313 232.102 254.278 230.436 255.57 230.262C256.862 230.089 254.647 227.79 254.647 227.79C254.647 227.79 254.893 227.469 254.278 225.259C253.662 223.05 254.4 217.353 254.598 215.873C254.797 214.393 255.708 207.228 255.708 207.228C255.708 207.228 255.217 198.154 255.586 197.781C255.954 197.409 257.189 193.828 256.573 192.643C255.958 191.458 254.97 183.751 254.97 183.331C254.97 182.91 254.169 172.894 254.169 172.894C254.169 172.894 253.432 165.916 253.614 164.436C253.797 162.956 253.121 157.461 253.121 157.461C253.121 152.888 250.473 147.95 250.473 147.95L250.406 148.126L244.677 163.219C244.677 163.219 243.754 167.785 242.949 170.38C242.445 172.141 242.043 173.931 241.747 175.739L241.693 176.06C241.67 176.199 241.651 176.317 241.638 176.407L241.6 176.658C241.6 176.658 242.029 179.93 241.353 180.98C240.677 182.03 239.907 185.177 239.907 186.054C239.907 186.93 239.965 190.257 239.965 190.257C239.965 190.257 240.215 196.863 239.536 197.604C238.856 198.346 239.215 198.963 239.215 198.963C239.215 198.963 240.327 203.963 239.834 205.26C239.34 206.557 239.712 209.579 239.712 209.579C239.712 209.579 238.734 219.129 238.625 219.63C238.516 220.131 237.824 223.952 238.561 224.261C239.298 224.569 240.718 226.422 240.718 226.422C240.718 226.422 241.039 234.511 239.92 235.127C238.801 235.744 239.423 238.894 239.423 238.894C239.423 238.894 230.489 240.625 228.454 239.636C226.418 238.647 222.043 238.091 222.043 238.091L222.655 236.062C222.62 236.132 222.213 236.791 221.921 234.263C221.6 231.608 224.203 232.905 224.203 232.905C224.203 232.905 226.236 233.4 222.966 230.188C219.696 226.977 221.302 223.705 221.488 223.705C221.674 223.705 222.104 218.952 222.104 218.952C222.104 218.952 222.658 216.111 222.225 213.888C221.793 211.666 221.427 204.749 221.427 204.749C221.427 204.749 221.748 199.502 221.18 197.588C220.613 195.674 221.549 192.216 221.735 191.41C221.921 190.604 221.18 183.26 221.18 183.26C221.18 183.26 221.799 179.805 221.427 177.274C221.055 174.744 221.799 165.419 221.799 165.419L222.908 154.674C222.908 154.674 223.706 151.341 223.585 149.982C223.463 148.624 224.508 143.881 224.508 143.881C224.508 143.881 224.386 142.15 225.001 140.917C225.617 139.684 225.867 135.609 225.867 135.609L231.784 122.022L234.669 110.045L273.809 109.675C273.809 109.675 273.954 110.713 274.188 112.601C274.422 114.489 274.761 117.286 275.149 120.735C275.489 123.869 275.861 127.555 276.226 131.653C277.38 144.732 274.915 147.079 274.915 147.079Z" fill="#3F3D56"/>
<path d="M271.28 38.9615L262.154 48.7203C262.154 48.7203 250.447 44.0255 251.678 42.4199C252.156 41.7969 252.079 39.851 251.803 37.6738C251.37 34.257 250.447 30.3169 250.447 30.3169C250.447 30.3169 270.908 26.9837 269.18 30.4389C268.539 31.7041 268.661 33.1781 269.052 34.5396C269.552 36.1242 270.304 37.6175 271.28 38.9615Z" fill="#FBBEBE"/>
<path opacity="0.1" d="M269.18 30.4389C268.539 31.7041 268.251 31.8262 268.645 33.1877C265.969 36.0778 262.555 39.2087 258.336 39.2087C256.069 39.2123 253.832 38.6868 251.803 37.6738C251.37 34.257 250.447 30.3169 250.447 30.3169C250.447 30.3169 270.908 26.9837 269.18 30.4389Z" fill="black"/>
<path d="M273.005 24.1418C273.033 26.0899 272.675 28.0244 271.951 29.8327C271.227 31.6409 270.151 33.2868 268.785 34.6747C267.42 36.0626 265.793 37.1647 263.999 37.917C262.205 38.6693 260.279 39.0567 258.334 39.0567C256.389 39.0567 254.464 38.6693 252.67 37.917C250.876 37.1647 249.249 36.0626 247.884 34.6747C246.518 33.2868 245.442 31.6409 244.718 29.8327C243.994 28.0244 243.635 26.0899 243.664 24.1418C243.664 24.0711 243.664 24.0005 243.664 23.9298C243.692 20.0326 245.265 16.3062 248.035 13.5703C250.806 10.8344 254.548 9.31322 258.439 9.34133C262.329 9.36943 266.049 10.9445 268.78 13.7202C271.511 16.4958 273.03 20.2445 273.002 24.1418H273.005Z" fill="#FBBEBE"/>
<path opacity="0.1" d="M275.13 121.091C273.187 121.107 266.715 121.162 259.484 121.277H259.397L257.006 121.316H256.932C248.357 121.454 239.907 119.775 236.516 120.096C229.303 120.773 239.103 113.426 239.103 113.426C239.103 113.426 246.908 115.513 255.531 115.089L257.605 114.983C264.161 114.611 270.748 113.994 274.184 112.96C274.425 114.868 274.758 117.655 275.13 121.091Z" fill="black"/>
<path d="M275.13 120.722C273.187 120.722 266.715 120.792 259.484 120.905H259.397L257.006 120.947H256.932C248.357 121.085 239.907 119.405 236.516 119.723C229.303 120.401 239.103 113.057 239.103 113.057C239.103 113.057 246.908 115.141 255.531 114.72L257.605 114.611C264.161 114.242 270.748 113.622 274.184 112.588C274.425 114.495 274.758 117.273 275.13 120.722Z" fill="#E3A79F"/>
<path opacity="0.1" d="M254.39 43.0366L243.049 48.3479L234.298 116.143C234.298 116.143 239.475 113.799 242.433 115.279C245.392 116.759 254.512 115.404 254.512 115.404C254.512 115.404 261.17 115.032 262.157 115.773C263.144 116.515 274.729 112.688 274.729 112.688C274.729 112.688 276.826 107.993 275.223 107.254C273.62 106.516 275.717 99.2262 275.717 99.2262L274.729 50.3228L272.758 44.0257L267.456 40.8145L262.026 45.1367L259.461 45.506L254.39 43.0366Z" fill="black"/>
<path d="M254.39 42.2947L243.049 47.606L234.298 115.407C234.298 115.407 239.475 113.06 242.433 114.543C245.392 116.027 254.512 114.666 254.512 114.666C254.512 114.666 261.17 114.296 262.157 115.035C263.144 115.773 274.729 111.949 274.729 111.949C274.729 111.949 276.826 107.257 275.223 106.515C273.62 105.774 275.717 98.4875 275.717 98.4875L274.729 49.5777L272.758 43.2805L267.456 40.0693L262.026 44.3948L259.461 44.7609L254.39 42.2947Z" fill="#E7EFFD"/>
<path opacity="0.1" d="M254.204 45.4449C254.204 45.4449 257.471 49.3336 257.41 50.1364C257.349 50.9392 257.227 52.8531 257.227 52.8531L254.759 57.8561C254.759 57.8561 253.403 64.0923 253.403 65.3896C253.403 66.687 251.245 77.9133 251.245 77.9133L248.658 95.2024L245.392 117.864L248.719 123.606L252.665 120.272L257.903 79.8882L259.012 71.9244C259.012 71.9244 260.183 57.5992 260.183 56.1189C260.183 54.6385 259.506 50.7465 259.506 50.7465C259.506 50.7465 260.308 47.0408 263.635 46.177C266.962 45.3132 263.388 45.9908 263.388 45.9908L261.465 44.4462L259.801 45.1269C259.801 45.1269 255.191 43.7172 254.204 45.4449Z" fill="black"/>
<path d="M253.836 45.082C253.836 45.082 257.102 48.9708 257.041 49.7736C256.98 50.5764 256.855 52.4903 256.855 52.4903L254.39 57.4933C254.39 57.4933 253.05 63.723 253.05 65.0172C253.05 66.3113 250.893 77.5408 250.893 77.5408L248.287 94.8556L245.036 117.501L248.367 123.246L252.294 119.903L257.538 79.5286L258.647 71.5648C258.647 71.5648 259.817 57.2396 259.817 55.7561C259.817 54.2725 259.141 50.3837 259.141 50.3837C259.141 50.3837 259.942 46.6812 263.269 45.8142C266.597 44.9472 263.023 45.6311 263.023 45.6311L261.099 44.0865L259.461 44.7609C259.461 44.7609 254.823 43.3448 253.836 45.082Z" fill="#3F3D56"/>
<path opacity="0.1" d="M251.678 38.5923C251.678 38.5923 251.184 38.9616 251.063 41.431C250.941 43.9004 249.213 49.459 249.213 49.459C249.213 49.459 255.624 45.0115 258.83 45.506L251.678 38.5923Z" fill="black"/>
<path d="M251.678 37.8505C251.678 37.8505 251.184 38.2198 251.063 40.6924C250.941 43.165 249.213 48.7204 249.213 48.7204C249.213 48.7204 255.624 44.2761 258.83 44.7706L251.678 37.8505Z" fill="#E7EFFD"/>
<path opacity="0.1" d="M269.184 36.6141L259.073 45.5059C259.073 45.5059 267.581 50.57 268.69 51.8063C269.799 53.0426 270.908 39.7033 270.908 39.7033L269.184 36.6141Z" fill="black"/>
<path d="M269.552 35.8756L259.461 44.761C259.461 44.761 267.966 49.8219 269.078 51.0582C270.19 52.2945 271.299 38.9552 271.299 38.9552L269.552 35.8756Z" fill="#E7EFFD"/>
<path opacity="0.1" d="M252.047 38.5922C252.047 38.5922 250.938 38.0367 249.889 39.6423C248.841 41.2479 246.87 41.9864 246.87 41.9864C246.87 41.9864 235.65 43.7783 235.221 45.2586L229.983 45.5798C229.983 45.5798 228.133 45.8238 227.947 49.7158C227.761 53.6078 226.765 53.9674 226.765 53.9674C226.765 53.9674 224.607 57.7952 224.79 59.7701C224.973 61.745 223.126 62.734 223.126 62.734L230.82 82.8008C230.82 82.8008 231.066 91.0761 229.646 94.101C228.226 97.126 225.578 110.526 225.578 110.526C225.578 110.526 226.691 110.279 226.627 111.018C226.563 111.756 225.271 119.848 225.271 119.848C225.271 119.848 224.902 123.06 224.287 124.171C223.671 125.282 223.607 131.088 223.607 131.088L222.62 135.285C222.62 135.285 224.963 140.535 228.537 139.78C232.111 139.026 238.625 125.041 238.625 125.041L242.754 109.913L245.959 94.9712L246.883 84.8463L248.364 62.4321L250.521 47.6125C250.521 47.6125 252.912 39.6423 252.047 38.5922Z" fill="black"/>
<path d="M251.678 37.8505C251.678 37.8505 250.569 37.295 249.521 38.9006C248.473 40.5062 246.501 41.2479 246.501 41.2479C246.501 41.2479 235.282 43.0366 234.852 44.5202L229.611 44.8413C229.611 44.8413 227.761 45.0885 227.579 48.9773C227.396 52.8661 226.405 53.2386 226.405 53.2386C226.405 53.2386 224.248 57.0663 224.434 59.0412C224.62 61.0161 222.77 62.0051 222.77 62.0051L230.464 82.0719C230.464 82.0719 230.711 90.3472 229.294 93.3721C227.877 96.3971 225.226 109.797 225.226 109.797C225.226 109.797 226.335 109.55 226.274 110.292C226.213 111.034 224.918 119.12 224.918 119.12C224.918 119.12 224.549 122.331 223.931 123.442C223.312 124.553 223.254 130.359 223.254 130.359L222.277 134.543C222.277 134.543 224.62 139.793 228.194 139.039C231.768 138.284 238.24 124.283 238.24 124.283L242.372 109.155L245.578 94.2103L246.504 84.0853L247.982 61.6712L250.139 46.8515C250.139 46.8515 252.54 38.9006 251.678 37.8505Z" fill="#65617D"/>
<path opacity="0.1" d="M212.105 85.6395L208.531 88.1121C208.531 88.1121 203.082 88.2855 199.158 87.3222L197.171 86.4359L196.77 86.2625L197.18 86.3909C199.242 87.0043 200.854 86.9914 202.114 86.5676C207.172 84.8624 206.602 76.494 206.419 74.5994C206.4 74.41 206.387 74.2783 206.377 74.2398C206.376 74.2323 206.376 74.2248 206.377 74.2173L206.406 74.2655C206.474 74.3791 206.553 74.4866 206.64 74.5866C206.711 74.6669 206.784 74.7503 206.864 74.8274L208.65 78.4047L208.669 78.5556L212.105 85.6395Z" fill="black"/>
<path d="M224.495 61.4977L222.77 61.9922L222.524 65.5245C222.524 65.5245 220.488 65.2034 219.934 67.6246C219.379 70.0459 218.395 71.157 218.395 71.157C218.395 71.157 215.003 73.9989 214.817 76.4041L212.724 77.6886C212.724 77.6886 207.852 76.5518 206.746 74.5897C206.746 74.5897 208.964 90.5205 197.129 86.6285C197.129 86.6285 210.381 92.4344 210.996 93.2372C211.612 94.04 215.683 96.3841 219.379 94.4093C223.075 92.4344 223.88 89.3966 223.88 89.3966C223.88 89.3966 227.454 84.3935 227.579 83.6517C227.704 82.91 230.464 82.0461 230.464 82.0461L235.766 69.2013L224.495 61.4977Z" fill="#65617D"/>
<path opacity="0.1" d="M267.767 44.0256L269.552 35.8756C269.552 35.8756 270.354 38.5313 271.155 39.1478L273.806 41.1837C273.806 41.1837 276.457 42.42 277.38 42.42C278.304 42.42 283.298 43.7045 283.913 44.3949C284.529 45.0853 286.997 44.5812 286.997 44.5812C286.997 44.5812 289.029 45.2587 290.818 45.6922C292.607 46.1258 293.469 49.0897 293.097 50.2618C292.948 50.8454 292.95 51.4572 293.101 52.0402C293.252 52.6231 293.549 53.1581 293.963 53.595C294.7 54.3368 295.072 56.7452 295.072 56.7452C295.978 57.0409 296.731 57.684 297.165 58.5338C297.784 59.8922 297.598 62.8561 297.598 62.8561L288.414 75.823C288.414 75.823 288.536 80.826 288.167 81.9242C287.798 83.0225 289.449 101.93 289.449 101.93L291.373 134.408C291.373 134.408 288.847 136.569 288.292 136.817C287.738 137.064 287.18 125.33 287.18 124.9C287.18 124.469 272.944 103.536 272.944 103.536C272.944 103.536 271.021 100.446 271.021 99.7689C271.021 99.0913 269.232 92.8519 269.232 92.8519L266.52 80.8132L267.767 44.0256Z" fill="black"/>
<path d="M298.361 62.1496C298.361 62.5734 298.338 62.856 298.338 62.856L289.161 75.8132C289.161 75.8132 289.289 80.8131 288.917 81.9145C288.702 82.5567 289.174 89.2039 289.61 94.6598C289.93 98.5999 290.212 101.92 290.212 101.92L291.023 115.696L292.12 134.398C292.12 134.398 289.594 136.56 289.039 136.807C288.484 137.054 287.93 125.32 287.93 124.887C287.93 124.453 273.691 103.526 273.691 103.526C273.691 103.526 271.767 100.437 271.767 99.7591C271.767 99.0816 269.982 92.8422 269.982 92.8422L267.27 80.8002L268.501 44.0031L269.549 35.853C269.549 35.853 271.091 38.5087 271.892 39.122C272.694 39.7354 274.54 41.1611 274.54 41.1611C274.54 41.1611 277.191 42.3975 278.118 42.3975C279.044 42.3975 284.035 43.6819 284.651 44.3723C285.266 45.0628 287.734 44.5586 287.734 44.5586C287.734 44.5586 289.767 45.2362 291.552 45.6697C293.338 46.1032 294.203 49.0671 293.835 50.236C293.685 50.8198 293.685 51.4321 293.836 52.0157C293.987 52.5992 294.283 53.1349 294.697 53.5724C295.437 54.3142 295.806 56.7194 295.806 56.7194C296.714 57.0171 297.467 57.6624 297.902 58.5145C298.335 59.4746 298.377 61.1862 298.361 62.1496Z" fill="#65617D"/>
<path opacity="0.1" d="M223.017 226.669C223.338 226.669 236.269 227.164 236.022 229.264C235.775 231.364 223.017 226.669 223.017 226.669Z" fill="black"/>
<path opacity="0.1" d="M225.915 230.188C225.915 230.188 234.605 231.608 232.326 232.905C230.047 234.202 225.915 230.188 225.915 230.188Z" fill="black"/>
<path opacity="0.1" d="M258.211 225.311C258.211 225.311 272.636 226.547 270.479 228.149C268.321 229.752 263.205 230.002 262.959 230.076C262.712 230.15 258.211 225.311 258.211 225.311Z" fill="black"/>
<path opacity="0.1" d="M256.486 231.672C256.486 231.672 264.5 233.03 264.744 234.562C264.988 236.094 256.486 231.672 256.486 231.672Z" fill="black"/>
<path opacity="0.1" d="M260.923 194.499C260.923 194.499 268.257 196.227 268.69 197.389L260.923 194.499Z" fill="black"/>
<path opacity="0.1" d="M232.631 199.811C232.631 199.811 228.81 200.922 232.509 203.144C236.208 205.366 232.631 199.811 232.631 199.811Z" fill="black"/>
<path opacity="0.1" d="M249.582 140.471C250.014 140.471 256.733 138.249 259.073 139.238C261.413 140.227 264.314 140.223 264.314 140.223L249.582 140.471Z" fill="black"/>
<path opacity="0.1" d="M250.447 147.519L250.38 148.13L244.652 163.222C244.652 163.222 243.728 167.789 242.924 170.383C242.419 172.145 242.018 173.934 241.722 175.743L246.809 144.141L250.447 147.519Z" fill="black"/>
<path d="M259.397 120.905L257.006 120.947H256.932L255.531 114.723C256.22 114.688 256.91 114.653 257.605 114.611L259.397 120.905Z" fill="#3F3D56"/>
<path d="M288.475 113.368L286.939 114.633L281.81 118.859C281.81 118.859 267.94 126.271 264.119 119.232C260.75 113.031 276.476 108.603 280.262 107.636C280.778 107.505 281.07 107.44 281.07 107.44L288.475 113.368Z" fill="#FBBEBE"/>
<path opacity="0.1" d="M229.242 52.6702C229.242 52.6702 231.954 53.9033 232.57 55.6341C233.185 57.3649 229.242 52.6702 229.242 52.6702Z" fill="black"/>
<path opacity="0.1" d="M220.86 71.1924C220.86 71.1924 216.914 76.0092 218.517 77.862C220.119 79.7149 220.86 71.1924 220.86 71.1924Z" fill="black"/>
<path opacity="0.1" d="M291.373 55.3868C291.373 55.3868 287.673 55.7561 287.552 58.9673L291.373 55.3868Z" fill="black"/>
<path opacity="0.1" d="M257.102 106.018C257.471 105.649 265.978 93.0511 267.95 94.1621L257.102 106.018Z" fill="black"/>
<path opacity="0.1" d="M273.005 24.1418C273.008 26.5619 272.412 28.945 271.271 31.078L271.162 31.0587C270.232 30.8628 269.748 29.7742 269.036 29.0999C268.6 28.6834 268.045 28.4142 267.448 28.3301C266.851 28.246 266.243 28.3513 265.709 28.631C265.169 28.955 264.731 29.4232 264.442 29.983C264.153 30.5428 264.026 31.1722 264.074 31.8005C263.606 29.8224 263.754 27.7191 263.295 25.7377C262.837 23.7564 261.455 21.7526 259.567 21.7173C258.753 21.7173 257.801 22.0192 257.214 21.3962C256.858 21.0269 256.785 20.4328 256.519 19.9993C255.169 17.8093 251.069 18.9172 249.383 20.0379C247.761 21.1168 245.754 22.9536 243.667 23.917C243.695 20.0198 245.268 16.2934 248.039 13.5575C250.809 10.8216 254.552 9.3004 258.442 9.32851C262.332 9.35661 266.052 10.9317 268.783 13.7073C271.514 16.483 273.033 20.2317 273.005 24.1289V24.1418Z" fill="black"/>
<path d="M256.519 19.6397C256.788 20.0861 256.858 20.6705 257.214 21.0366C257.801 21.6467 258.753 21.3352 259.567 21.3577C261.455 21.3898 262.837 23.3968 263.295 25.3781C263.753 27.3594 263.616 29.4596 264.074 31.4377C264.026 30.8095 264.154 30.1803 264.443 29.6209C264.732 29.0615 265.172 28.5942 265.712 28.2714C266.245 27.992 266.853 27.8866 267.449 27.9701C268.045 28.0536 268.6 28.3218 269.036 28.737C269.748 29.4146 270.232 30.5 271.162 30.6959C272.091 30.8918 272.989 29.9991 273.322 29.0164C273.655 28.0338 273.643 26.958 273.854 25.9401C274.274 24.0134 275.528 22.4367 276.223 20.6063C277.049 18.3773 277.026 15.9218 276.159 13.7086C275.697 12.5494 275.008 11.5057 274.556 10.3465C273.845 8.58676 273.659 6.60224 272.796 4.92599C271.344 2.1194 267.927 0.712897 265.119 1.76938C263.779 2.27354 262.616 3.24975 261.256 3.6961C259.432 4.28054 257.487 3.84061 255.599 3.57729C253.71 3.31397 251.63 3.28828 250.114 4.54065C248.37 5.96963 247.892 8.65741 246.267 10.2277C245.578 10.886 244.722 11.3066 243.994 11.9168C243.267 12.5269 242.642 13.4325 242.712 14.4247C242.821 15.7092 244.071 16.8652 243.61 18.0502C243.443 18.3925 243.211 18.699 242.927 18.9525C241.552 20.3935 240.531 22.1348 239.943 24.0391C243.241 25.0699 246.812 21.4284 249.393 19.7072C251.063 18.5608 255.169 17.4657 256.519 19.6397Z" fill="#7C5C5C"/>
<path opacity="0.1" d="M288.475 113.368L286.939 114.633C285.587 112.386 280.031 107.867 280.031 107.867L280.272 107.636C280.788 107.505 281.08 107.44 281.08 107.44L288.475 113.368Z" fill="black"/>
<path d="M289.956 111.082C289.956 111.082 289.404 112.456 288.834 113.651C288.263 114.845 287.645 115.918 287.612 115.041C287.552 113.311 280.403 107.505 280.403 107.505L281.365 106.561L282.49 105.469L289.956 111.082Z" fill="#E7EFFD"/>
<path opacity="0.1" d="M290.203 101.943L291.014 115.719C289.09 112.736 283.843 105.09 280.461 105.337L288.661 95.8929C289.001 95.5116 289.315 95.1071 289.6 94.6823C289.914 98.6224 290.203 101.943 290.203 101.943Z" fill="black"/>
<path opacity="0.1" d="M289.956 111.082C289.956 111.082 289.404 112.456 288.834 113.651C286.686 110.7 283.731 107.212 281.371 106.561L282.496 105.469L289.956 111.082Z" fill="black"/>
<path d="M296.12 61.1381L298.338 62.8657C298.338 62.8657 302.034 62.9299 302.406 66.0159C302.778 69.1018 306.166 70.5116 306.166 70.5116C306.166 70.5116 308.692 73.042 308.692 74.2141C308.692 75.3862 310.616 77.4895 310.616 77.6725C310.616 77.8556 312.465 81.6255 312.218 82.3031C311.972 82.9807 314.19 85.9478 313.501 87.0589C312.943 88.0554 312.448 89.0861 312.02 90.1448C312.02 90.1448 309.135 95.7034 307.644 96.7535C306.153 97.8036 299.387 106.631 299.387 106.631C299.387 106.631 292.113 115.028 292.113 117.623C292.113 117.623 285.022 105.767 280.833 106.063L289.029 96.6154C289.029 96.6154 290.449 95.074 290.51 94.146C290.571 93.218 294.453 88.9599 296.303 88.7737C296.303 88.7737 296.623 86.2432 295.809 86.1822C294.995 86.1212 294.331 84.1431 294.331 84.1431C294.331 84.1431 288.908 77.7207 288.847 73.6457C288.786 69.5707 296.12 61.1381 296.12 61.1381Z" fill="#65617D"/>
<path opacity="0.1" d="M299.387 66.9954C299.387 66.9954 294.206 70.8231 295.319 72.0562C296.431 73.2893 299.387 66.9954 299.387 66.9954Z" fill="black"/>
<path opacity="0.1" d="M299.633 82.8008C299.633 82.8008 309.25 79.7149 310.234 82.8008H299.633Z" fill="black"/>
<path opacity="0.1" d="M240.09 246.861C240.09 246.861 234.913 250.258 232.326 249.751C229.739 249.244 227.085 250.618 227.085 250.618C225.302 252.57 223.053 254.036 220.549 254.879C216.359 256.299 210.506 255.743 207.179 254.629C205.601 254.105 205.476 253.425 206.233 252.59C209.852 253.312 217.94 254.748 220.119 253.704C222.953 252.346 227.021 249.382 227.021 249.382C227.021 249.382 232.326 248.64 233.063 248.64C233.589 248.64 237.683 246.948 239.994 245.975L240.09 246.861Z" fill="black"/>
<path opacity="0.1" d="M271.453 253.81C271.418 254.022 271.402 254.15 271.402 254.15C271.402 254.15 270.168 256.867 263.327 257.856C256.486 258.845 256.486 255.57 256.486 255.57C256.486 255.57 256.512 255.217 256.557 254.687C258.721 255.506 263.446 256.427 271.453 253.81Z" fill="black"/>
<path opacity="0.1" d="M231.8 66.2535C231.8 66.2535 231.8 80.3315 230.598 81.7219C229.396 83.1124 231.8 66.2535 231.8 66.2535Z" fill="black"/>
<path opacity="0.1" d="M287.366 70.791L289.151 75.823C289.151 75.823 289.863 70.8841 287.366 70.791Z" fill="black"/>
<g opacity="0.1">
<path opacity="0.1" d="M243.783 16.8235C244.235 15.6642 243.052 14.5307 242.898 13.2911C242.741 13.6415 242.672 14.0254 242.699 14.4086C242.78 15.3431 243.469 16.2198 243.661 17.0836C243.71 17.0011 243.751 16.914 243.783 16.8235Z" fill="black"/>
<path opacity="0.1" d="M264.241 30.1211C263.798 28.1719 263.92 26.1103 263.478 24.1643C263.035 22.2183 261.641 20.176 259.753 20.1439C258.939 20.1439 257.987 20.4425 257.397 19.8228C257.044 19.4567 256.971 18.8594 256.704 18.4259C255.355 16.2359 251.255 17.347 249.566 18.4677C247.043 20.1471 243.581 23.657 240.35 22.8606C240.193 23.2363 240.048 23.6152 239.93 24.0038C243.228 25.0346 246.799 21.3931 249.38 19.6719C251.063 18.5512 255.169 17.424 256.519 19.6301C256.788 20.0765 256.858 20.6609 257.214 21.027C257.801 21.6371 258.753 21.3256 259.567 21.3481C261.455 21.3802 262.837 23.3872 263.295 25.3685C263.753 27.3498 263.616 29.45 264.074 31.4281C264.042 30.9856 264.099 30.5413 264.241 30.1211Z" fill="black"/>
<path opacity="0.1" d="M273.508 27.8025C273.187 28.7852 272.293 29.6843 271.344 29.482C270.395 29.2797 269.931 28.1975 269.222 27.5232C268.786 27.1072 268.23 26.8386 267.633 26.7551C267.036 26.6716 266.429 26.7773 265.895 27.0575C265.381 27.3652 264.958 27.8048 264.671 28.331C264.383 28.8572 264.241 29.4508 264.26 30.0504C264.506 29.2946 265.024 28.6573 265.712 28.2617C266.245 27.9823 266.853 27.8769 267.449 27.9604C268.045 28.0439 268.6 28.3121 269.036 28.7274C269.748 29.4049 270.232 30.4903 271.162 30.6862C272.091 30.8821 272.989 29.9894 273.322 29.0067C273.499 28.4298 273.612 27.8355 273.662 27.2341C273.622 27.4265 273.571 27.6163 273.508 27.8025Z" fill="black"/>
<path opacity="0.1" d="M276.406 19.3925C275.713 21.2229 274.457 22.8028 274.04 24.7295C273.957 25.118 273.909 25.5162 273.861 25.9144C274.284 23.9877 275.531 22.4206 276.223 20.5967C276.531 19.7709 276.723 18.9063 276.794 18.0277C276.699 18.4918 276.569 18.948 276.406 19.3925Z" fill="black"/>
</g>
<path d="M192.491 65.4299L192.457 65.4472C192.397 65.4775 192.373 65.5509 192.403 65.6111L193.334 67.4638C193.365 67.524 193.438 67.5482 193.498 67.5179L193.532 67.5006C193.593 67.4703 193.617 67.3969 193.586 67.3367L192.655 65.484C192.625 65.4238 192.552 65.3995 192.491 65.4299Z" fill="#3A3768"/>
<path d="M183.275 68.0114L183.255 68.0215C183.222 68.0382 183.209 68.0787 183.225 68.1119L183.508 68.6737C183.525 68.7069 183.565 68.7203 183.598 68.7036L183.618 68.6935C183.651 68.6768 183.665 68.6363 183.648 68.603L183.365 68.0413C183.349 68.0081 183.308 67.9947 183.275 68.0114Z" fill="#3A3768"/>
<path d="M183.91 69.2914L183.89 69.3015C183.852 69.3206 183.837 69.3669 183.856 69.4048L184.383 70.4539C184.402 70.4919 184.448 70.5072 184.486 70.4881L184.506 70.478C184.544 70.4589 184.559 70.4127 184.54 70.3747L184.013 69.3256C183.994 69.2876 183.948 69.2723 183.91 69.2914Z" fill="#3A3768"/>
<path d="M184.713 70.8949L184.693 70.905C184.656 70.9233 184.642 70.9676 184.66 71.004L185.195 72.0674C185.213 72.1038 185.257 72.1185 185.294 72.1002L185.314 72.0901C185.35 72.0718 185.364 72.0275 185.346 71.9911L184.812 70.9277C184.793 70.8913 184.749 70.8766 184.713 70.8949Z" fill="#3A3768"/>
<path d="M189.891 61.8833L182.785 65.4682C182.431 65.6469 182.289 66.0794 182.467 66.4342L190.409 82.2313C190.587 82.5862 191.019 82.7289 191.373 82.5503L198.479 78.9654C198.833 78.7867 198.976 78.3542 198.797 77.9994L190.856 62.2022C190.677 61.8474 190.246 61.7046 189.891 61.8833Z" fill="#3A3768"/>
<path d="M188.913 62.9203C188.872 62.9386 188.836 62.9653 188.806 62.9987C188.776 63.032 188.753 63.0713 188.739 63.1139C188.725 63.1566 188.721 63.2017 188.725 63.2463C188.73 63.291 188.744 63.3342 188.766 63.3731L188.798 63.4341C188.82 63.4733 188.834 63.5166 188.838 63.5614C188.842 63.6062 188.837 63.6514 188.823 63.6941C188.809 63.7368 188.786 63.776 188.756 63.8092C188.725 63.8425 188.688 63.8689 188.647 63.8869L185.092 65.682C185.053 65.7043 185.01 65.7182 184.966 65.7227C184.921 65.7273 184.876 65.7225 184.834 65.7086C184.791 65.6947 184.752 65.672 184.718 65.6419C184.685 65.6119 184.659 65.5752 184.64 65.5343L184.608 65.47C184.59 65.4291 184.563 65.3924 184.53 65.3623C184.497 65.3323 184.458 65.3096 184.415 65.2957C184.372 65.2818 184.327 65.277 184.283 65.2815C184.238 65.2861 184.195 65.3 184.156 65.3223L183.464 65.6691C183.388 65.707 183.32 65.7595 183.265 65.8237C183.209 65.8878 183.167 65.9624 183.141 66.043C183.114 66.1236 183.104 66.2087 183.11 66.2934C183.117 66.378 183.14 66.4605 183.179 66.5361L190.74 81.5742C190.778 81.6502 190.831 81.718 190.895 81.7735C190.959 81.8291 191.033 81.8714 191.114 81.898C191.194 81.9246 191.279 81.9349 191.364 81.9284C191.448 81.9219 191.53 81.8986 191.606 81.86L197.809 78.7291C197.884 78.6913 197.951 78.6389 198.007 78.5749C198.062 78.511 198.104 78.4368 198.13 78.3565C198.157 78.2763 198.167 78.1916 198.161 78.1073C198.155 78.023 198.132 77.9407 198.094 77.8653L190.542 62.824C190.504 62.7487 190.451 62.6816 190.387 62.6267C190.323 62.5717 190.249 62.5299 190.169 62.5036C190.089 62.4774 190.004 62.4672 189.92 62.4737C189.836 62.4802 189.755 62.5032 189.679 62.5414L188.913 62.9203Z" fill="#6C63FF"/>
<path d="M186.856 64.056L185.891 64.5427C185.834 64.5714 185.812 64.641 185.84 64.698L185.856 64.7295C185.885 64.7865 185.954 64.8095 186.011 64.7808L186.976 64.294C187.033 64.2653 187.056 64.1958 187.027 64.1388L187.011 64.1072C186.983 64.0502 186.913 64.0273 186.856 64.056Z" fill="#E6E8EC"/>
<path d="M187.329 64.0987C187.412 64.0987 187.479 64.0312 187.479 63.9478C187.479 63.8644 187.412 63.7969 187.329 63.7969C187.246 63.7969 187.179 63.8644 187.179 63.9478C187.179 64.0312 187.246 64.0987 187.329 64.0987Z" fill="#E6E8EC"/>
<path opacity="0.5" d="M31.0971 8.378C31.0971 8.378 62.236 6.49624 58.5656 28.3549C58.5656 28.3549 59.2933 32.2083 55.7992 33.9713C55.7992 33.9713 55.7447 32.3657 52.5936 32.9019C51.4754 33.0878 50.3393 33.1417 49.2086 33.0625C47.681 32.9604 46.2287 32.3604 45.0734 31.3541C45.0734 31.3541 36.335 27.7415 32.9275 13.4003C32.9275 13.4003 30.4112 10.2726 30.5105 9.46981L35.7644 11.7177C35.7644 11.7177 33.9693 15.5165 35.383 18.6731C35.383 18.6731 35.5529 11.8557 36.5626 12.0163C36.7678 12.0516 39.2938 13.3329 39.2938 13.3329C39.2938 13.3329 36.2036 19.948 38.534 24.7551C38.534 24.7551 37.6493 16.6051 40.2586 13.8114L43.9579 15.9757C43.9579 15.9757 40.3452 22.8059 42.7942 28.3838C42.7942 28.3838 42.1531 19.8324 44.7176 16.5023L48.0706 19.1195C48.0706 19.1195 44.6791 25.863 46.7467 30.4775C46.7467 30.4775 47.016 20.5228 48.795 19.7713C48.795 19.7713 51.7281 22.3628 52.1769 23.4257C52.1769 23.4257 49.8529 28.3131 51.2954 30.8949C51.2954 30.8949 52.1769 24.2638 52.8982 24.2317C52.8982 24.2317 55.8216 28.6278 56.1262 31.6367C56.1262 31.6367 55.9979 27.1571 53.6066 23.811C53.6066 23.811 56.4307 24.2959 58.0944 26.1327C58.0944 26.1327 57.6392 23.0243 52.8982 22.7545C52.8982 22.7545 50.4844 19.4213 49.8368 19.2222C49.8368 19.2222 54.5522 18.8272 57.4116 20.0957C57.4116 20.0957 54.8952 17.1638 48.9746 18.4901L45.6664 15.7862C45.6664 15.7862 51.8724 14.9321 54.5041 15.8729C54.5041 15.8729 51.4749 13.2815 44.7721 15.1697L41.1626 13.015C41.1626 13.015 46.455 11.8718 49.6093 12.286C49.6093 12.286 46.2819 10.4878 40.108 12.437L37.5435 11.2777C37.5435 11.2777 41.4223 10.5135 42.557 10.3946C43.6918 10.2758 43.7527 9.95791 43.7527 9.95791C41.2967 9.54894 38.7757 9.83016 36.4697 10.7703C36.4697 10.7703 31.0042 8.7216 31.0971 8.378Z" fill="#13F1FC"/>
<path opacity="0.5" d="M48.5354 66.854C48.5354 66.854 62.6046 66.003 60.9473 75.8807C60.9473 75.8807 61.2679 77.6243 59.6972 78.4175C59.6972 78.4175 59.6715 77.6853 58.2546 77.9326C57.7498 78.0188 57.2364 78.0436 56.7256 78.0065C56.0355 77.9602 55.3793 77.6896 54.8568 77.2358C54.8568 77.2358 50.9011 75.5981 49.3624 69.1211C49.3624 69.1211 48.2245 67.7113 48.2693 67.3485L50.6446 68.3632C50.6446 68.3632 49.8336 70.078 50.4715 71.5038C50.4715 71.5038 50.5485 68.4242 51.0037 68.4981C51.0966 68.5142 52.2378 69.0922 52.2378 69.0922C52.2378 69.0922 50.8434 72.0818 51.8948 74.2526C51.8948 74.2526 51.4973 70.5725 52.6738 69.3073L54.3471 70.2867C54.3471 70.2867 52.7026 73.3727 53.8117 75.9096C53.8117 75.9096 53.5264 72.0561 54.6869 70.5404L56.2031 71.7221C56.2031 71.7221 54.6708 74.7664 55.6037 76.8601C55.6037 76.8601 55.7255 72.3644 56.5301 72.0208C56.5301 72.0208 57.8539 73.1897 58.0591 73.6713C58.0591 73.6713 57.0077 75.8807 57.6584 77.0463C57.6584 77.0463 58.0591 74.0503 58.3861 74.0374C58.3861 74.0374 59.7068 76.0219 59.8446 77.3835C59.8446 77.3835 59.7869 75.3572 58.7066 73.8512C59.4674 73.9969 60.1693 74.3619 60.7261 74.9012C60.7261 74.9012 60.521 73.4979 58.3797 73.3759C58.3797 73.3759 57.2898 71.8699 56.9981 71.7703C56.9981 71.7703 59.1266 71.5905 60.4184 72.1653C60.4184 72.1653 59.2836 70.8423 56.607 71.4428L55.11 70.2193C55.11 70.2193 57.9149 69.8372 59.1041 70.261C59.1041 70.261 57.7353 69.089 54.7093 69.9399L53.0809 68.9766C53.0809 68.9766 55.4722 68.4628 56.8955 68.6554C56.8955 68.6554 55.3921 67.843 52.6032 68.7229L51.4396 68.1995C51.4396 68.1995 53.1899 67.8526 53.706 67.798C54.2221 67.7435 54.2445 67.6022 54.2445 67.6022C53.1355 67.4166 51.9969 67.5433 50.9556 67.9682C50.9556 67.9682 48.4841 67.0081 48.5354 66.854Z" fill="#13F1FC"/>
<path opacity="0.5" d="M0.266058 14.0619C0.266058 14.0619 14.3353 13.2142 12.678 23.0886C12.678 23.0886 12.9985 24.8355 11.4278 25.6287C11.4278 25.6287 11.4022 24.8965 9.98532 25.1438C9.48029 25.2284 8.96708 25.2532 8.45627 25.2176C7.76585 25.1702 7.10971 24.8985 6.58742 24.4437C6.58742 24.4437 2.63176 22.8092 1.09309 16.3322C1.09309 16.3322 -0.0448815 14.9193 -3.68338e-06 14.5564L2.37532 15.5712C2.37532 15.5712 1.56431 17.2892 2.20222 18.7149C2.20222 18.7149 2.27915 15.6354 2.73434 15.7093C2.8273 15.7093 3.96848 16.3033 3.96848 16.3033C3.96848 16.3033 2.57406 19.293 3.62549 21.4637C3.62549 21.4637 3.228 17.7805 4.40444 16.5185L6.07774 17.4818C6.07774 17.4818 4.44611 20.571 5.55203 23.0886C5.55203 23.0886 5.26673 19.2352 6.42715 17.7227L7.94338 18.9044C7.94338 18.9044 6.41112 21.9486 7.34394 24.0423C7.34394 24.0423 7.46575 19.5466 8.27034 19.2062C8.27034 19.2062 9.59424 20.3751 9.7994 20.8568C9.7994 20.8568 8.74797 23.0661 9.3987 24.2318C9.3987 24.2318 9.79939 21.2357 10.1264 21.2197C10.1264 21.2197 11.4471 23.2074 11.5849 24.5657C11.5849 24.5657 11.5272 22.5427 10.4469 21.0334C11.2083 21.1776 11.9106 21.5427 12.4664 22.0835C12.4664 22.0835 12.2613 20.677 10.12 20.555C10.12 20.555 9.03006 19.0489 8.73835 18.9494C8.73835 18.9494 10.8668 18.7695 12.1587 19.3443C12.1587 19.3443 11.0239 18.0181 8.34727 18.6218L6.8631 17.4112C6.8631 17.4112 9.66797 17.0258 10.8572 17.4529C10.8572 17.4529 9.48845 16.2808 6.46241 17.1318L4.83398 16.1685C4.83398 16.1685 7.22533 15.6515 8.6486 15.8473C8.6486 15.8473 7.14519 15.0349 4.35635 15.9148L3.19274 15.3913C3.19274 15.3913 4.94618 15.0477 5.45907 14.9932C5.97196 14.9386 5.9976 14.7973 5.9976 14.7973C4.88624 14.6032 3.74287 14.7233 2.69587 15.1441C2.69587 15.1441 0.224386 14.2193 0.266058 14.0619Z" fill="#6C63FF"/>
<path d="M318.129 239.042C326.342 239.042 333 237.915 333 236.524C333 235.134 326.342 234.007 318.129 234.007C309.917 234.007 303.259 235.134 303.259 236.524C303.259 237.915 309.917 239.042 318.129 239.042Z" fill="#6C63FF"/>
<path d="M324.278 232.407C324.919 231.813 325.512 231.123 325.698 230.262C325.884 229.402 325.518 228.39 324.707 228.079C323.797 227.732 322.826 228.365 322.088 229C321.351 229.636 320.505 230.368 319.54 230.234C320.036 229.783 320.408 229.211 320.618 228.574C320.828 227.937 320.869 227.256 320.739 226.598C320.701 226.327 320.59 226.072 320.418 225.86C319.915 225.317 318.998 225.539 318.392 225.975C316.469 227.331 315.934 229.948 315.924 232.305C315.728 231.454 315.892 230.567 315.889 229.697C315.886 228.827 315.645 227.86 314.927 227.392C314.469 227.146 313.955 227.026 313.436 227.042C312.571 227.009 311.609 227.096 311.019 227.729C310.285 228.516 310.475 229.835 311.116 230.702C311.757 231.569 312.718 232.112 313.616 232.709C314.333 233.137 314.944 233.721 315.405 234.418C315.459 234.52 315.504 234.628 315.536 234.739H320.957C322.163 234.114 323.279 233.33 324.278 232.407Z" fill="#6C63FF"/>
<path d="M18.589 257.599C25.035 257.599 30.2605 256.714 30.2605 255.621C30.2605 254.529 25.035 253.643 18.589 253.643C12.1431 253.643 6.9176 254.529 6.9176 255.621C6.9176 256.714 12.1431 257.599 18.589 257.599Z" fill="#6C63FF"/>
<path d="M23.4134 252.388C23.9466 251.953 24.3356 251.366 24.5289 250.705C24.67 250.037 24.3879 249.234 23.75 248.99C23.0351 248.717 22.2722 249.212 21.6952 249.713C21.1182 250.214 20.4515 250.785 19.695 250.676C20.0845 250.323 20.3761 249.874 20.5413 249.375C20.7064 248.875 20.7395 248.341 20.6374 247.824C20.6042 247.61 20.5133 247.409 20.3745 247.243C19.977 246.819 19.259 247.002 18.7718 247.336C17.2619 248.399 16.8484 250.454 16.8324 252.304C16.6817 251.636 16.81 250.943 16.8035 250.259C16.7971 249.575 16.6144 248.813 16.0374 248.447C15.6784 248.254 15.2749 248.159 14.8674 248.171C14.191 248.146 13.4345 248.216 12.9697 248.711C12.3959 249.33 12.5434 250.368 13.0434 251.045C13.5435 251.723 14.3064 252.153 15.0084 252.622C15.5714 252.958 16.0513 253.417 16.4125 253.964C16.4541 254.04 16.4895 254.12 16.5182 254.202H20.772C21.7306 253.72 22.6192 253.11 23.4134 252.388Z" fill="#6C63FF"/>
<path d="M48.0129 242.754C54.4589 242.754 59.6843 241.868 59.6843 240.776C59.6843 239.683 54.4589 238.798 48.0129 238.798C41.5669 238.798 36.3414 239.683 36.3414 240.776C36.3414 241.868 41.5669 242.754 48.0129 242.754Z" fill="#13F1FC"/>
<path d="M52.8404 237.542C53.3728 237.107 53.7607 236.52 53.9528 235.86C54.097 235.192 53.8117 234.392 53.1738 234.148C52.4622 233.872 51.6993 234.37 51.1191 234.87C50.5389 235.371 49.8785 235.943 49.122 235.834C49.5113 235.48 49.8024 235.031 49.9669 234.53C50.1315 234.03 50.164 233.496 50.0612 232.979C50.0281 232.766 49.9371 232.566 49.7984 232.401C49.4041 231.974 48.686 232.157 48.2116 232.491C46.7018 233.557 46.2883 235.609 46.2723 237.459C46.1184 236.791 46.2466 236.097 46.2434 235.413C46.2402 234.729 46.0511 233.971 45.4773 233.602C45.1184 233.408 44.7145 233.314 44.3072 233.329C43.6277 233.303 42.8712 233.371 42.4096 233.869C41.8326 234.485 41.9832 235.522 42.4833 236.203C42.9834 236.884 43.7463 237.308 44.4483 237.78C45.0104 238.115 45.4902 238.573 45.8523 239.119C45.8947 239.195 45.9291 239.276 45.9549 239.36H50.2087C51.1641 238.876 52.0494 238.265 52.8404 237.542Z" fill="#13F1FC"/>
<path d="M180.54 72.7626V108.256C180.541 108.724 180.45 109.187 180.271 109.62C180.093 110.052 179.831 110.445 179.501 110.776C179.171 111.107 178.778 111.369 178.347 111.548C177.915 111.727 177.452 111.818 176.985 111.817H173.168V69.2046H176.985C177.452 69.2038 177.915 69.2952 178.346 69.4736C178.777 69.6521 179.17 69.9141 179.5 70.2446C179.83 70.5751 180.092 70.9677 180.27 71.3998C180.449 71.8319 180.541 72.295 180.54 72.7626Z" fill="#C7CCE1"/>
<path opacity="0.2" d="M177.681 69.272V111.75C177.452 111.795 177.219 111.818 176.985 111.817H176.402V69.2046H176.985C177.219 69.2043 177.452 69.2269 177.681 69.272Z" fill="black"/>
<path d="M163.686 124.479H149.921V235.041H163.686V124.479Z" fill="#DCDFED"/>
<path d="M166.958 246.845H145.068V249.925H166.958V246.845Z" fill="#C7CCE1"/>
<path opacity="0.1" d="M166.958 246.845H145.068V248.573H166.958V246.845Z" fill="black"/>
<path opacity="0.1" d="M163.686 232.854H149.921V235.037H163.686V232.854Z" fill="black"/>
<path d="M140.253 233.307H171.77C173.483 233.307 175.18 233.645 176.763 234.301C178.346 234.958 179.784 235.921 180.995 237.135C182.207 238.348 183.168 239.789 183.823 241.375C184.479 242.96 184.817 244.66 184.817 246.376V248.386H127.206V246.376C127.206 244.66 127.544 242.96 128.199 241.375C128.855 239.789 129.816 238.348 131.028 237.135C132.239 235.921 133.677 234.958 135.26 234.301C136.843 233.645 138.54 233.307 140.253 233.307Z" fill="#DCDFED"/>
<path opacity="0.1" d="M163.686 139.7H149.921V152.962H163.686V139.7Z" fill="black"/>
<path opacity="0.1" d="M163.686 138.798H149.921V152.06H163.686V138.798Z" fill="black"/>
<path d="M165.118 139.247H148.645V152.51H165.118V139.247Z" fill="#DCDFED"/>
<path d="M171.1 116.149V121.653C171.1 123.023 170.557 124.336 169.59 125.304C168.624 126.273 167.313 126.817 165.945 126.817H147.674C146.307 126.817 144.996 126.273 144.029 125.304C143.062 124.336 142.519 123.023 142.519 121.653V116.149C142.52 115.471 142.653 114.801 142.913 114.175C143.172 113.549 143.552 112.98 144.03 112.501C144.509 112.022 145.077 111.642 145.702 111.384C146.327 111.125 146.997 110.992 147.674 110.992H165.945C166.622 110.992 167.292 111.125 167.917 111.384C168.542 111.642 169.11 112.022 169.589 112.501C170.068 112.98 170.447 113.549 170.707 114.175C170.966 114.801 171.1 115.471 171.1 116.149Z" fill="#C7CCE1"/>
<path opacity="0.1" d="M171.1 116.149V116.711C169.422 118.914 167.259 120.7 164.78 121.929C162.3 123.159 159.571 123.798 156.805 123.798C154.038 123.798 151.309 123.159 148.83 121.929C146.35 120.7 144.188 118.914 142.51 116.711V116.149C142.51 115.471 142.644 114.801 142.903 114.175C143.162 113.549 143.542 112.98 144.021 112.501C144.499 112.022 145.067 111.642 145.693 111.384C146.318 111.125 146.988 110.992 147.664 110.992H165.936C166.613 110.99 167.284 111.122 167.91 111.381C168.537 111.639 169.106 112.019 169.586 112.498C170.065 112.977 170.446 113.546 170.706 114.172C170.966 114.799 171.1 115.471 171.1 116.149Z" fill="black"/>
<path d="M140.279 64.8662H173.331C173.716 64.8662 174.086 65.0195 174.358 65.2923C174.63 65.5651 174.783 65.9351 174.783 66.3209V107.745C174.783 111.885 173.141 115.856 170.219 118.783C167.297 121.71 163.334 123.355 159.201 123.355H154.409C150.276 123.355 146.313 121.71 143.39 118.783C140.468 115.856 138.826 111.885 138.826 107.745V66.3209C138.826 65.9351 138.979 65.5651 139.252 65.2923C139.524 65.0195 139.893 64.8662 140.279 64.8662Z" fill="#C7CCE1"/>
<path d="M146.388 43.47H167.224C168.692 43.47 170.099 44.054 171.137 45.0934C172.174 46.1328 172.757 47.5426 172.757 49.0125V64.8919C172.757 65.4216 172.547 65.9297 172.173 66.3043C171.799 66.6788 171.292 66.8893 170.763 66.8893H142.849C142.588 66.8893 142.328 66.8376 142.086 66.7372C141.844 66.6369 141.625 66.4897 141.44 66.3043C141.254 66.1188 141.108 65.8986 141.007 65.6563C140.907 65.4139 140.856 65.1542 140.856 64.8919V49.0093C140.856 47.5394 141.438 46.1296 142.476 45.0902C143.514 44.0507 144.921 43.4668 146.388 43.4668V43.47Z" fill="#C7CCE1"/>
<path opacity="0.2" d="M169.593 59.8986H144.619V61.5555H169.593V59.8986Z" fill="black"/>
<path opacity="0.1" d="M171.097 70.184H142.513V90.9637H171.097V70.184Z" fill="black"/>
<path d="M171.097 69.7312H142.513V90.5109H171.097V69.7312Z" fill="#6C63FF"/>
<g opacity="0.1">
<path opacity="0.1" d="M148.85 94.0721H142.926C142.786 94.0721 142.673 94.1857 142.673 94.3258V96.1177C142.673 96.2578 142.786 96.3714 142.926 96.3714H148.85C148.99 96.3714 149.103 96.2578 149.103 96.1177V94.3258C149.103 94.1857 148.99 94.0721 148.85 94.0721Z" fill="black"/>
<path opacity="0.1" d="M156.127 94.0721H150.203C150.063 94.0721 149.95 94.1857 149.95 94.3258V96.1177C149.95 96.2578 150.063 96.3714 150.203 96.3714H156.127C156.267 96.3714 156.38 96.2578 156.38 96.1177V94.3258C156.38 94.1857 156.267 94.0721 156.127 94.0721Z" fill="black"/>
<path opacity="0.1" d="M163.403 94.0721H157.48C157.34 94.0721 157.226 94.1857 157.226 94.3258V96.1177C157.226 96.2578 157.34 96.3714 157.48 96.3714H163.403C163.543 96.3714 163.657 96.2578 163.657 96.1177V94.3258C163.657 94.1857 163.543 94.0721 163.403 94.0721Z" fill="black"/>
<path opacity="0.1" d="M170.683 94.0721H164.759C164.62 94.0721 164.506 94.1857 164.506 94.3258V96.1177C164.506 96.2578 164.62 96.3714 164.759 96.3714H170.683C170.823 96.3714 170.937 96.2578 170.937 96.1177V94.3258C170.937 94.1857 170.823 94.0721 170.683 94.0721Z" fill="black"/>
<path opacity="0.1" d="M148.85 98.5742H142.926C142.786 98.5742 142.673 98.6878 142.673 98.8279V100.62C142.673 100.76 142.786 100.873 142.926 100.873H148.85C148.99 100.873 149.103 100.76 149.103 100.62V98.8279C149.103 98.6878 148.99 98.5742 148.85 98.5742Z" fill="black"/>
<path opacity="0.1" d="M156.127 98.5742H150.203C150.063 98.5742 149.95 98.6878 149.95 98.8279V100.62C149.95 100.76 150.063 100.873 150.203 100.873H156.127C156.267 100.873 156.38 100.76 156.38 100.62V98.8279C156.38 98.6878 156.267 98.5742 156.127 98.5742Z" fill="black"/>
<path opacity="0.1" d="M163.403 98.5742H157.48C157.34 98.5742 157.226 98.6878 157.226 98.8279V100.62C157.226 100.76 157.34 100.873 157.48 100.873H163.403C163.543 100.873 163.657 100.76 163.657 100.62V98.8279C163.657 98.6878 163.543 98.5742 163.403 98.5742Z" fill="black"/>
<path opacity="0.1" d="M148.85 102.964H142.926C142.786 102.964 142.673 103.078 142.673 103.218V105.01C142.673 105.15 142.786 105.263 142.926 105.263H148.85C148.99 105.263 149.103 105.15 149.103 105.01V103.218C149.103 103.078 148.99 102.964 148.85 102.964Z" fill="black"/>
<path opacity="0.1" d="M156.127 102.964H150.203C150.063 102.964 149.95 103.078 149.95 103.218V105.01C149.95 105.15 150.063 105.263 150.203 105.263H156.127C156.267 105.263 156.38 105.15 156.38 105.01V103.218C156.38 103.078 156.267 102.964 156.127 102.964Z" fill="black"/>
<path opacity="0.1" d="M163.403 102.964H157.48C157.34 102.964 157.226 103.078 157.226 103.218V105.01C157.226 105.15 157.34 105.263 157.48 105.263H163.403C163.543 105.263 163.657 105.15 163.657 105.01V103.218C163.657 103.078 163.543 102.964 163.403 102.964Z" fill="black"/>
<path opacity="0.1" d="M148.85 107.806H142.926C142.786 107.806 142.673 107.92 142.673 108.06V109.852C142.673 109.992 142.786 110.106 142.926 110.106H148.85C148.99 110.106 149.103 109.992 149.103 109.852V108.06C149.103 107.92 148.99 107.806 148.85 107.806Z" fill="black"/>
<path opacity="0.1" d="M156.127 107.806H150.203C150.063 107.806 149.95 107.92 149.95 108.06V109.852C149.95 109.992 150.063 110.106 150.203 110.106H156.127C156.267 110.106 156.38 109.992 156.38 109.852V108.06C156.38 107.92 156.267 107.806 156.127 107.806Z" fill="black"/>
<path opacity="0.1" d="M163.403 107.806H157.48C157.34 107.806 157.226 107.92 157.226 108.06V109.852C157.226 109.992 157.34 110.106 157.48 110.106H163.403C163.543 110.106 163.657 109.992 163.657 109.852V108.06C163.657 107.92 163.543 107.806 163.403 107.806Z" fill="black"/>
<path opacity="0.1" d="M170.683 98.5742H164.759C164.62 98.5742 164.506 98.6878 164.506 98.8279V100.62C164.506 100.76 164.62 100.873 164.759 100.873H170.683C170.823 100.873 170.937 100.76 170.937 100.62V98.8279C170.937 98.6878 170.823 98.5742 170.683 98.5742Z" fill="black"/>
<path opacity="0.1" d="M169.968 102.717H165.532C165.183 102.717 164.9 103 164.9 103.349V110.279C164.9 110.629 165.183 110.912 165.532 110.912H169.968C170.317 110.912 170.6 110.629 170.6 110.279V103.349C170.6 103 170.317 102.717 169.968 102.717Z" fill="black"/>
</g>
<path d="M148.85 93.6194H142.926C142.786 93.6194 142.673 93.733 142.673 93.8731V95.6649C142.673 95.805 142.786 95.9186 142.926 95.9186H148.85C148.99 95.9186 149.103 95.805 149.103 95.6649V93.8731C149.103 93.733 148.99 93.6194 148.85 93.6194Z" fill="#F2F3F3"/>
<path d="M156.127 93.6194H150.203C150.063 93.6194 149.95 93.733 149.95 93.8731V95.6649C149.95 95.805 150.063 95.9186 150.203 95.9186H156.127C156.267 95.9186 156.38 95.805 156.38 95.6649V93.8731C156.38 93.733 156.267 93.6194 156.127 93.6194Z" fill="#F2F3F3"/>
<path d="M163.403 93.6194H157.48C157.34 93.6194 157.226 93.733 157.226 93.8731V95.6649C157.226 95.805 157.34 95.9186 157.48 95.9186H163.403C163.543 95.9186 163.657 95.805 163.657 95.6649V93.8731C163.657 93.733 163.543 93.6194 163.403 93.6194Z" fill="#F2F3F3"/>
<path d="M170.683 93.6194H164.759C164.62 93.6194 164.506 93.733 164.506 93.8731V95.6649C164.506 95.805 164.62 95.9186 164.759 95.9186H170.683C170.823 95.9186 170.937 95.805 170.937 95.6649V93.8731C170.937 93.733 170.823 93.6194 170.683 93.6194Z" fill="#D44F6A"/>
<path d="M148.85 98.1213H142.926C142.786 98.1213 142.673 98.2349 142.673 98.375V100.167C142.673 100.307 142.786 100.421 142.926 100.421H148.85C148.99 100.421 149.103 100.307 149.103 100.167V98.375C149.103 98.2349 148.99 98.1213 148.85 98.1213Z" fill="#F2F3F3"/>
<path d="M156.127 98.1213H150.203C150.063 98.1213 149.95 98.2349 149.95 98.375V100.167C149.95 100.307 150.063 100.421 150.203 100.421H156.127C156.267 100.421 156.38 100.307 156.38 100.167V98.375C156.38 98.2349 156.267 98.1213 156.127 98.1213Z" fill="#F2F3F3"/>
<path d="M163.403 98.1213H157.48C157.34 98.1213 157.226 98.2349 157.226 98.375V100.167C157.226 100.307 157.34 100.421 157.48 100.421H163.403C163.543 100.421 163.657 100.307 163.657 100.167V98.375C163.657 98.2349 163.543 98.1213 163.403 98.1213Z" fill="#F2F3F3"/>
<path d="M148.85 102.511H142.926C142.786 102.511 142.673 102.625 142.673 102.765V104.557C142.673 104.697 142.786 104.81 142.926 104.81H148.85C148.99 104.81 149.103 104.697 149.103 104.557V102.765C149.103 102.625 148.99 102.511 148.85 102.511Z" fill="#F2F3F3"/>
<path d="M156.127 102.511H150.203C150.063 102.511 149.95 102.625 149.95 102.765V104.557C149.95 104.697 150.063 104.81 150.203 104.81H156.127C156.267 104.81 156.38 104.697 156.38 104.557V102.765C156.38 102.625 156.267 102.511 156.127 102.511Z" fill="#F2F3F3"/>
<path d="M163.403 102.511H157.48C157.34 102.511 157.226 102.625 157.226 102.765V104.557C157.226 104.697 157.34 104.81 157.48 104.81H163.403C163.543 104.81 163.657 104.697 163.657 104.557V102.765C163.657 102.625 163.543 102.511 163.403 102.511Z" fill="#F2F3F3"/>
<path d="M148.85 107.354H142.926C142.786 107.354 142.673 107.467 142.673 107.607V109.399C142.673 109.539 142.786 109.653 142.926 109.653H148.85C148.99 109.653 149.103 109.539 149.103 109.399V107.607C149.103 107.467 148.99 107.354 148.85 107.354Z" fill="#F2F3F3"/>
<path d="M156.127 107.354H150.203C150.063 107.354 149.95 107.467 149.95 107.607V109.399C149.95 109.539 150.063 109.653 150.203 109.653H156.127C156.267 109.653 156.38 109.539 156.38 109.399V107.607C156.38 107.467 156.267 107.354 156.127 107.354Z" fill="#F2F3F3"/>
<path d="M163.403 107.354H157.48C157.34 107.354 157.226 107.467 157.226 107.607V109.399C157.226 109.539 157.34 109.653 157.48 109.653H163.403C163.543 109.653 163.657 109.539 163.657 109.399V107.607C163.657 107.467 163.543 107.354 163.403 107.354Z" fill="#F2F3F3"/>
<path d="M170.683 98.1213H164.759C164.62 98.1213 164.506 98.2349 164.506 98.375V100.167C164.506 100.307 164.62 100.421 164.759 100.421H170.683C170.823 100.421 170.937 100.307 170.937 100.167V98.375C170.937 98.2349 170.823 98.1213 170.683 98.1213Z" fill="#FECB42"/>
<path d="M169.968 102.267H165.532C165.183 102.267 164.9 102.55 164.9 102.9V109.829C164.9 110.179 165.183 110.462 165.532 110.462H169.968C170.317 110.462 170.6 110.179 170.6 109.829V102.9C170.6 102.55 170.317 102.267 169.968 102.267Z" fill="#97D25E"/>
<path d="M159.845 87.9869H156.765V88.3562H159.845V87.9869Z" fill="#C7CCE1"/>
<path d="M164.16 87.9869H161.079V88.3562H164.16V87.9869Z" fill="#C7CCE1"/>
<path d="M168.475 87.9869H165.394V88.3562H168.475V87.9869Z" fill="#C7CCE1"/>
</g>
<defs>
<linearGradient id="paint0_linear" x1="248.415" y1="258.592" x2="248.415" y2="-2.17689e-05" gradientUnits="userSpaceOnUse">
<stop stop-color="#808080" stop-opacity="0.25"/>
<stop offset="0.54" stop-color="#808080" stop-opacity="0.12"/>
<stop offset="1" stop-color="#808080" stop-opacity="0.1"/>
</linearGradient>
<clipPath id="clip0">
<rect width="333" height="261" fill="white"/>
</clipPath>
</defs>
</svg>
