<svg width="300" height="265" viewBox="0 0 300 265" fill="none" xmlns="http://www.w3.org/2000/svg">
<g clip-path="url(#clip0)">
<path d="M77.5783 35.6736C85.6911 35.6736 92.2677 30.5416 92.2677 24.2108C92.2677 17.8801 85.6911 12.748 77.5783 12.748C69.4656 12.748 62.8889 17.8801 62.8889 24.2108C62.8889 30.5416 69.4656 35.6736 77.5783 35.6736Z" fill="#3F3D56"/>
<path d="M106.957 84.1693C118.64 84.1693 128.11 74.6945 128.11 63.0066C128.11 51.3188 118.64 41.844 106.957 41.844C95.2746 41.844 85.8041 51.3188 85.8041 63.0066C85.8041 74.6945 95.2746 84.1693 106.957 84.1693Z" fill="#3F3D56"/>
<path d="M174.085 255.967C177.004 255.967 179.371 253.599 179.371 250.678C179.371 247.757 177.004 245.389 174.085 245.389C171.165 245.389 168.798 247.757 168.798 250.678C168.798 253.599 171.165 255.967 174.085 255.967Z" fill="#3F3D56"/>
<path d="M146.472 255.967C149.391 255.967 151.758 253.599 151.758 250.678C151.758 247.757 149.391 245.389 146.472 245.389C143.552 245.389 141.185 247.757 141.185 250.678C141.185 253.599 143.552 255.967 146.472 255.967Z" fill="#3F3D56"/>
<path d="M154.698 123.117H152.347V188.075H154.698V123.117Z" fill="#3F3D56"/>
<path d="M167.329 123.117H164.978V188.075H167.329V123.117Z" fill="#3F3D56"/>
<path d="M152.921 124.88L152.332 123.117C152.332 123.117 158.796 115.476 167.903 121.635L167.314 124.284H164.963C164.963 124.284 161.146 121.08 154.683 124.739L152.921 124.88Z" fill="#3F3D56"/>
<path d="M113.421 113.858H92.2678V140.898H113.421V113.858Z" fill="#FBBEBE"/>
<path d="M128.11 106.213H121.647V119.147H128.11V106.213Z" fill="#FBBEBE"/>
<path d="M95.059 245.389L92.4158 253.326C92.4158 253.326 91.2386 259.204 95.059 259.496C98.8794 259.789 105.054 258.615 105.054 258.615C105.054 258.615 105.935 255.97 105.054 253.619C104.173 251.267 101.53 244.8 101.53 244.8L95.059 245.389Z" fill="#3C354C"/>
<path d="M115.035 245.682C115.035 245.682 110.922 255.971 114.154 257.733C117.386 259.496 121.795 258.026 125.319 259.496C128.843 260.967 138.539 257.441 138.539 257.441C138.539 257.441 139.716 254.208 133.252 253.326C133.252 253.326 126.218 248.034 126.218 246.86C126.218 245.685 122.106 245.682 122.106 245.682H115.035Z" fill="#3C354C"/>
<path d="M114.154 128.409C114.154 128.409 90.0651 133.406 87.1294 131.935C84.1938 130.465 81.2544 151.935 81.2544 151.935C81.2544 151.935 80.0772 164.868 84.1901 182.209C88.3029 199.549 84.1901 208.075 84.1901 208.075C84.1901 208.075 84.7787 224.534 89.1877 232.178C93.5967 239.823 93.593 246.874 93.593 246.874C93.593 246.874 102.108 247.756 102.407 245.697C102.407 245.697 98.8794 237.467 99.468 229.826C100.057 222.186 97.7059 207.486 97.7059 207.486C97.7059 207.486 101.526 188.968 100.938 181.931C100.349 174.894 102.996 159.887 104.462 162.531C105.928 165.176 109.752 178.109 109.752 180.757C109.752 183.405 111.233 201.034 112.103 202.212C112.973 203.39 112.688 206.916 112.395 208.679C112.103 210.442 112.103 223.667 113.569 230.723C115.035 237.778 113.865 245.711 114.157 246.889C114.45 248.067 122.972 247.182 123.264 245.123C123.264 245.123 124.441 232.486 125.03 230.723C125.619 228.96 125.896 206.59 125.896 206.59C125.896 206.59 126.481 189.249 127.07 187.486C127.658 185.723 128.551 147.805 124.719 143.413C120.888 139.02 122.368 127.835 122.368 127.835L114.154 128.409Z" fill="#3F3D56"/>
<path d="M94.3519 77.2065C93.2636 79.2583 92.1678 81.3286 91.4866 83.5545C90.8055 85.7804 90.5685 88.1915 91.209 90.4285C91.6672 91.8258 92.3043 93.1578 93.1044 94.3914C93.7408 95.5703 94.5479 96.6486 95.4996 97.5914C97.7207 99.621 100.949 100.028 103.947 100.347C104.462 100.433 104.987 100.424 105.499 100.321C105.909 100.202 106.288 99.9945 106.609 99.7136C107.923 98.6025 108.519 96.9062 109.001 95.2692C110.145 91.376 110.965 87.3945 111.451 83.3656C111.564 82.7286 111.564 82.0767 111.451 81.4398C111.192 80.3287 110.304 79.4657 109.66 78.5102C108.888 77.3683 108.447 76.0352 108.386 74.6584C108.36 73.988 108.386 73.2473 107.964 72.7362C107.683 72.458 107.343 72.2477 106.968 72.1214C105.217 71.3806 103.47 70.6399 101.715 69.9288C100.656 69.4918 98.7536 68.3288 97.643 69.1881C96.6916 69.9288 97.1506 71.6473 96.7434 72.6769C96.1178 74.2399 95.1368 75.725 94.3519 77.2065Z" fill="#FBBEBE"/>
<path opacity="0.1" d="M94.3519 77.2065C93.2636 79.2583 92.1678 81.3286 91.4866 83.5545C90.8055 85.7804 90.5685 88.1915 91.209 90.4285C91.6672 91.8258 92.3043 93.1578 93.1044 94.3914C93.7408 95.5703 94.5479 96.6486 95.4996 97.5914C97.7207 99.621 100.949 100.028 103.947 100.347C104.462 100.433 104.987 100.424 105.499 100.321C105.909 100.202 106.288 99.9945 106.609 99.7136C107.923 98.6025 108.519 96.9062 109.001 95.2692C110.145 91.376 110.965 87.3945 111.451 83.3656C111.564 82.7286 111.564 82.0767 111.451 81.4398C111.192 80.3287 110.304 79.4657 109.66 78.5102C108.888 77.3683 108.447 76.0352 108.386 74.6584C108.36 73.988 108.386 73.2473 107.964 72.7362C107.683 72.458 107.343 72.2477 106.968 72.1214C105.217 71.3806 103.47 70.6399 101.715 69.9288C100.656 69.4918 98.7536 68.3288 97.643 69.1881C96.6916 69.9288 97.1506 71.6473 96.7434 72.6769C96.1178 74.2399 95.1368 75.725 94.3519 77.2065Z" fill="black"/>
<path d="M105.928 77.8546C111.608 77.8546 116.212 73.2482 116.212 67.5658C116.212 61.8835 111.608 57.2771 105.928 57.2771C100.248 57.2771 95.6439 61.8835 95.6439 67.5658C95.6439 73.2482 100.248 77.8546 105.928 77.8546Z" fill="#FBBEBE"/>
<path d="M109.537 93.5136C107.59 94.2136 105.58 94.8173 103.511 94.8913C101.96 94.9069 100.414 94.7415 98.9017 94.3987C95.7777 93.7771 92.7097 92.9014 89.7282 91.7803C89.0914 93.0358 88.9212 94.4691 88.8656 95.8765C88.7064 100.132 89.5542 104.354 89.88 108.602C90.2909 114.002 89.88 119.521 91.2682 124.75C91.3484 123.861 91.6941 123.017 92.2603 122.328C92.7323 121.819 93.2963 121.405 93.9225 121.106C96.7242 119.657 99.9506 119.255 103.022 119.972C104.803 120.395 106.694 121.184 108.382 120.476C109.389 120.05 110.119 119.154 110.678 118.213C111.627 116.516 112.304 114.68 112.684 112.773C113.795 107.869 113.943 102.799 114.076 97.7691C114.113 96.4246 114.691 92.4284 113.576 91.4432C112.795 90.7581 112.566 91.7358 112.003 92.2469C111.271 92.8251 110.434 93.2553 109.537 93.5136Z" fill="#F2F2F2"/>
<path d="M95.0627 75.8509C94.3779 75.3139 93.3635 75.4805 92.6083 75.9361C91.8531 76.3916 91.2423 77.0213 90.476 77.4361C88.3511 78.5879 85.4968 77.7435 83.4793 79.0842C81.5839 80.3471 81.2581 82.9471 81.11 85.2211C80.7398 90.9988 80.4215 96.8172 79.0332 102.439C78.663 103.921 78.2188 105.439 78.3595 106.965C78.4703 107.837 78.6763 108.694 78.974 109.521L80.7954 115.213C81.6394 117.858 82.4946 120.543 82.5834 123.317C82.6723 126.091 82.0207 128.728 81.3729 131.376C80.0925 136.593 79.259 141.91 78.8814 147.268C78.7667 149.042 78.7186 150.894 79.4367 152.52C80.1771 154.22 81.6801 155.483 83.2646 156.442C84.849 157.402 86.5704 158.142 88.1216 159.161C91.2349 161.209 93.7337 164.435 97.3765 165.276C99.046 165.646 100.793 165.498 102.474 165.172C102.474 165.172 101.523 121.943 98.8757 115.769C96.2288 109.595 93.8818 82.8508 93.8818 81.9693C93.8818 81.0879 95.0627 75.8509 95.0627 75.8509Z" fill="#7E7CFF"/>
<path d="M109.36 77.2656C109.36 77.2656 123.261 77.2656 125.319 84.6137C127.377 91.9617 119.444 104.013 119.444 104.013C119.444 104.013 122.676 127.82 124.142 130.172C125.608 132.524 125.026 137.209 125.026 137.209C126.091 140.434 126.292 143.882 125.611 147.209C124.438 152.498 120.029 161.905 120.029 161.905C120.029 161.905 114.154 161.905 112.684 165.431C111.214 168.957 110.922 150.146 110.922 150.146C110.922 150.146 105.636 115.758 105.928 113.702C106.22 111.647 107.69 94.595 108.279 89.8914C108.867 85.1877 110.148 79.0286 109.36 77.2656Z" fill="#7E7CFF"/>
<path d="M120.029 81.9694C120.029 81.9694 126.789 84.0249 126.789 86.3767C126.789 88.7285 128.858 101.365 128.858 105.48C128.858 109.595 127.977 110.184 128.858 111.654C129.739 113.124 119.459 112.536 119.459 112.536L117.589 95.784L120.029 81.9694Z" fill="#6461FF"/>
<path d="M80.0734 103.132C80.0734 103.132 93.2969 104.013 95.6476 102.247C97.9984 100.48 107.986 104.599 108.867 106.95C109.748 109.302 94.7629 109.595 92.4158 109.595C90.0688 109.595 78.8999 113.124 78.8999 113.124L80.0734 103.132Z" fill="#A0616A"/>
<path d="M52.8529 240.045C52.8529 240.045 46.6892 255.6 49.8913 257.452C53.0935 259.304 86.8591 257.985 86.8591 257.985C86.8591 257.985 92.4824 254.504 86.0558 252.089C86.0558 252.089 80.6954 251.822 77.2155 249.678C73.7357 247.534 69.7116 243.515 69.7116 243.515C69.7116 243.515 69.4451 237.619 67.3017 238.96C66.6605 239.382 66.1149 239.934 65.6998 240.58C65.2848 241.227 65.0095 241.952 64.8917 242.711L52.8529 240.045Z" fill="#3F3D56"/>
<path opacity="0.1" d="M52.8529 240.045C52.8529 240.045 46.6892 255.6 49.8913 257.452C53.0935 259.304 86.8591 257.985 86.8591 257.985C86.8591 257.985 92.4824 254.504 86.0558 252.089C86.0558 252.089 80.6954 251.822 77.2155 249.678C73.7357 247.534 69.7116 243.515 69.7116 243.515C69.7116 243.515 69.4451 237.619 67.3017 238.96C66.6605 239.382 66.1149 239.934 65.6998 240.58C65.2848 241.227 65.0095 241.952 64.8917 242.711L52.8529 240.045Z" fill="black"/>
<path d="M43.3426 244.8C43.3426 244.8 36.5865 261.837 40.1108 263.904C43.635 265.97 80.6547 264.493 80.6547 264.493C80.6547 264.493 86.8258 260.674 79.7736 258.026C79.7736 258.026 73.8986 257.733 70.0782 255.382C66.2577 253.03 61.8524 248.611 61.8524 248.611C61.8524 248.611 61.5599 242.145 59.2092 243.615C58.5057 244.078 57.9071 244.684 57.4518 245.392C56.9966 246.101 56.6948 246.897 56.566 247.73L43.3426 244.8Z" fill="#3F3D56"/>
<path d="M78.0189 136.639L73.906 173.675C73.906 173.675 72.4252 191.312 68.031 195.131C68.031 195.131 68.031 200.716 66.5502 202.479L64.4919 225.701C64.4919 225.701 67.4313 234.219 67.1388 235.7C66.8464 237.182 68.3123 241.871 68.0199 242.46C67.7274 243.049 53.9154 242.46 53.9154 242.46L56.8548 195.138L65.9616 129.302L78.0189 136.639Z" fill="#3C354C"/>
<path opacity="0.1" d="M78.0189 136.639L73.906 173.675C73.906 173.675 72.4252 191.312 68.031 195.131C68.031 195.131 68.031 200.716 66.5502 202.479L64.4919 225.701C64.4919 225.701 67.4313 234.219 67.1388 235.7C66.8464 237.182 68.3123 241.871 68.0199 242.46C67.7274 243.049 53.9154 242.46 53.9154 242.46L56.8548 195.138L65.9616 129.302L78.0189 136.639Z" fill="black"/>
<path d="M70.6742 135.461C70.6742 135.461 67.4424 165.735 65.9727 172.201C65.0487 176.46 64.4595 180.784 64.2106 185.134C64.2106 185.134 63.9181 194.542 61.2712 197.186C60.4988 197.952 59.892 198.868 59.4882 199.877C59.0845 200.887 58.8925 201.969 58.9242 203.056C58.9242 203.056 56.2773 232.741 57.7469 236.271C59.2166 239.8 60.6863 242.737 59.2277 245.085C57.7692 247.434 41.599 247.437 41.599 245.674C41.599 243.911 41.599 242.441 40.7179 241.56C39.8368 240.678 40.7179 235.093 40.7179 235.093C40.7179 235.093 37.1936 208.934 40.4255 201.293C43.6573 193.653 45.127 172.775 45.127 172.775C45.127 172.775 42.7762 148.968 39.8368 145.146C36.8975 141.324 40.4255 127.806 40.4255 127.806L70.6742 135.461Z" fill="#3C354C"/>
<path d="M62.404 41.4477C62.7446 42.2255 63.5627 42.6588 64.3068 43.0699C68.6196 45.4476 72.229 48.8957 75.7829 52.3031C74.8958 49.2925 75.0857 46.0667 76.3197 43.181C76.7417 42.1995 77.3007 41.1403 76.9971 40.1144C76.7713 39.3737 76.1309 38.8107 75.5163 38.3292C74.0652 37.2065 72.5484 36.1713 70.974 35.2293C69.8635 34.57 67.6127 32.8182 66.3503 33.0071C66.2837 34.7145 66.2503 36.2404 65.5025 37.8218C65.3174 38.2144 62.5336 41.744 62.404 41.4477Z" fill="#A0616A"/>
<path d="M77.4303 45.2254C84.0832 45.2254 89.4765 39.8297 89.4765 33.1737C89.4765 26.5178 84.0832 21.1221 77.4303 21.1221C70.7774 21.1221 65.3841 26.5178 65.3841 33.1737C65.3841 39.8297 70.7774 45.2254 77.4303 45.2254Z" fill="#A0616A"/>
<path d="M78.0189 61.6882C78.0189 61.6882 80.0734 51.3994 74.1984 47.8735C68.3234 44.3477 61.5673 40.2329 61.5673 40.2329C61.5673 40.2329 59.509 39.9366 58.628 44.3477C58.628 44.3477 41.884 47.581 40.1182 63.4511C38.3523 79.3212 41.2954 102.543 41.2954 102.543C41.2954 102.543 38.6522 122.824 35.4204 133.698C35.4204 133.698 32.7735 136.05 44.5272 132.524C56.2809 128.998 76.8416 142.524 76.8416 142.524C76.8416 142.524 78.8999 140.465 78.8999 138.994C78.8999 137.524 81.2507 128.995 81.2507 128.995C81.2507 128.995 83.3053 92.8433 84.1863 88.7285C85.0674 84.6138 80.6621 62.277 78.0189 61.6882Z" fill="#6461FF"/>
<path d="M59.8052 81.9692C59.8052 81.9692 75.9606 72.562 72.7288 60.5103C69.497 48.4586 62.4484 44.6402 62.4484 44.6402C62.4484 44.6402 50.9909 40.818 41.2954 53.1585L41.884 58.7437C41.884 58.7437 52.4605 37.2884 63.9181 50.8067C75.3757 64.3251 59.8052 81.9692 59.8052 81.9692Z" fill="#13F1FC"/>
<path d="M42.4689 53.7512V101.947L39.4666 118.387L38.0636 126.05H27.7943L13.4011 120.758V85.2026C13.4011 85.2026 25.4436 61.3919 29.264 56.9845C33.0844 52.5772 42.4689 53.7512 42.4689 53.7512Z" fill="#13F1FC"/>
<path opacity="0.1" d="M39.463 118.391L38.0636 126.054H27.7796L13.3863 120.765L39.463 118.391Z" fill="black"/>
<path d="M38.9446 108.124L64.2105 77.262L41.8803 109.302L39.5296 109.887L38.9446 108.124Z" fill="#13F1FC"/>
<path d="M74.5908 34.4182C75.2757 33.9552 76.1346 33.8701 76.9564 33.7886C77.7782 33.7071 78.6371 33.596 79.2923 33.0923C80.4288 32.2182 80.514 30.5294 81.3469 29.3627C82.5501 27.6701 84.9527 27.4664 87.0295 27.5479C88.2992 27.5998 89.6653 27.6775 90.7314 26.9924C91.7976 26.3072 92.3233 24.9554 92.6935 23.7072C93.134 22.2258 93.4153 20.4184 92.3233 19.3221C91.5829 18.5592 90.3834 18.4073 89.5468 17.7369C88.7101 17.0666 88.3214 15.9148 87.8513 14.9111C87.3145 13.685 86.4657 12.6212 85.3895 11.8259C83.8124 10.7148 81.7986 10.4852 79.8773 10.5037C77.9559 10.5222 76.0272 10.7778 74.1207 10.5408C72.5585 10.3482 71 9.82966 69.4451 10.0593C67.4609 10.3519 65.8209 11.8519 64.8399 13.6037C63.8589 15.3555 63.4442 17.3555 63.037 19.3184L61.9264 24.6628C61.5859 26.322 61.2416 28.022 61.5044 29.6923C62.0523 33.159 65.1175 35.9145 65.3285 39.4144C65.5301 38.4475 65.9684 37.5457 66.6042 36.7901C67.24 36.0344 68.0533 35.4485 68.9713 35.0848C69.2009 34.9726 69.4614 34.94 69.7117 34.9923C70.0152 35.0923 70.1929 35.396 70.3854 35.6515C70.8889 36.3219 72.4696 37.3367 73.347 36.8626C74.1836 36.4367 73.5839 35.1034 74.5908 34.4182Z" fill="#3F3D56"/>
<path d="M151.466 183.96C151.466 183.96 143.533 184.253 142.359 193.364C141.185 202.475 142.359 244.8 142.359 244.8C142.359 244.8 151.466 251.56 162.631 250.678C173.796 249.797 191.714 246.563 191.714 246.563V196.934C191.714 189.527 185.539 183.486 178.142 183.912C177.968 183.912 177.772 183.935 177.613 183.953L151.466 183.96Z" fill="#3C354C"/>
<path d="M162.923 257.437C165.843 257.437 168.21 255.069 168.21 252.148C168.21 249.227 165.843 246.859 162.923 246.859C160.004 246.859 157.637 249.227 157.637 252.148C157.637 255.069 160.004 257.437 162.923 257.437Z" fill="#3F3D56"/>
<path d="M191.714 255.085C194.633 255.085 197 252.717 197 249.797C197 246.876 194.633 244.508 191.714 244.508C188.794 244.508 186.427 246.876 186.427 249.797C186.427 252.717 188.794 255.085 191.714 255.085Z" fill="#3F3D56"/>
<path d="M44.2348 89.3174C44.2348 89.3174 42.1765 102.247 50.6947 101.073C50.6947 101.073 55.1037 100.484 55.6923 101.073C56.2809 101.662 78.0189 97.8395 80.9582 94.6062C80.9582 94.6062 84.4825 93.4321 86.2446 95.1951C88.0068 96.958 105.636 98.7209 100.353 93.4284C95.0701 88.1359 86.8407 86.9619 86.8407 86.9619L75.6755 87.547C75.6755 87.547 69.8005 89.3137 66.2763 87.547C62.752 85.7804 52.753 86.3915 52.753 86.3915L44.2348 89.3174Z" fill="#A0616A"/>
<path d="M56.2773 48.4624C56.2773 48.4624 43.0576 49.9439 43.0576 69.0362V93.4284C43.0576 93.4284 50.4023 90.1951 51.8719 90.4877C53.3416 90.7803 59.2166 86.6655 59.2166 86.6655C59.2166 86.6655 65.9727 70.7991 65.3841 66.3918C64.7955 61.9844 65.0916 49.0476 56.2773 48.4624Z" fill="#3F3D56"/>
<path d="M116.797 95.7803L103.577 105.188L111.803 106.069L123.261 96.3692L116.797 95.7803Z" fill="#3F3D56"/>
<path d="M127.081 109.891C127.081 109.891 130.313 119.891 125.907 122.824C121.502 125.758 114.154 112.536 114.154 112.536C114.154 112.536 106.22 103.132 111.511 101.073C116.801 99.0135 118.959 107.98 118.959 107.98L125.896 114.006L127.081 109.891Z" fill="#FBBEBE"/>
<path d="M106.957 67.4177C113.446 67.4177 118.707 64.0615 118.707 59.9215C118.707 55.7814 113.446 52.4253 106.957 52.4253C100.468 52.4253 95.2071 55.7814 95.2071 59.9215C95.2071 64.0615 100.468 67.4177 106.957 67.4177Z" fill="#3F3D56"/>
<path d="M109.012 50.3698C113.716 50.3698 117.53 46.5543 117.53 41.8477C117.53 37.141 113.716 33.3256 109.012 33.3256C104.307 33.3256 100.493 37.141 100.493 41.8477C100.493 46.5543 104.307 50.3698 109.012 50.3698Z" fill="#3F3D56"/>
<path d="M77.4303 31.559C83.6763 31.559 88.7398 28.9274 88.7398 25.6813C88.7398 22.4351 83.6763 19.8036 77.4303 19.8036C71.1842 19.8036 66.1208 22.4351 66.1208 25.6813C66.1208 28.9274 71.1842 31.559 77.4303 31.559Z" fill="#3F3D56"/>
<path d="M66.8537 36.5551C69.0434 36.5551 70.8186 32.146 70.8186 26.7071C70.8186 21.2682 69.0434 16.8591 66.8537 16.8591C64.664 16.8591 62.8889 21.2682 62.8889 26.7071C62.8889 32.146 64.664 36.5551 66.8537 36.5551Z" fill="#3F3D56"/>
</g>
<g filter="url(#filter0_d)">
<path d="M137 38C137 36.8954 137.895 36 139 36H236C237.105 36 238 36.8954 238 38V71C238 72.1046 237.105 73 236 73H139C137.895 73 137 72.1046 137 71V38Z" fill="white"/>
</g>
<ellipse cx="154.638" cy="61.1188" rx="5.6383" ry="1.54777" fill="#F2F2F2"/>
<path fill-rule="evenodd" clip-rule="evenodd" d="M154.421 58.2445C154.421 58.2445 158.542 54.7067 158.542 51.8323C158.542 49.5121 156.697 47.6312 154.421 47.6312C152.146 47.6312 150.301 49.5121 150.301 51.8323C150.301 54.9278 154.421 58.2445 154.421 58.2445ZM154.421 53.3801C155.499 53.3801 156.373 52.4891 156.373 51.3901C156.373 50.2911 155.499 49.4001 154.421 49.4001C153.344 49.4001 152.47 50.2911 152.47 51.3901C152.47 52.4891 153.344 53.3801 154.421 53.3801Z" fill="#13F1FC"/>
<path d="M145 73L131 88L162 73H145Z" fill="white"/>
<path d="M172.109 58.182C171.208 58.182 170.406 57.987 169.704 57.597C169.002 57.207 168.452 56.6567 168.053 55.946C167.663 55.2267 167.468 54.3947 167.468 53.45C167.468 52.5053 167.667 51.6777 168.066 50.967C168.473 50.2477 169.032 49.693 169.743 49.303C170.454 48.913 171.26 48.718 172.161 48.718C172.612 48.718 173.041 48.7657 173.448 48.861C173.855 48.9563 174.219 49.0863 174.54 49.251L174.384 50.681C173.63 50.3257 172.885 50.148 172.148 50.148C171.507 50.148 170.956 50.291 170.497 50.577C170.046 50.8543 169.704 51.2443 169.47 51.747C169.236 52.241 169.119 52.8087 169.119 53.45C169.119 54.0913 169.232 54.6633 169.457 55.166C169.691 55.66 170.033 56.05 170.484 56.336C170.935 56.6133 171.481 56.752 172.122 56.752C172.529 56.752 172.911 56.7087 173.266 56.622C173.63 56.5353 174.003 56.4053 174.384 56.232L174.54 57.649C173.812 58.0043 173.002 58.182 172.109 58.182ZM177.027 48.9H178.483V50.395H177.027V48.9ZM177.027 51.552H178.483V58H177.027V51.552ZM183.468 58.13C182.905 58.13 182.476 57.9697 182.181 57.649C181.895 57.3283 181.752 56.9427 181.752 56.492V52.722H180.777L180.907 51.552H181.752V50.07L183.208 49.914V51.552H184.729V52.722H183.208V55.816C183.208 56.1973 183.23 56.4617 183.273 56.609C183.316 56.7477 183.407 56.8387 183.546 56.882C183.693 56.9253 183.953 56.947 184.326 56.947H184.716L184.586 58.13H183.468ZM189.017 57.623L186.326 51.552H187.938L189.719 55.933L191.448 51.552H193.073L189.056 61.146H187.561L189.017 57.623ZM199.604 55.738H196.224L195.431 58H193.923L197.173 48.9H198.655L201.892 58H200.397L199.604 55.738ZM199.123 54.399L197.914 50.941L196.692 54.399H199.123ZM207.366 51.435C207.964 51.435 208.479 51.5823 208.913 51.877C209.346 52.1717 209.675 52.5747 209.901 53.086C210.126 53.5887 210.239 54.152 210.239 54.776C210.239 55.4 210.126 55.9677 209.901 56.479C209.684 56.9903 209.359 57.3933 208.926 57.688C208.492 57.9827 207.972 58.13 207.366 58.13C206.95 58.13 206.59 58.078 206.287 57.974C205.992 57.87 205.723 57.7053 205.481 57.48V61.146H204.025V51.552H205.182L205.338 52.241C205.615 51.981 205.914 51.7817 206.235 51.643C206.564 51.5043 206.941 51.435 207.366 51.435ZM207.119 56.908C207.63 56.908 208.029 56.7173 208.315 56.336C208.601 55.9547 208.744 55.4347 208.744 54.776C208.744 54.126 208.601 53.6103 208.315 53.229C208.029 52.8477 207.63 52.657 207.119 52.657C206.573 52.657 206.148 52.8433 205.845 53.216C205.55 53.5887 205.403 54.1087 205.403 54.776C205.403 55.452 205.55 55.9763 205.845 56.349C206.148 56.7217 206.573 56.908 207.119 56.908ZM216.042 51.435C216.64 51.435 217.155 51.5823 217.589 51.877C218.022 52.1717 218.351 52.5747 218.577 53.086C218.802 53.5887 218.915 54.152 218.915 54.776C218.915 55.4 218.802 55.9677 218.577 56.479C218.36 56.9903 218.035 57.3933 217.602 57.688C217.168 57.9827 216.648 58.13 216.042 58.13C215.626 58.13 215.266 58.078 214.963 57.974C214.668 57.87 214.399 57.7053 214.157 57.48V61.146H212.701V51.552H213.858L214.014 52.241C214.291 51.981 214.59 51.7817 214.911 51.643C215.24 51.5043 215.617 51.435 216.042 51.435ZM215.795 56.908C216.306 56.908 216.705 56.7173 216.991 56.336C217.277 55.9547 217.42 55.4347 217.42 54.776C217.42 54.126 217.277 53.6103 216.991 53.229C216.705 52.8477 216.306 52.657 215.795 52.657C215.249 52.657 214.824 52.8433 214.521 53.216C214.226 53.5887 214.079 54.1087 214.079 54.776C214.079 55.452 214.226 55.9763 214.521 56.349C214.824 56.7217 215.249 56.908 215.795 56.908Z" fill="#A5ADB1"/>
<defs>
<filter id="filter0_d" x="95" y="0" width="205" height="141" filterUnits="userSpaceOnUse" color-interpolation-filters="sRGB">
<feFlood flood-opacity="0" result="BackgroundImageFix"/>
<feColorMatrix in="SourceAlpha" type="matrix" values="0 0 0 0 0 0 0 0 0 0 0 0 0 0 0 0 0 0 127 0"/>
<feOffset dx="10" dy="16"/>
<feGaussianBlur stdDeviation="26"/>
<feColorMatrix type="matrix" values="0 0 0 0 0.739879 0 0 0 0 0.826463 0 0 0 0 0.873362 0 0 0 0.4 0"/>
<feBlend mode="normal" in2="BackgroundImageFix" result="effect1_dropShadow"/>
<feBlend mode="normal" in="SourceGraphic" in2="effect1_dropShadow" result="shape"/>
</filter>
<clipPath id="clip0">
<rect width="197" height="255" fill="white" transform="translate(0 10)"/>
</clipPath>
</defs>
</svg>
