<svg width="252" height="219" viewBox="0 0 252 219" fill="none" xmlns="http://www.w3.org/2000/svg">
<ellipse cx="23" cy="127.706" rx="12" ry="3.29412" fill="#F2F2F2"/>
<path fill-rule="evenodd" clip-rule="evenodd" d="M22.5385 121.588C22.5385 121.588 31.3077 114.059 31.3077 107.941C31.3077 103.003 27.3816 99 22.5385 99C17.6954 99 13.7693 103.003 13.7693 107.941C13.7693 114.529 22.5385 121.588 22.5385 121.588ZM22.5385 111.235C24.8326 111.235 26.6923 109.339 26.6923 107C26.6923 104.661 24.8326 102.765 22.5385 102.765C20.2443 102.765 18.3846 104.661 18.3846 107C18.3846 109.339 20.2443 111.235 22.5385 111.235Z" fill="#13F1FC"/>
<path d="M47.23 113.852C47.902 112.832 48.37 112.04 48.634 111.476C48.91 110.912 49.048 110.384 49.048 109.892C49.048 109.34 48.892 108.902 48.58 108.578C48.268 108.254 47.836 108.092 47.284 108.092C46.24 108.092 45.22 108.59 44.224 109.586L43.972 107.462C45.064 106.586 46.288 106.148 47.644 106.148C48.376 106.148 49 106.304 49.516 106.616C50.044 106.916 50.44 107.324 50.704 107.84C50.968 108.356 51.1 108.932 51.1 109.568C51.1 110.3 50.944 111.032 50.632 111.764C50.332 112.484 49.804 113.42 49.048 114.572L47.41 117.056H51.55V119H43.882L47.23 113.852ZM53.3382 116.75H55.5342V119H53.3382V116.75ZM62.5196 119.252C61.4516 119.252 60.5156 118.976 59.7116 118.424C58.9196 117.86 58.3016 117.074 57.8576 116.066C57.4256 115.058 57.2096 113.9 57.2096 112.592C57.2096 111.332 57.4316 110.216 57.8756 109.244C58.3196 108.26 58.9436 107.498 59.7476 106.958C60.5516 106.418 61.4756 106.148 62.5196 106.148C63.5756 106.148 64.5056 106.418 65.3096 106.958C66.1136 107.498 66.7316 108.254 67.1636 109.226C67.6076 110.198 67.8296 111.32 67.8296 112.592C67.8296 113.9 67.6076 115.058 67.1636 116.066C66.7316 117.074 66.1136 117.86 65.3096 118.424C64.5176 118.976 63.5876 119.252 62.5196 119.252ZM62.5196 117.38C63.5036 117.38 64.2776 116.978 64.8416 116.174C65.4056 115.37 65.6876 114.176 65.6876 112.592C65.6876 111.092 65.3996 109.952 64.8236 109.172C64.2476 108.392 63.4796 108.002 62.5196 108.002C61.5596 108.002 60.7856 108.392 60.1976 109.172C59.6216 109.952 59.3336 111.092 59.3336 112.592C59.3336 114.164 59.6156 115.358 60.1796 116.174C60.7556 116.978 61.5356 117.38 62.5196 117.38ZM69.8838 105.5H71.8998V113.852L74.8518 110.072H77.1738L73.8078 114.302L77.2458 119H74.9238L71.8998 114.824V119H69.8838V105.5ZM88.5621 109.91C89.7381 109.91 90.6141 110.258 91.1901 110.954C91.7661 111.638 92.0541 112.628 92.0541 113.924V119H90.0381V114.032C90.0381 113.192 89.8941 112.58 89.6061 112.196C89.3301 111.8 88.8681 111.602 88.2201 111.602C87.5121 111.602 87.0021 111.818 86.6901 112.25C86.3781 112.682 86.2221 113.252 86.2221 113.96V119H84.2241V114.158C84.2241 113.246 84.0681 112.592 83.7561 112.196C83.4561 111.8 82.9941 111.602 82.3701 111.602C81.5181 111.602 80.8641 111.902 80.4081 112.502V119H78.3921V110.072H80.0661L80.1921 110.864C80.9841 110.228 81.8781 109.91 82.8741 109.91C84.0981 109.91 84.9921 110.384 85.5561 111.332C85.8681 110.876 86.2761 110.528 86.7801 110.288C87.2961 110.036 87.8901 109.91 88.5621 109.91Z" fill="#C4C4C4"/>
<path opacity="0.1" d="M75.68 210.01C62.9233 210.01 51.7433 206.713 42.14 200.12C32.68 193.383 25.2983 183.995 19.995 171.955C14.835 159.915 12.255 146.083 12.255 130.46C12.255 115.41 14.9067 102.08 20.21 90.47C25.5133 78.7167 32.9667 69.615 42.57 63.165C52.1733 56.715 63.21 53.49 75.68 53.49C88.2933 53.49 99.4017 56.715 109.005 63.165C118.608 69.615 125.99 78.645 131.15 90.255C136.453 101.865 139.105 115.267 139.105 130.46C139.105 146.083 136.453 159.915 131.15 171.955C125.99 183.995 118.608 193.383 109.005 200.12C99.545 206.713 88.4367 210.01 75.68 210.01ZM75.68 187.65C87.4333 187.65 96.6783 182.848 103.415 173.245C110.152 163.642 113.52 149.38 113.52 130.46C113.52 112.543 110.08 98.9267 103.2 89.61C96.32 80.2933 87.1467 75.635 75.68 75.635C64.2133 75.635 54.9683 80.2933 47.945 89.61C41.065 98.9267 37.625 112.543 37.625 130.46C37.625 149.237 40.9933 163.498 47.73 173.245C54.61 182.848 63.9267 187.65 75.68 187.65ZM182.992 91.975C176.255 96.8483 169.519 100.073 162.782 101.65L159.987 79.935C165.147 78.645 170.665 75.7067 176.542 71.12C182.562 66.39 186.79 61.5167 189.227 56.5H207.717V207H182.992V91.975Z" fill="#C7CCE1"/>
</svg>
