<svg width="1168" height="1762" viewBox="0 0 1168 1762" fill="none" xmlns="http://www.w3.org/2000/svg">
<path d="M78.5 5C78.6667 45.6188 93.9999 133.615 154 160.648C229 194.44 282.5 194.952 358.5 193.928C419.3 193.109 737.667 190.159 882.5 190.5C921 190.591 988.047 204.227 1034 245.5C1088 294 1089.16 339.203 1091.5 379.5C1093.5 413.906 1091.5 590.186 1091.5 646C1091.5 773 1011.5 855 863 856L293 862.93C165 862.93 82 914.916 75.5 1046.5V1357C70 1466 155 1541.67 244.5 1541.67C351 1541.67 416 1543.37 450 1541.67C521 1541.67 585 1591 589 1673.5C589 1678.01 589 1700.23 589 1761.5" stroke="url(#paint0_linear)" stroke-width="150"/>
<path d="M78.5 5C78.6667 45.6188 93.9999 133.615 154 160.648C229 194.44 282.5 194.952 358.5 193.928C419.3 193.109 737.667 190.159 882.5 190.5C921 190.591 988.047 204.227 1034 245.5C1088 294 1089.16 339.203 1091.5 379.5C1093.5 413.906 1091.5 590.186 1091.5 646C1091.5 773 1011.5 855 863 856L293 862.93C165 862.93 82 914.916 75.5 1046.5V1357C70 1466 155 1541.67 244.5 1541.67C351 1541.67 416 1543.37 450 1541.67C521 1541.67 585 1591 589 1673.5C589 1678.01 589 1681.23 589 1742.5" stroke="url(#paint1_linear)" stroke-width="2" stroke-dasharray="10 15"/>
<path d="M75.4928 219.734C77.5465 215.96 75.2189 211.337 72.5627 207.968C69.9065 204.598 66.6615 201.119 66.73 196.811C66.8327 190.646 73.3705 187.01 78.594 183.743C82.4709 181.318 86.0466 178.442 89.2462 175.175C90.5889 173.92 91.6971 172.435 92.5186 170.791C93.6002 168.38 93.5728 165.641 93.5044 162.997C93.2762 154.203 92.8403 145.418 92.1968 136.642" stroke="#3F3D56" stroke-width="4" stroke-miterlimit="10"/>
<path d="M102.13 136.155C102.057 134.545 101.58 132.98 100.743 131.603C99.905 130.226 98.7341 129.083 97.3381 128.279L95.1884 132.539L95.2569 127.389C93.3084 126.816 91.2284 126.877 89.317 127.564C87.4056 128.251 85.7616 129.527 84.6222 131.209C83.4827 132.891 82.9067 134.891 82.9772 136.922C83.0477 138.952 83.7611 140.908 85.0145 142.506C86.2679 144.105 87.9965 145.264 89.9509 145.816C91.9053 146.369 93.9845 146.285 95.8886 145.579C97.7927 144.872 99.4233 143.579 100.545 141.885C101.667 140.192 102.222 138.185 102.13 136.155Z" fill="#57B894"/>
<path d="M85.0154 201.221C84.0076 203.176 82.359 204.724 80.3459 205.607C78.3328 206.49 76.0776 206.654 73.9581 206.071C71.8387 205.488 69.9838 204.194 68.7045 202.406C67.4251 200.618 66.799 198.444 66.931 196.249C67.0631 194.054 67.9452 191.971 69.4297 190.349C70.9141 188.727 72.9107 187.665 75.0847 187.341C77.2587 187.017 79.478 187.45 81.3708 188.568C83.2635 189.686 84.7147 191.421 85.481 193.482L79.4771 198.365L86.0834 196.831C86.085 198.359 85.7187 199.865 85.0154 201.221Z" fill="#57B894"/>
<path d="M80.2233 182.558C78.9621 182.619 77.7012 182.431 76.513 182.004C75.3248 181.576 74.2327 180.918 73.2995 180.067C72.3662 179.216 71.6103 178.189 71.075 177.045C70.5397 175.901 70.2357 174.663 70.1803 173.401C70.1045 171.897 70.3885 170.396 71.0087 169.024C71.584 167.739 72.4338 166.596 73.4983 165.676C74.5628 164.755 75.8162 164.079 77.17 163.695L77.1221 167.661L79.2923 163.353C80.5534 163.291 81.8143 163.48 83.0026 163.907C84.1908 164.334 85.2829 164.992 86.2161 165.843C87.1494 166.694 87.9053 167.721 88.4406 168.865C88.9759 170.009 89.2799 171.248 89.3352 172.51C89.3915 173.619 89.2524 174.73 88.9245 175.791C88.3463 177.677 87.2005 179.34 85.6433 180.551C84.0861 181.762 82.1934 182.463 80.2233 182.558Z" fill="#57B894"/>
<path d="M103.575 167.031C102.1 167.085 100.632 166.798 99.2868 166.192C97.9412 165.585 96.7537 164.676 95.8169 163.535C94.8801 162.395 94.2193 161.053 93.886 159.614C93.5528 158.176 93.556 156.68 93.8955 155.243C94.235 153.806 94.9016 152.467 95.8434 151.33C96.7851 150.193 97.9766 149.29 99.3248 148.689C100.673 148.089 102.142 147.808 103.616 147.868C105.091 147.929 106.532 148.329 107.826 149.039L106.128 153.696L109.62 150.34C111.031 151.618 112.03 153.287 112.49 155.135C112.95 156.983 112.849 158.926 112.2 160.717C111.552 162.507 110.385 164.064 108.849 165.188C107.313 166.313 105.477 166.955 103.575 167.031Z" fill="#57B894"/>
<path opacity="0.1" d="M100.836 138.717C98.6252 138.964 96.4619 139.655 94.237 139.792C92.012 139.929 89.568 139.395 88.1646 137.662C87.4047 136.731 87.0214 135.553 86.3847 134.539C85.7775 133.593 84.9477 132.81 83.9681 132.258C83.3833 133.471 83.0603 134.793 83.0203 136.139C82.9802 137.485 83.2239 138.824 83.7355 140.07C84.2471 141.315 85.0152 142.439 85.9897 143.368C86.9641 144.296 88.1232 145.009 89.3914 145.46C90.6596 145.911 92.0084 146.089 93.3502 145.984C94.6919 145.879 95.9964 145.492 97.1788 144.849C98.3611 144.205 99.3948 143.32 100.213 142.251C101.03 141.181 101.614 139.952 101.925 138.642C101.562 138.655 101.199 138.683 100.836 138.717Z" fill="black"/>
<path opacity="0.1" d="M103.575 167.031C101.922 167.103 100.278 166.747 98.802 165.999C97.3263 165.25 96.0683 164.133 95.1497 162.756C94.231 161.38 93.6827 159.789 93.5576 158.138C93.4324 156.488 93.7348 154.832 94.4355 153.333C95.2017 153.846 95.8599 154.504 96.3728 155.271C97.0574 156.305 97.4682 157.497 98.276 158.449C99.7684 160.209 102.329 160.784 104.643 160.675C106.957 160.565 109.202 159.915 111.489 159.702C111.81 159.702 112.139 159.648 112.461 159.641C111.985 161.672 110.86 163.493 109.256 164.826C107.652 166.16 105.658 166.934 103.575 167.031Z" fill="black"/>
<path opacity="0.1" d="M80.2233 182.558C78.9621 182.619 77.7012 182.431 76.513 182.004C75.3248 181.576 74.2327 180.918 73.2995 180.067C72.3662 179.216 71.6103 178.189 71.075 177.045C70.5397 175.901 70.2357 174.663 70.1803 173.401C70.1045 171.897 70.3885 170.396 71.0087 169.024C71.8074 169.543 72.5036 170.205 73.0625 170.976C73.8087 172.031 74.2742 173.243 75.1163 174.216C76.7387 176.024 79.4634 176.661 81.9211 176.599C84.3788 176.537 86.59 175.962 88.9518 175.784C88.3733 177.676 87.2238 179.343 85.6611 180.555C84.0984 181.768 82.199 182.468 80.2233 182.558Z" fill="black"/>
<path opacity="0.1" d="M85.0155 201.221C84.5008 202.372 83.7647 203.409 82.8491 204.275C81.9336 205.141 80.8566 205.818 79.6796 206.267C78.5026 206.716 77.2486 206.929 75.9893 206.894C74.7301 206.858 73.4901 206.575 72.3402 206.06C71.1904 205.545 70.1532 204.809 69.2878 203.893C68.4225 202.977 67.7459 201.899 67.2968 200.722C66.8477 199.544 66.6348 198.29 66.6703 197.03C66.7058 195.77 66.9889 194.53 67.5036 193.379C68.2937 193.899 69.0039 194.531 69.6122 195.256C70.5227 196.372 71.1251 197.633 72.1794 198.68C74.1442 200.612 77.3138 201.42 80.1412 201.482C81.7696 201.488 83.397 201.401 85.0155 201.221Z" fill="black"/>
<path d="M61 215.392C61 215.392 68.5853 215.159 70.8718 213.529C73.1583 211.899 82.5098 209.954 83.1054 212.57C83.701 215.187 94.4971 225.583 85.9397 225.624C77.3823 225.666 66.0454 224.289 63.7657 222.885C61.486 221.481 61 215.392 61 215.392Z" fill="#656380"/>
<path opacity="0.2" d="M86.0903 224.713C77.526 224.782 66.196 223.378 63.9163 221.974C62.1775 220.919 61.4861 217.118 61.2533 215.365H61C61 215.365 61.4792 221.481 63.7384 222.898C65.9975 224.316 77.348 225.693 85.9123 225.638C88.3836 225.638 89.2325 224.741 89.1915 223.433C88.8697 224.207 87.9318 224.7 86.0903 224.713Z" fill="black"/>
<path d="M1113.6 868.602C1115.38 865.322 1113.36 861.303 1111.05 858.375C1108.74 855.446 1105.92 852.422 1105.98 848.677C1106.07 843.32 1111.75 840.159 1116.29 837.319C1119.66 835.212 1122.77 832.712 1125.55 829.872C1126.72 828.781 1127.68 827.491 1128.39 826.062C1129.34 823.967 1129.31 821.585 1129.25 819.287C1129.05 811.644 1128.67 804.008 1128.12 796.38" stroke="#3F3D56" stroke-width="4" stroke-miterlimit="10"/>
<path d="M1136.75 795.958C1136.69 794.558 1136.27 793.197 1135.54 792.001C1134.81 790.804 1133.8 789.811 1132.58 789.112L1130.72 792.814L1130.77 788.338C1129.08 787.84 1127.27 787.893 1125.61 788.49C1123.95 789.087 1122.52 790.196 1121.53 791.658C1120.54 793.12 1120.04 794.859 1120.1 796.624C1120.16 798.388 1120.78 800.088 1121.87 801.478C1122.96 802.867 1124.46 803.875 1126.16 804.355C1127.86 804.835 1129.67 804.762 1131.32 804.148C1132.98 803.534 1134.4 802.41 1135.37 800.938C1136.35 799.466 1136.83 797.722 1136.75 795.958Z" fill="#57B894"/>
<path d="M1121.87 852.511C1121 854.209 1119.56 855.555 1117.81 856.323C1116.07 857.09 1114.1 857.232 1112.26 856.726C1110.42 856.219 1108.81 855.095 1107.7 853.54C1106.58 851.986 1106.04 850.097 1106.16 848.189C1106.27 846.281 1107.04 844.471 1108.33 843.061C1109.62 841.651 1111.35 840.728 1113.24 840.446C1115.13 840.165 1117.06 840.541 1118.71 841.513C1120.35 842.485 1121.61 843.993 1122.28 845.784L1117.06 850.028L1122.8 848.695C1122.8 850.023 1122.48 851.332 1121.87 852.511Z" fill="#57B894"/>
<path d="M1117.71 836.289C1116.61 836.343 1115.52 836.179 1114.48 835.807C1113.45 835.436 1112.5 834.864 1111.69 834.124C1110.88 833.385 1110.22 832.492 1109.76 831.498C1109.29 830.503 1109.03 829.427 1108.98 828.33C1108.91 827.023 1109.16 825.719 1109.7 824.526C1110.2 823.409 1110.94 822.416 1111.86 821.616C1112.79 820.815 1113.88 820.228 1115.05 819.894L1115.01 823.341L1116.9 819.597C1118 819.543 1119.09 819.707 1120.12 820.078C1121.16 820.45 1122.11 821.022 1122.92 821.761C1123.73 822.501 1124.39 823.394 1124.85 824.388C1125.32 825.382 1125.58 826.459 1125.63 827.556C1125.68 828.52 1125.56 829.485 1125.27 830.407C1124.77 832.047 1123.77 833.492 1122.42 834.544C1121.07 835.597 1119.42 836.206 1117.71 836.289Z" fill="#57B894"/>
<path d="M1138 822.794C1136.72 822.841 1135.45 822.591 1134.28 822.064C1133.11 821.537 1132.08 820.747 1131.26 819.755C1130.45 818.764 1129.87 817.597 1129.58 816.347C1129.29 815.097 1129.3 813.797 1129.59 812.548C1129.89 811.299 1130.47 810.135 1131.28 809.147C1132.1 808.159 1133.14 807.373 1134.31 806.851C1135.48 806.329 1136.76 806.085 1138.04 806.138C1139.32 806.191 1140.57 806.539 1141.7 807.155L1140.22 811.203L1143.26 808.286C1144.49 809.397 1145.35 810.848 1145.75 812.454C1146.15 814.06 1146.07 815.749 1145.5 817.305C1144.94 818.862 1143.92 820.215 1142.59 821.192C1141.25 822.17 1139.66 822.727 1138 822.794Z" fill="#57B894"/>
<path opacity="0.1" d="M1135.62 798.184C1133.7 798.398 1131.82 799 1129.89 799.119C1127.95 799.238 1125.83 798.773 1124.61 797.267C1123.95 796.458 1123.62 795.434 1123.06 794.553C1122.54 793.73 1121.81 793.05 1120.96 792.57C1120.45 793.624 1120.17 794.774 1120.14 795.944C1120.1 797.113 1120.32 798.277 1120.76 799.36C1121.21 800.442 1121.87 801.419 1122.72 802.226C1123.57 803.033 1124.57 803.653 1125.68 804.045C1126.78 804.437 1127.95 804.592 1129.12 804.5C1130.28 804.409 1131.42 804.073 1132.45 803.513C1133.47 802.954 1134.37 802.185 1135.08 801.256C1135.79 800.326 1136.3 799.257 1136.57 798.119C1136.26 798.131 1135.94 798.154 1135.62 798.184Z" fill="black"/>
<path opacity="0.1" d="M1138 822.793C1136.57 822.856 1135.14 822.547 1133.86 821.896C1132.57 821.246 1131.48 820.275 1130.68 819.078C1129.88 817.882 1129.41 816.499 1129.3 815.064C1129.19 813.63 1129.45 812.191 1130.06 810.888C1130.73 811.334 1131.3 811.906 1131.74 812.572C1132.34 813.471 1132.7 814.507 1133.4 815.334C1134.7 816.864 1136.92 817.364 1138.93 817.269C1140.94 817.174 1142.9 816.608 1144.88 816.424C1145.16 816.424 1145.45 816.376 1145.73 816.37C1145.31 818.136 1144.34 819.718 1142.94 820.877C1141.55 822.036 1139.82 822.709 1138 822.793Z" fill="black"/>
<path opacity="0.1" d="M1117.71 836.289C1116.61 836.342 1115.52 836.179 1114.48 835.807C1113.45 835.436 1112.5 834.864 1111.69 834.124C1110.88 833.385 1110.22 832.492 1109.76 831.498C1109.29 830.503 1109.03 829.427 1108.98 828.33C1108.91 827.023 1109.16 825.719 1109.7 824.526C1110.39 824.977 1111 825.552 1111.48 826.222C1112.13 827.139 1112.54 828.193 1113.27 829.038C1114.68 830.61 1117.05 831.163 1119.18 831.11C1121.32 831.056 1123.24 830.556 1125.29 830.401C1124.79 832.046 1123.79 833.495 1122.43 834.549C1121.08 835.603 1119.43 836.211 1117.71 836.289Z" fill="black"/>
<path opacity="0.1" d="M1121.87 852.511C1121.43 853.511 1120.79 854.413 1119.99 855.165C1119.19 855.918 1118.26 856.506 1117.24 856.896C1116.21 857.287 1115.12 857.472 1114.03 857.441C1112.93 857.41 1111.86 857.164 1110.86 856.717C1109.86 856.269 1108.96 855.629 1108.2 854.833C1107.45 854.037 1106.86 853.1 1106.47 852.077C1106.08 851.053 1105.9 849.963 1105.93 848.868C1105.96 847.773 1106.21 846.695 1106.65 845.695C1107.34 846.147 1107.96 846.696 1108.49 847.326C1109.28 848.296 1109.8 849.391 1110.72 850.302C1112.42 851.981 1115.18 852.683 1117.64 852.737C1119.05 852.743 1120.47 852.667 1121.87 852.511Z" fill="black"/>
<path d="M1101 864.828C1101 864.828 1107.59 864.625 1109.58 863.208C1111.57 861.791 1119.7 860.101 1120.21 862.375C1120.73 864.649 1130.11 873.686 1122.68 873.721C1115.24 873.757 1105.39 872.56 1103.4 871.34C1101.42 870.12 1101 864.828 1101 864.828Z" fill="#656380"/>
<path opacity="0.2" d="M1122.81 872.93C1115.36 872.989 1105.52 871.769 1103.53 870.548C1102.02 869.632 1101.42 866.328 1101.22 864.804H1101C1101 864.804 1101.42 870.12 1103.38 871.352C1105.34 872.584 1115.21 873.781 1122.65 873.733C1124.8 873.733 1125.54 872.953 1125.5 871.816C1125.22 872.489 1124.41 872.918 1122.81 872.93Z" fill="black"/>
<path d="M66.9171 1569.9C68.4642 1567.3 66.7108 1564.11 64.71 1561.79C62.7091 1559.47 60.2647 1557.07 60.3163 1554.1C60.3936 1549.86 65.3185 1547.35 69.2532 1545.1C72.1735 1543.43 74.8671 1541.45 77.2773 1539.19C78.2887 1538.33 79.1235 1537.31 79.7423 1536.17C80.557 1534.51 80.5364 1532.63 80.4849 1530.8C80.313 1524.74 79.9846 1518.69 79.4999 1512.64" stroke="#3F3D56" stroke-width="4" stroke-miterlimit="10"/>
<path d="M86.9825 1512.31C86.9277 1511.2 86.5682 1510.12 85.9373 1509.17C85.3063 1508.22 84.4243 1507.44 83.3727 1506.88L81.7534 1509.82L81.805 1506.27C80.3372 1505.87 78.7704 1505.92 77.3306 1506.39C75.8908 1506.86 74.6524 1507.74 73.7941 1508.9C72.9358 1510.06 72.5019 1511.44 72.555 1512.84C72.6081 1514.24 73.1455 1515.58 74.0896 1516.68C75.0338 1517.79 76.3359 1518.58 77.8081 1518.97C79.2803 1519.35 80.8465 1519.29 82.2809 1518.8C83.7152 1518.31 84.9435 1517.42 85.7885 1516.26C86.6335 1515.09 87.0516 1513.71 86.9825 1512.31Z" fill="#57B894"/>
<path d="M74.0903 1557.14C73.3311 1558.49 72.0893 1559.55 70.5728 1560.16C69.0564 1560.77 67.3576 1560.88 65.761 1560.48C64.1645 1560.08 62.7673 1559.19 61.8036 1557.96C60.8399 1556.73 60.3682 1555.23 60.4677 1553.72C60.5672 1552.2 61.2317 1550.77 62.3499 1549.65C63.4681 1548.53 64.972 1547.8 66.6097 1547.58C68.2473 1547.35 69.9191 1547.65 71.3448 1548.42C72.7706 1549.19 73.8637 1550.39 74.441 1551.81L69.9184 1555.17L74.8948 1554.12C74.896 1555.17 74.62 1556.21 74.0903 1557.14Z" fill="#57B894"/>
<path d="M70.4805 1544.28C69.5305 1544.32 68.5806 1544.19 67.6856 1543.9C66.7905 1543.61 65.9679 1543.15 65.2649 1542.57C64.5619 1541.98 63.9924 1541.27 63.5892 1540.48C63.186 1539.69 62.957 1538.84 62.9153 1537.97C62.8582 1536.94 63.0722 1535.9 63.5393 1534.96C63.9726 1534.07 64.6128 1533.28 65.4147 1532.65C66.2165 1532.01 67.1607 1531.55 68.1805 1531.28L68.1444 1534.02L69.7791 1531.05C70.7292 1531.01 71.679 1531.14 72.574 1531.43C73.4691 1531.72 74.2917 1532.18 74.9947 1532.76C75.6977 1533.35 76.2672 1534.06 76.6704 1534.85C77.0736 1535.63 77.3026 1536.49 77.3443 1537.36C77.3867 1538.12 77.2819 1538.89 77.0349 1539.62C76.5994 1540.92 75.7362 1542.06 74.5632 1542.9C73.3902 1543.73 71.9645 1544.22 70.4805 1544.28Z" fill="#57B894"/>
<path d="M88.0707 1533.58C86.9597 1533.62 85.8543 1533.42 84.8407 1533C83.827 1532.59 82.9325 1531.96 82.2269 1531.17C81.5212 1530.39 81.0234 1529.46 80.7724 1528.47C80.5213 1527.48 80.5238 1526.45 80.7795 1525.46C81.0353 1524.47 81.5374 1523.55 82.2468 1522.76C82.9562 1521.98 83.8537 1521.36 84.8693 1520.94C85.8849 1520.53 86.9913 1520.34 88.102 1520.38C89.2128 1520.42 90.298 1520.7 91.2731 1521.19L89.9942 1524.39L92.6242 1522.08C93.6875 1522.96 94.4402 1524.11 94.7864 1525.39C95.1326 1526.66 95.0566 1528 94.5682 1529.23C94.0797 1530.47 93.2009 1531.54 92.0437 1532.31C90.8865 1533.09 89.5034 1533.53 88.0707 1533.58Z" fill="#57B894"/>
<path opacity="0.1" d="M86.0079 1514.07C84.3422 1514.24 82.7126 1514.72 81.0366 1514.81C79.3606 1514.91 77.5196 1514.54 76.4625 1513.35C75.8901 1512.7 75.6013 1511.89 75.1217 1511.19C74.6643 1510.54 74.0393 1510 73.3013 1509.62C72.8608 1510.46 72.6175 1511.37 72.5873 1512.3C72.5572 1513.22 72.7407 1514.15 73.1261 1515.01C73.5115 1515.86 74.0901 1516.64 74.8241 1517.28C75.5582 1517.92 76.4313 1518.41 77.3866 1518.72C78.3419 1519.03 79.3579 1519.15 80.3686 1519.08C81.3793 1519.01 82.362 1518.74 83.2526 1518.3C84.1433 1517.86 84.9219 1517.25 85.5379 1516.51C86.1539 1515.77 86.5934 1514.92 86.8278 1514.02C86.5545 1514.03 86.2812 1514.05 86.0079 1514.07Z" fill="black"/>
<path opacity="0.1" d="M88.0706 1533.58C86.8254 1533.63 85.5872 1533.39 84.4755 1532.87C83.3638 1532.36 82.4162 1531.59 81.7242 1530.64C81.0322 1529.69 80.6191 1528.59 80.5249 1527.46C80.4307 1526.32 80.6584 1525.18 81.1862 1524.14C81.7634 1524.5 82.2592 1524.95 82.6456 1525.48C83.1613 1526.19 83.4707 1527.01 84.0792 1527.67C85.2034 1528.88 87.1321 1529.28 88.8751 1529.2C90.6182 1529.13 92.3096 1528.68 94.032 1528.53C94.2744 1528.53 94.5219 1528.5 94.7643 1528.49C94.4058 1529.89 93.5583 1531.14 92.3503 1532.06C91.1423 1532.98 89.6398 1533.52 88.0706 1533.58Z" fill="black"/>
<path opacity="0.1" d="M70.4805 1544.28C69.5305 1544.32 68.5806 1544.19 67.6856 1543.9C66.7905 1543.61 65.9679 1543.15 65.2649 1542.57C64.5619 1541.98 63.9924 1541.27 63.5892 1540.48C63.186 1539.69 62.957 1538.84 62.9153 1537.97C62.8582 1536.94 63.0722 1535.9 63.5393 1534.96C64.1409 1535.31 64.6654 1535.77 65.0864 1536.3C65.6485 1537.03 65.9991 1537.86 66.6334 1538.53C67.8556 1539.78 69.9081 1540.22 71.7594 1540.18C73.6107 1540.13 75.2764 1539.74 77.0555 1539.61C76.6197 1540.92 75.7538 1542.07 74.5767 1542.9C73.3995 1543.74 71.9687 1544.22 70.4805 1544.28Z" fill="black"/>
<path opacity="0.1" d="M74.0904 1557.14C73.7027 1557.93 73.1482 1558.65 72.4585 1559.25C71.7689 1559.84 70.9576 1560.31 70.0709 1560.62C69.1843 1560.93 68.2398 1561.07 67.2912 1561.05C66.3426 1561.03 65.4085 1560.83 64.5424 1560.48C63.6762 1560.12 62.8949 1559.61 62.2431 1558.98C61.5912 1558.35 61.0816 1557.61 60.7433 1556.8C60.405 1555.99 60.2446 1555.12 60.2713 1554.25C60.2981 1553.39 60.5114 1552.53 60.8991 1551.74C61.4942 1552.1 62.0292 1552.53 62.4874 1553.03C63.1732 1553.8 63.6271 1554.67 64.4212 1555.39C65.9012 1556.72 68.2889 1557.28 70.4187 1557.32C71.6453 1557.33 72.8712 1557.27 74.0904 1557.14Z" fill="black"/>
<path d="M56 1566.91C56 1566.91 61.7138 1566.75 63.4362 1565.62C65.1586 1564.5 72.2029 1563.16 72.6516 1564.96C73.1002 1566.76 81.2326 1573.93 74.7865 1573.96C68.3404 1573.98 59.8006 1573.04 58.0834 1572.07C56.3661 1571.1 56 1566.91 56 1566.91Z" fill="#656380"/>
<path opacity="0.2" d="M74.9 1573.33C68.4487 1573.38 59.9141 1572.41 58.1968 1571.44C56.887 1570.71 56.3661 1568.09 56.1908 1566.89H56C56 1566.89 56.361 1571.1 58.0628 1572.08C59.7645 1573.05 68.3146 1574 74.7659 1573.97C76.6275 1573.97 77.267 1573.35 77.236 1572.45C76.9937 1572.98 76.2872 1573.32 74.9 1573.33Z" fill="black"/>
<circle cx="1094" cy="502" r="17" fill="#13F1FC" fill-opacity="0.1"/>
<g filter="url(#filter0_d)">
<circle cx="1093.5" cy="502.5" r="8.5" fill="#13F1FC"/>
</g>
<circle cx="75" cy="1190" r="17" fill="#13F1FC" fill-opacity="0.1"/>
<g filter="url(#filter1_d)">
<circle cx="75.5" cy="1190.5" r="8.5" fill="#13F1FC"/>
</g>
<path fill-rule="evenodd" clip-rule="evenodd" d="M591.818 1679H585.896V1701.7H591.818V1679ZM588.857 1717L599.714 1701.7H578L588.857 1717Z" fill="#F2F3F3"/>
<defs>
<filter id="filter0_d" x="1075" y="488" width="37" height="37" filterUnits="userSpaceOnUse" color-interpolation-filters="sRGB">
<feFlood flood-opacity="0" result="BackgroundImageFix"/>
<feColorMatrix in="SourceAlpha" type="matrix" values="0 0 0 0 0 0 0 0 0 0 0 0 0 0 0 0 0 0 127 0"/>
<feOffset dy="4"/>
<feGaussianBlur stdDeviation="5"/>
<feColorMatrix type="matrix" values="0 0 0 0 0.0745098 0 0 0 0 0.945098 0 0 0 0 0.988235 0 0 0 0.7 0"/>
<feBlend mode="normal" in2="BackgroundImageFix" result="effect1_dropShadow"/>
<feBlend mode="normal" in="SourceGraphic" in2="effect1_dropShadow" result="shape"/>
</filter>
<filter id="filter1_d" x="57" y="1176" width="37" height="37" filterUnits="userSpaceOnUse" color-interpolation-filters="sRGB">
<feFlood flood-opacity="0" result="BackgroundImageFix"/>
<feColorMatrix in="SourceAlpha" type="matrix" values="0 0 0 0 0 0 0 0 0 0 0 0 0 0 0 0 0 0 127 0"/>
<feOffset dy="4"/>
<feGaussianBlur stdDeviation="5"/>
<feColorMatrix type="matrix" values="0 0 0 0 0.0745098 0 0 0 0 0.945098 0 0 0 0 0.988235 0 0 0 0.7 0"/>
<feBlend mode="normal" in2="BackgroundImageFix" result="effect1_dropShadow"/>
<feBlend mode="normal" in="SourceGraphic" in2="effect1_dropShadow" result="shape"/>
</filter>
<linearGradient id="paint0_linear" x1="586.052" y1="5" x2="586.052" y2="1711.5" gradientUnits="userSpaceOnUse">
<stop stop-color="white"/>
<stop offset="0.541436" stop-color="#E6E8EC" stop-opacity="0.1"/>
<stop offset="1" stop-color="white"/>
</linearGradient>
<linearGradient id="paint1_linear" x1="586.052" y1="5" x2="586.052" y2="1711.5" gradientUnits="userSpaceOnUse">
<stop stop-color="white"/>
<stop offset="0.209945" stop-color="#E6E8EC"/>
<stop offset="0.834254" stop-color="#E6E8EC"/>
<stop offset="1" stop-color="white"/>
</linearGradient>
</defs>
</svg>
