<svg width="354" height="251" viewBox="0 0 354 251" fill="none" xmlns="http://www.w3.org/2000/svg">
<g clip-path="url(#clip0)">
<path opacity="0.1" d="M117.69 250.859C134.93 250.859 148.905 248.612 148.905 245.84C148.905 243.069 134.93 240.822 117.69 240.822C100.451 240.822 86.4754 243.069 86.4754 245.84C86.4754 248.612 100.451 250.859 117.69 250.859Z" fill="#6C63FF"/>
<path opacity="0.1" d="M287.37 251C308.883 251 326.322 248.753 326.322 245.982C326.322 243.21 308.883 240.963 287.37 240.963C265.858 240.963 248.419 243.21 248.419 245.982C248.419 248.753 265.858 251 287.37 251Z" fill="#6C63FF"/>
<path opacity="0.1" d="M4.43365 108.45H36.946V152.808H6.81385C6.73376 153.264 6.65688 153.722 6.57359 154.181H36.946V189.954C36.8916 189.938 36.8435 189.919 36.7922 189.9C35.9337 189.56 35.0816 189.201 34.2294 188.816L33.6848 188.569C32.8306 188.165 31.9763 187.738 31.122 187.287C30.8241 187.129 30.5262 186.966 30.2315 186.799C25.4889 184.14 21.1806 180.77 17.4559 176.807C17.347 176.701 17.2445 176.589 17.1355 176.486C16.6166 175.922 16.1072 175.351 15.6139 174.768L15.0693 174.126C14.4862 173.411 13.9224 172.677 13.3746 171.933C13.2945 171.824 13.2177 171.715 13.1344 171.612C10.9065 168.52 9.05663 165.172 7.62434 161.639C7.57949 161.534 7.54105 161.418 7.4994 161.319C7.05945 160.186 6.66969 159.042 6.33012 157.888C6.18276 157.403 6.04181 156.926 5.92007 156.422C5.87522 156.275 5.83678 156.13 5.80154 155.986C3.98195 148.877 3.76732 141.492 3.76732 134.158C3.76732 133.302 3.76732 132.443 3.76732 131.593C3.76732 128.627 3.80256 125.641 3.85381 122.659C3.85381 121.886 3.88585 121.117 3.90187 120.341C3.94671 118.372 4.01079 116.403 4.09408 114.434C4.1133 113.886 4.13893 113.34 4.16776 112.795C4.16776 112.481 4.18377 112.167 4.21581 111.852C4.29269 110.711 4.35676 109.579 4.43365 108.45Z" fill="#6C63FF"/>
<path opacity="0.1" d="M36.946 59.0608H19.1121C22.0111 54.5187 25.1786 50.1542 28.5977 45.9903C31.247 42.7323 34.0437 39.5577 36.946 36.4985V59.0608Z" fill="#6C63FF"/>
<path opacity="0.1" d="M36.946 60.4331V107.078H4.53618C4.53618 106.943 4.5586 106.805 4.56821 106.67C4.59704 106.302 4.62588 105.933 4.65791 105.567C4.69315 105.137 4.73159 104.705 4.77324 104.285C4.81488 103.864 4.85973 103.351 4.90778 102.886C4.95584 102.421 5.00069 101.95 5.05515 101.485C5.10961 101.02 5.15766 100.555 5.21532 100.093C5.27298 99.6316 5.32424 99.1634 5.38511 98.7017C5.43316 98.3169 5.48441 97.9353 5.53567 97.5505C5.60935 97.0085 5.68624 96.4634 5.76953 95.9247C5.76953 95.8445 5.79195 95.7611 5.80477 95.6842C6.38947 91.7405 7.18616 87.8312 8.19138 83.9734C9.2436 79.9265 10.5872 75.9612 12.2118 72.1086C13.9384 68.0784 15.9599 64.1813 18.26 60.4491L36.946 60.4331Z" fill="#6C63FF"/>
<path opacity="0.1" d="M44.7081 108.447V152.808H114.15V108.447H44.7081ZM44.7081 154.177V192.273C45.1053 192.356 45.4994 192.436 45.8902 192.504C46.422 192.606 46.9506 192.699 47.4919 192.78C47.5945 192.796 47.7002 192.812 47.8123 192.821C48.0237 192.856 48.2416 192.885 48.453 192.914C48.988 192.988 49.5198 193.049 50.0547 193.097C50.3078 193.123 50.5641 193.145 50.8204 193.164L51.4387 193.212C51.775 193.238 52.1082 193.257 52.4381 193.267C52.6432 193.267 52.8482 193.286 53.0596 193.293C53.2198 193.293 53.38 193.293 53.5466 193.293C53.7131 193.293 53.9502 193.293 54.152 193.293C54.4275 193.293 54.703 193.293 54.9753 193.293H55.3437C55.6192 193.293 55.8947 193.293 56.167 193.267H56.1863C56.3753 193.267 56.5675 193.267 56.7597 193.241C56.813 193.244 56.8665 193.244 56.9199 193.241C57.08 193.241 57.2402 193.241 57.394 193.219H57.5061L58.5793 193.135C58.9317 193.103 59.2872 193.062 59.646 193.023L60.3764 192.937C63.3479 192.52 66.2864 191.894 69.1701 191.064C75.6475 189.255 81.9841 186.725 88.4583 184.872C96.8291 182.483 106.078 181.309 114.166 184.231V154.177H44.7081ZM114.15 59.0608V0.00329104C106.548 -0.0791604 98.9656 0.810952 91.5882 2.65201C74.0041 7.07403 58.2269 16.6652 44.7081 28.9148V59.0576H48.1935V60.4268H44.7081V107.078H114.15V60.43H62.5036V59.0608H114.15ZM203.346 39.112C198.995 38.9581 194.671 37.5792 190.759 35.45C183.279 31.3775 177.304 25.0892 170.628 19.7821C156.757 8.72868 139.554 2.05878 121.906 0.404127V59.0608H221.039L221.285 58.8011L203.346 39.112ZM212.376 37.5087L221.952 48.0266V34.7509C218.745 35.1486 215.935 36.0945 212.389 37.4958L212.376 37.5087ZM221.952 201.733V154.177H201.548C201.494 153.975 201.439 153.77 201.375 153.565C201.436 153.77 201.488 153.975 201.545 154.177H121.919V188.569C122.675 189.13 123.421 189.72 124.161 190.32C124.959 190.961 125.747 191.638 126.538 192.302L127.336 192.962C127.717 193.283 128.102 193.604 128.489 193.905C129.258 194.529 130.034 195.145 130.818 195.752C131.206 196.073 131.603 196.361 131.997 196.663C138.253 201.45 144.852 205.771 151.74 209.589C153.284 210.444 154.842 211.279 156.414 212.093C157.462 212.629 158.516 213.161 159.573 213.677C161.162 214.454 162.764 215.202 164.378 215.922C179.264 222.611 195.004 227.201 211.149 229.56C214.735 230.09 218.335 230.507 221.948 230.811V201.729H222.269L221.952 201.733ZM121.919 60.43V107.078H221.964V60.43H121.919ZM121.919 108.447V152.808H221.964V108.447H121.919ZM229.73 34.6932V49.5017L241.951 36.0785C237.902 35.4243 233.828 34.9572 229.73 34.6772V34.6932ZM229.73 108.463V152.808H327.036V108.447L229.73 108.463ZM326.68 205.254L327.023 154.177H229.73V231.321C235.997 231.584 242.275 231.509 248.534 231.096H248.643C251.633 230.908 254.609 230.634 257.571 230.275H257.639C273.442 228.434 288.894 224.307 303.513 218.023L326.68 205.254ZM345.799 115.752C345.434 114.889 345.053 114.033 344.665 113.186C343.941 111.583 343.175 110.025 342.387 108.466H334.795V152.808H353.99C353.981 140.251 350.806 127.424 345.809 115.736L345.799 115.752ZM334.795 154.193V198.125C340.202 192.937 344.771 187.001 348.061 180.216C352.017 172.045 353.827 163.198 353.974 154.187L334.795 154.193ZM334.795 95.5368V107.081H341.676C339.594 103.107 337.301 99.248 334.805 95.5208L334.795 95.5368ZM268.803 43.3961C268.297 43.2037 267.79 43.0081 267.281 42.8189C261.909 40.8331 256.42 39.1817 250.844 37.8742L232.142 58.4195L231.783 58.8011L232.023 59.064H298.586C289.315 52.6764 279.321 47.4117 268.812 43.3801L268.803 43.3961ZM300.537 60.4461H231.094L229.73 61.6967V107.078H241.692H241.711H327.049V85.0959C319.329 75.7502 310.419 67.4577 300.546 60.43L300.537 60.4461Z" fill="#6C63FF"/>
<path opacity="0.1" d="M36.946 83.9607V107.078H4.53618C4.53618 106.943 4.5586 106.805 4.56821 106.67C4.59704 106.302 4.62588 105.933 4.65791 105.567C4.69315 105.138 4.73159 104.705 4.77324 104.285C4.81488 103.865 4.85973 103.352 4.90778 102.887C4.95584 102.422 5.00069 101.95 5.05515 101.485C5.10961 101.02 5.15766 100.555 5.21532 100.094C5.27298 99.6318 5.32424 99.1636 5.38511 98.7018C5.43316 98.317 5.48441 97.9354 5.53567 97.5506C5.60935 97.0087 5.68624 96.4635 5.76953 95.9248C5.76953 95.8447 5.79195 95.7613 5.80477 95.6843C6.38947 91.7406 7.18616 87.8314 8.19138 83.9735L36.946 83.9607Z" fill="#6C63FF"/>
<path opacity="0.1" d="M4.43365 108.45H36.946V152.808H6.81385C6.73376 153.264 6.65688 153.722 6.57359 154.181H36.946V189.954C36.8916 189.938 36.8435 189.919 36.7922 189.9C35.9337 189.56 35.0816 189.201 34.2294 188.816L33.6848 188.569C32.8306 188.165 31.9763 187.738 31.122 187.287C30.8241 187.129 30.5262 186.966 30.2315 186.799C25.4889 184.14 21.1806 180.77 17.4559 176.807C17.347 176.701 17.2445 176.589 17.1355 176.486C16.6166 175.922 16.1072 175.351 15.6139 174.768L15.0693 174.126C14.4862 173.411 13.9224 172.677 13.3746 171.933C13.2945 171.824 13.2177 171.715 13.1344 171.612C10.9065 168.52 9.05663 165.172 7.62434 161.639C7.57949 161.534 7.54105 161.418 7.4994 161.319C7.05945 160.186 6.66969 159.042 6.33012 157.888C6.18276 157.403 6.04181 156.926 5.92007 156.422C5.87522 156.275 5.83678 156.13 5.80154 155.986C3.98195 148.877 3.76732 141.492 3.76732 134.158C3.76732 133.302 3.76732 132.443 3.76732 131.593C3.76732 128.627 3.80256 125.641 3.85381 122.659C3.85381 121.886 3.88585 121.117 3.90187 120.341C3.94671 118.372 4.01079 116.403 4.09408 114.434C4.1133 113.886 4.13893 113.34 4.16776 112.795C4.16776 112.481 4.18377 112.167 4.21581 111.852C4.29269 110.711 4.35676 109.579 4.43365 108.45Z" fill="#6C63FF"/>
<path opacity="0.1" d="M69.154 67.1096V107.078H44.7081V67.1096H48.1935V53.5774H62.5004V67.1096H69.154Z" fill="#6C63FF"/>
<path opacity="0.1" d="M69.154 108.447H44.7113V152.805H69.154V108.447Z" fill="#6C63FF"/>
<path opacity="0.1" d="M44.7081 154.181H69.154V191.058C66.2704 191.887 63.3319 192.512 60.3604 192.927L59.63 193.017C59.2712 193.058 58.9156 193.094 58.5633 193.129C58.2109 193.164 57.8457 193.19 57.4901 193.212H57.378C57.2242 193.212 57.0576 193.232 56.907 193.235H56.7437C56.5514 193.235 56.3592 193.254 56.167 193.261C55.8947 193.277 55.6224 193.28 55.3437 193.283C55.2252 193.283 55.1131 193.283 54.9945 193.283C54.719 193.283 54.4467 193.283 54.1712 193.283H53.5658C53.4024 193.283 53.2454 193.283 53.0756 193.283L52.4574 193.261C52.137 193.261 51.791 193.225 51.4579 193.203L50.8428 193.158L50.0772 193.087C49.539 193.039 49.004 192.978 48.4754 192.905L47.8347 192.815L47.5144 192.77C46.9794 192.687 46.4508 192.597 45.9126 192.494C45.5186 192.427 45.1278 192.343 44.7305 192.263L44.7081 154.181Z" fill="#6C63FF"/>
<path opacity="0.1" d="M221.964 62.3892H201.808V107.074H221.964V62.3892Z" fill="#6C63FF"/>
<path opacity="0.1" d="M221.968 108.447V152.808H121.919V133.674H175.209V144.961H201.808V108.447H221.968Z" fill="#6C63FF"/>
<path opacity="0.1" d="M222.285 201.742H221.964V230.843C218.355 230.537 214.756 230.121 211.169 229.595C195.015 227.228 179.268 222.629 164.378 215.928C160.079 213.992 155.868 211.877 151.744 209.586C144.855 205.765 138.255 201.445 131.997 196.66C130.425 195.454 128.874 194.22 127.342 192.959C126.282 192.084 125.228 191.186 124.161 190.313C123.421 189.714 122.675 189.124 121.919 188.559V154.181H201.542C201.488 153.975 201.433 153.77 201.375 153.568C201.436 153.77 201.494 153.975 201.548 154.181H221.964V201.723C222.073 201.726 222.179 201.736 222.285 201.742Z" fill="#6C63FF"/>
<path opacity="0.1" d="M274.534 59.0608H261.4V54.9755H267.288V42.8062C267.798 42.9921 268.306 43.1835 268.812 43.3802V54.9755H274.534V59.0608Z" fill="#6C63FF"/>
<path opacity="0.1" d="M306.178 107.078H241.698C241.698 107.078 241.698 107.078 241.72 107.094L241.692 107.078H229.73V62.3924H233.119V95.4212H248.608V75.8605H261.403V60.4331H274.537V75.8733H287.332V95.4341H306.178V107.078Z" fill="#6C63FF"/>
<path opacity="0.1" d="M229.73 108.447V152.808H306.178V108.447H229.73ZM326.93 205.026L327.036 169.912H306.178V154.2H229.73V231.321C235.997 231.584 242.275 231.509 248.534 231.096H248.643C251.633 230.908 254.609 230.634 257.571 230.275H257.639C273.442 228.434 288.894 224.307 303.513 218.022" fill="#6C63FF"/>
<path opacity="0.1" d="M336.153 154.181H353.987C353.83 163.188 352.023 172.035 348.07 180.206C344.78 186.995 340.209 192.93 334.808 198.115V169.897H336.153V154.181Z" fill="#6C63FF"/>
<path opacity="0.1" d="M353.997 152.808H336.153V115.736H345.809C350.806 127.424 353.981 140.251 353.997 152.808Z" fill="#6C63FF"/>
<path opacity="0.1" d="M221.968 74.812H211.169V88.822H221.968V74.812Z" fill="#6C63FF"/>
<path opacity="0.1" d="M221.968 103.852H211.169V107.078H221.968V103.852Z" fill="#6C63FF"/>
<path opacity="0.1" d="M221.968 108.447H211.169V117.858H221.968V108.447Z" fill="#6C63FF"/>
<path opacity="0.1" d="M221.968 132.891H211.169V146.901H221.968V132.891Z" fill="#6C63FF"/>
<path opacity="0.1" d="M221.968 161.931H211.169V175.941H221.968V161.931Z" fill="#6C63FF"/>
<path opacity="0.1" d="M221.964 201.723C222.073 201.723 222.179 201.723 222.285 201.742H221.964V204.997H211.169V190.971H221.964V201.723Z" fill="#6C63FF"/>
<path opacity="0.1" d="M221.964 220.004V230.827C218.355 230.521 214.756 230.105 211.169 229.58V220.004H221.964Z" fill="#6C63FF"/>
<path opacity="0.1" d="M168.2 151.779H121.919V152.808H168.2V151.779Z" fill="#6C63FF"/>
<path opacity="0.1" d="M168.2 154.177H121.919V158.121H168.2V154.177Z" fill="#6C63FF"/>
<path opacity="0.1" d="M168.2 171.051H121.919V177.394H168.2V171.051Z" fill="#6C63FF"/>
<path opacity="0.1" d="M168.197 190.323V196.666H131.997C130.425 195.465 128.873 194.231 127.339 192.966C126.279 192.09 125.228 191.192 124.158 190.323H168.197Z" fill="#6C63FF"/>
<path opacity="0.1" d="M168.197 209.592V215.929H164.375C160.08 213.99 155.87 211.874 151.744 209.583L168.197 209.592Z" fill="#6C63FF"/>
<path opacity="0.1" d="M257.648 112.747H248.537V121.867H257.648V112.747Z" fill="#6C63FF"/>
<path opacity="0.1" d="M60.3828 70.2551H51.2721V79.3749H60.3828V70.2551Z" fill="#6C63FF"/>
<path opacity="0.1" d="M60.3828 91.4385H51.2721V100.558H60.3828V91.4385Z" fill="#6C63FF"/>
<path opacity="0.1" d="M60.3828 112.622H51.2721V121.742H60.3828V112.622Z" fill="#6C63FF"/>
<path opacity="0.1" d="M60.3828 133.802H51.2721V142.922H60.3828V133.802Z" fill="#6C63FF"/>
<path opacity="0.1" d="M60.3828 154.985H51.2721V164.105H60.3828V154.985Z" fill="#6C63FF"/>
<path opacity="0.1" d="M60.3828 176.169H51.2721V185.289H60.3828V176.169Z" fill="#6C63FF"/>
<path opacity="0.1" d="M292.429 112.747H283.318V121.867H292.429V112.747Z" fill="#6C63FF"/>
<path opacity="0.1" d="M257.648 135.242H248.537V144.362H257.648V135.242Z" fill="#6C63FF"/>
<path opacity="0.1" d="M292.429 135.242H283.318V144.362H292.429V135.242Z" fill="#6C63FF"/>
<path opacity="0.1" d="M257.648 157.734H248.537V166.853H257.648V157.734Z" fill="#6C63FF"/>
<path opacity="0.1" d="M292.429 157.734H283.318V166.853H292.429V157.734Z" fill="#6C63FF"/>
<path opacity="0.1" d="M257.648 180.229H248.537V189.348H257.648V180.229Z" fill="#6C63FF"/>
<path opacity="0.1" d="M292.429 180.229H283.318V189.348H292.429V180.229Z" fill="#6C63FF"/>
<path opacity="0.1" d="M257.648 202.723H248.537V211.843H257.648V202.723Z" fill="#6C63FF"/>
<path opacity="0.1" d="M292.429 202.723H283.318V211.843H292.429V202.723Z" fill="#6C63FF"/>
<path opacity="0.1" d="M248.537 231.096V225.215H257.645V230.259L248.537 231.096Z" fill="#6C63FF"/>
<path opacity="0.1" d="M5.76631 95.6777V100.895H36.946V95.6777H5.76631ZM8.87371 100.568H6.33013V95.9984H8.89293L8.87371 100.568ZM11.9779 100.568H9.4151V95.9984H11.9779V100.568ZM15.0757 100.568H12.5129V95.9984H15.0757V100.568ZM18.1799 100.568H15.6203V95.9984H18.1831L18.1799 100.568ZM21.2809 100.568H18.7181V95.9984H21.2809V100.568ZM24.3851 100.568H21.8223V95.9984H24.3851V100.568ZM27.4893 100.568H24.9265V95.9984H27.4893V100.568ZM30.5903 100.568H28.0275V95.9984H30.5903V100.568ZM33.6913 100.568H31.1285V95.9984H33.6913V100.568ZM36.7922 100.568H34.2294V95.9984H36.7922V100.568Z" fill="#6C63FF"/>
<path opacity="0.1" d="M5.76631 110.858V116.075H36.946V110.858H5.76631ZM8.87371 115.745H6.33013V111.188H8.89293L8.87371 115.745ZM11.9779 115.745H9.4151V111.188H11.9779V115.745ZM15.0757 115.745H12.5129V111.188H15.0757V115.745ZM18.1799 115.745H15.6203V111.188H18.1831L18.1799 115.745ZM21.2809 115.745H18.7181V111.188H21.2809V115.745ZM24.3851 115.745H21.8223V111.188H24.3851V115.745ZM27.4893 115.745H24.9265V111.188H27.4893V115.745ZM30.5903 115.745H28.0275V111.188H30.5903V115.745ZM33.6913 115.745H31.1285V111.188H33.6913V115.745ZM36.7922 115.745H34.2294V111.188H36.7922V115.745Z" fill="#6C63FF"/>
<path opacity="0.1" d="M5.76631 126.045V131.272H36.946V126.045H5.76631ZM8.87371 130.932H6.33013V126.372H8.89293L8.87371 130.932ZM11.9779 130.932H9.4151V126.372H11.9779V130.932ZM15.0757 130.932H12.5129V126.372H15.0757V130.932ZM18.1799 130.932H15.6203V126.372H18.1831L18.1799 130.932ZM21.2809 130.932H18.7181V126.372H21.2809V130.932ZM24.3851 130.932H21.8223V126.372H24.3851V130.932ZM27.4893 130.932H24.9265V126.372H27.4893V130.932ZM30.5903 130.932H28.0275V126.372H30.5903V130.932ZM33.6913 130.932H31.1285V126.372H33.6913V130.932ZM36.7922 130.932H34.2294V126.372H36.7922V130.932Z" fill="#6C63FF"/>
<path opacity="0.1" d="M5.76631 141.232V146.443H36.946V141.232H5.76631ZM8.87371 146.119H6.33013V141.556H8.89293L8.87371 146.119ZM11.9779 146.119H9.4151V141.556H11.9779V146.119ZM15.0757 146.119H12.5129V141.556H15.0757V146.119ZM18.1799 146.119H15.6203V141.556H18.1831L18.1799 146.119ZM21.2809 146.119H18.7181V141.556H21.2809V146.119ZM24.3851 146.119H21.8223V141.556H24.3851V146.119ZM27.4893 146.119H24.9265V141.556H27.4893V146.119ZM30.5903 146.119H28.0275V141.556H30.5903V146.119ZM33.6913 146.119H31.1285V141.556H33.6913V146.119ZM36.7922 146.119H34.2294V141.556H36.7922V146.119Z" fill="#6C63FF"/>
<path opacity="0.1" d="M5.90086 156.416C6.0258 156.906 6.16675 157.397 6.31411 157.881V156.743H8.87692V161.303H7.50582C7.54746 161.408 7.58911 161.524 7.63075 161.623H36.946V156.416H5.90086ZM11.9875 161.303H9.42472V156.743H11.9875V161.303ZM15.0853 161.303H12.5225V156.743H15.0853V161.303ZM18.1895 161.303H15.6203V156.743H18.1831L18.1895 161.303ZM21.2905 161.303H18.7277V156.743H21.2905V161.303ZM24.3947 161.303H21.8319V156.743H24.3947V161.303ZM27.4989 161.303H24.9361V156.743H27.4989V161.303ZM30.5999 161.303H28.0371V156.743H30.5999V161.303ZM33.7009 161.303H31.1381V156.743H33.7009V161.303ZM36.8019 161.303H34.239V156.743H36.8019V161.303Z" fill="#6C63FF"/>
<path opacity="0.1" d="M13.1408 171.603C13.2208 171.705 13.2977 171.821 13.381 171.923H15.0757V174.113C15.2583 174.331 15.4377 174.549 15.6235 174.755V171.91H18.1863V176.486H17.1483C17.2509 176.592 17.3502 176.704 17.4687 176.807H36.9556V171.603H13.1408ZM21.2809 176.486H18.7181V171.93H21.2809V176.486ZM24.3851 176.486H21.8223V171.93H24.3851V176.486ZM27.4893 176.486H24.9265V171.93H27.4893V176.486ZM30.5902 176.486H28.0274V171.93H30.5902V176.486ZM33.6912 176.486H31.1284V171.93H33.6912V176.486ZM36.7922 176.486H34.2294V171.93H36.7922V176.486Z" fill="#6C63FF"/>
<path opacity="0.1" d="M30.2443 186.786C30.5358 186.953 30.8337 187.107 31.1349 187.274V187.113H33.6977V188.556L34.2423 188.81V187.113H36.8051V189.887C36.8542 189.911 36.9057 189.931 36.9588 189.945V186.786H30.2443Z" fill="#6C63FF"/>
<path opacity="0.1" d="M241.698 107.078H241.717H241.698ZM221.964 201.72H222.285H221.964ZM201.375 153.565C201.436 153.77 201.488 153.975 201.545 154.177C201.494 153.975 201.44 153.77 201.375 153.565ZM241.698 107.068H241.717H241.698ZM48.2063 59.051V60.4203H62.5164V59.051H48.2063ZM221.964 201.72H222.285H221.964ZM201.375 153.565C201.436 153.77 201.488 153.975 201.545 154.177C201.494 153.975 201.44 153.77 201.375 153.565ZM241.698 107.068H241.717H241.698ZM221.964 201.71H222.285H221.964ZM201.375 153.565C201.436 153.77 201.488 153.975 201.545 154.177C201.494 153.975 201.44 153.77 201.375 153.565Z" fill="#6C63FF"/>
<path d="M147.874 121.748C147.874 121.748 146.612 121.572 146.612 119.731C146.612 117.891 145.708 114.453 145.708 114.453C145.708 114.437 144.926 108.466 143.847 107.517C142.767 106.568 141.38 100.995 141.38 100.995C141.38 100.995 141.143 97.9707 140.659 97.3198C140.176 96.6688 139.522 95.0751 138.558 92.8016C137.594 90.528 133.573 88.9535 133.573 88.9535C133.573 88.9535 126.305 84.7335 124.245 83.3579C124.057 83.2449 123.882 83.1127 123.723 82.9635C123.364 82.4921 121.8 82.4825 121.8 82.4825C121.637 81.4499 121.48 80.2634 121.429 79.1892C121.429 79.0738 121.429 78.9583 121.413 78.8429C123.71 77.4838 125.44 75.341 126.285 72.8079C126.324 72.686 126.356 72.5578 126.391 72.4359C126.529 72.3905 126.655 72.3169 126.763 72.2197C126.87 72.1225 126.957 72.004 127.016 71.8715C127.202 71.4579 127.205 70.9737 127.435 70.5889C127.704 70.1335 128.217 69.8898 128.621 69.5467C129.639 68.6809 129.902 67.2218 129.854 65.8943C129.822 64.82 129.649 63.7362 129.716 62.6684L129.735 62.399C129.755 62.2387 129.777 62.0783 129.806 61.9244C129.963 61.1292 130.306 60.3788 130.498 59.5899C130.69 58.8011 130.709 57.9128 130.261 57.233C129.604 56.2357 128.236 56.0369 127.035 55.9343C125.673 55.8189 124.456 55.9696 123.585 54.8376C123.177 54.246 122.718 53.6913 122.214 53.1798C122.034 53.013 120.292 51.9484 120.292 51.8779C118.591 51.0893 116.663 50.9413 114.862 51.461C113.958 51.7239 113.106 52.1536 112.19 52.3685C110.213 52.8367 107.939 52.33 106.26 53.462C105.325 54.1033 104.764 55.123 104.239 56.1171C103.812 56.9359 103.378 57.7536 102.938 58.5702C102.23 59.9138 101.509 61.2799 101.211 62.7678C101.149 63.0915 101.11 63.4195 101.096 63.749V63.765C101.096 63.8837 101.096 64.0023 101.096 64.121V64.2717C101.096 64.3839 101.096 64.493 101.115 64.5924C101.135 64.6918 101.131 64.7238 101.141 64.7912C101.151 64.8585 101.167 65.0092 101.186 65.1118C101.205 65.2145 101.244 65.394 101.282 65.5351C101.298 65.5961 101.32 65.6538 101.34 65.7115C101.372 65.8205 101.41 65.9263 101.452 66.0322C101.474 66.0867 101.497 66.1444 101.522 66.1989C101.57 66.3112 101.628 66.4202 101.686 66.5196C101.711 66.5645 101.73 66.6062 101.756 66.6479C101.845 66.797 101.944 66.9405 102.051 67.0775C102.736 67.9337 103.745 68.4789 104.492 69.2805C104.492 69.3126 104.492 69.3447 104.492 69.3735C104.492 69.4633 104.492 69.5499 104.492 69.6397C104.531 71.4276 105.007 73.1787 105.877 74.7408C106.747 76.3028 107.985 77.6285 109.483 78.6024C109.483 78.7242 109.499 78.8493 109.505 78.9711C109.568 79.923 109.556 80.8783 109.47 81.8283C109.34 81.6745 109.176 81.552 108.992 81.4699C108.808 81.3877 108.608 81.348 108.407 81.3537C108.269 81.347 108.131 81.3588 107.996 81.389L107.968 81.3665V81.3954C107.263 81.5686 106.395 82.3029 105.565 84.3904C105.565 84.3904 103.041 87.238 101.119 87.1193C99.1965 87.0007 94.3304 90.0823 94.3304 90.0823C94.3304 90.0823 89.5828 93.1671 88.564 96.3097C87.9946 98.0917 87.312 99.8354 86.5202 101.53L80.6514 113.635L79.5686 123.239C79.5686 123.239 80.1677 127.511 80.0491 128.162C79.9306 128.813 82.5126 134.684 82.5126 134.684C82.5126 134.684 91.0436 149.688 94.529 150.458L94.7788 150.281C94.928 150.359 95.0861 150.419 95.2498 150.458L95.9673 149.951C96.0104 150.516 95.9922 151.083 95.9129 151.644C95.4324 153.126 96.0923 162.794 96.9316 164.689C97.7709 166.584 97.473 191.433 97.473 191.433L97.3545 193.626C97.3545 193.626 97.3545 193.697 97.3833 193.819L97.3545 194.338L97.441 194.383C97.5308 195.079 97.5015 195.785 97.3545 196.47C97.0533 197.432 96.9316 200.152 96.9316 200.152C96.9316 200.152 94.5322 215.505 95.6694 218.59C96.8067 221.675 97.7741 225.055 97.7741 225.055C97.7741 225.055 98.9754 228.903 97.8318 229.56C96.6881 230.218 93.4366 231.321 94.1061 232.924C94.7148 234.406 97.0245 238.375 97.3673 238.956L97.3384 239.26L96.8675 244.369C96.9438 245.043 97.1265 245.701 97.4089 246.318C97.9247 247.431 98.9274 248.586 100.833 248.46C101.154 248.438 101.525 248.4 101.884 248.351C105.373 247.883 109.669 246.325 109.669 246.325C109.446 246.183 109.241 246.014 109.06 245.821C108.889 245.655 108.753 245.456 108.661 245.235C108.569 245.015 108.523 244.778 108.525 244.539C108.576 243.609 106.837 239.177 106.404 238.087C106.337 237.93 106.302 237.84 106.302 237.84C106.302 237.84 110.268 233.69 109.608 230.012C109.608 230.012 105.219 227.447 106.664 226.039C108.109 224.632 110.691 220.588 110.691 220.588C110.691 220.588 110.809 205.468 110.691 203.211C110.567 201.644 110.641 200.068 110.912 198.52C110.96 198.285 111.017 198.058 111.078 197.833C113.076 198.132 115.093 198.285 117.114 198.292C117.85 198.292 118.6 198.292 119.356 198.247C119.356 198.461 119.366 198.692 119.385 198.94C119.552 202.685 119.862 209.252 120.115 211.693C120.474 215.191 122.457 224.619 122.457 224.619C122.457 224.619 118.674 227.049 123.117 233.039C123.117 233.039 123.117 235.21 122.822 235.525C122.508 236.552 122.254 237.597 122.063 238.654C121.877 239.783 121.8 240.925 122.102 241.518C122.822 242.935 127.147 242.82 127.147 242.82L127.253 242.801C128.069 242.716 128.894 242.795 129.68 243.032C130.466 243.269 131.197 243.66 131.831 244.183C133.474 245.504 139.711 244.923 143.088 244.503C144.411 244.337 145.295 244.183 145.295 244.183C145.338 244.033 145.353 243.876 145.34 243.721C145.305 242.89 144.654 241.069 140.246 239.443C140.246 239.443 136.101 236.653 136.159 234.223H136.072H135.591C135.941 234.204 136.165 234.223 136.165 234.223C136.165 234.223 134.541 228.29 135.204 227.809C135.867 227.328 133.881 220.755 133.881 220.755C133.881 220.755 132.744 209.724 132.683 208.951C132.685 208.288 132.786 207.629 132.981 206.995L132.683 200.947C132.683 200.947 132.625 198.936 132.683 198.282C132.673 197.714 132.627 197.148 132.545 196.586C132.516 196.361 132.487 196.127 132.455 195.896C134.009 195.502 135.018 195.136 135.018 195.136L134.839 174.085C136.159 171.519 136.402 165.892 136.396 161.899C136.396 159.334 136.28 157.436 136.28 157.436L138.084 154.489C138.084 154.489 138.5 150.961 137.84 150.188C137.549 149.839 137.68 149.477 137.92 149.178C138.045 149.079 138.177 148.989 138.314 148.909C138.314 148.909 138.295 148.88 138.273 148.838C138.399 148.733 138.533 148.638 138.673 148.553C138.673 148.553 138.033 147.559 138.606 147.139C139.144 147.504 139.625 147.78 139.99 148.005C139.964 148.239 139.939 148.373 139.939 148.373L140.092 148.053C140.445 148.252 140.659 148.373 140.659 148.373C140.659 148.373 143.485 142.739 143.424 141.909C143.363 141.078 145.346 137.58 145.346 137.58C145.346 137.58 145.586 135.742 146.669 134.973C147.752 134.203 147.509 128.627 147.509 128.627C147.509 128.627 147.81 125.721 148.53 124.535C149.251 123.348 147.874 121.748 147.874 121.748ZM93.8114 119.276L93.8658 120.62C93.5455 120.103 93.3148 119.731 93.3148 119.731L93.8114 119.276Z" fill="url(#paint0_linear)"/>
<path d="M140.813 145.94L140.121 148.89C140.121 148.89 134.579 146.058 133.58 142.46C132.58 138.862 135.252 137.496 135.252 137.496L140.416 139.686L140.813 145.94Z" fill="white"/>
<path opacity="0.1" d="M140.813 145.94L140.121 148.89C140.121 148.89 134.579 146.058 133.58 142.46C132.58 138.862 135.252 137.496 135.252 137.496L140.416 139.686L140.813 145.94Z" fill="black"/>
<path d="M109.71 246.344C109.71 246.344 104.585 248.229 101.061 248.467C99.1901 248.592 98.2066 247.444 97.7005 246.337C97.424 245.722 97.2456 245.068 97.1719 244.397L97.63 239.315L97.8735 236.608L105.36 234.662L106.42 237.907L106.52 238.154C106.946 239.238 108.653 243.647 108.602 244.567C108.6 244.803 108.645 245.037 108.736 245.254C108.826 245.472 108.959 245.669 109.127 245.834C109.299 246.028 109.495 246.199 109.71 246.344Z" fill="white"/>
<path d="M144.722 243.759C144.734 243.914 144.719 244.069 144.677 244.218C144.677 244.218 133.714 246.049 131.472 244.218C130.84 243.683 130.103 243.286 129.308 243.053C128.514 242.82 127.679 242.756 126.859 242.865C126.859 242.865 122.617 242.98 121.909 241.582C121.615 240.995 121.692 239.857 121.874 238.734C122.06 237.683 122.309 236.643 122.617 235.621L122.787 235.486L123.796 234.675L135.611 234.325H135.7C135.643 236.743 139.711 239.517 139.711 239.517C144.033 241.12 144.67 242.932 144.722 243.759Z" fill="white"/>
<path opacity="0.1" d="M144.722 243.759C144.733 243.914 144.716 244.069 144.673 244.218C144.673 244.218 133.714 246.049 131.472 244.218C130.84 243.683 130.104 243.287 129.31 243.054C128.516 242.821 127.682 242.756 126.862 242.865C126.862 242.865 122.617 242.98 121.913 241.582C121.618 240.992 121.692 239.857 121.874 238.734C123.508 238.898 126.087 239.305 127.099 240.277C128.63 241.755 131.225 243.23 132.817 243.346C134.063 243.426 141.518 243.663 144.722 243.759Z" fill="black"/>
<path opacity="0.1" d="M109.71 246.344C109.71 246.344 104.585 248.229 101.061 248.467C99.1901 248.592 98.2066 247.444 97.7037 246.334C99.0075 246.774 100.817 247.235 101.769 246.812C102.897 246.312 106.895 245.988 109.137 245.85C109.308 246.037 109.5 246.203 109.71 246.344Z" fill="black"/>
<path d="M117.316 94.3951C113.087 92.7501 107.647 87.3148 109.006 84.7751C109.307 84.1342 109.487 83.4425 109.534 82.7356C109.622 81.7761 109.634 80.8112 109.573 79.8496C109.477 78.2748 109.288 76.7072 109.006 75.155C109.006 75.155 122.207 75.4533 121.438 77.3997C121.214 77.9705 121.179 78.9614 121.24 80.0709C121.301 81.1804 121.461 82.4342 121.627 83.4956C121.858 84.9514 122.089 86.061 122.089 86.061C122.089 86.061 121.281 87.1929 120.807 87.2538C120.333 87.3148 123.383 96.7392 117.316 94.3951Z" fill="#CF6F80"/>
<path opacity="0.1" d="M106.51 238.154L106.411 238.263C102.464 233.485 97.6909 239.44 97.6909 239.44L97.6204 239.315L97.8639 236.608L105.35 234.662L106.411 237.907L106.51 238.154Z" fill="black"/>
<path opacity="0.1" d="M135.704 234.662C135.704 234.662 132.82 234.601 131.283 235.961C129.745 237.32 122.313 236.256 122.633 235.961C122.728 235.815 122.785 235.647 122.8 235.473L123.809 234.662L135.624 234.312C135.668 234.527 135.704 234.662 135.704 234.662Z" fill="black"/>
<path d="M111.421 197.141C111.206 197.672 111.043 198.223 110.934 198.786C110.667 200.327 110.593 201.895 110.713 203.455C110.832 205.699 110.713 220.742 110.713 220.742C110.713 220.742 108.179 224.753 106.766 226.167C105.354 227.582 109.65 230.121 109.65 230.121C110.29 233.777 106.408 237.907 106.408 237.907C102.461 233.129 97.6877 239.087 97.6877 239.087C97.6877 239.087 95.0928 234.598 94.4457 232.995C93.7986 231.391 96.9797 230.282 98.0977 229.631C99.2157 228.98 98.0432 225.141 98.0432 225.141C98.0432 225.141 97.0982 221.778 95.977 218.709C94.8558 215.64 97.2135 200.363 97.2135 200.363C97.2135 200.363 97.3353 197.65 97.6268 196.704C97.7739 196.022 97.8031 195.319 97.7133 194.627C97.6941 194.392 97.6716 194.197 97.6556 194.065C97.6396 193.934 97.6268 193.873 97.6268 193.873L97.6716 193.796L99.2734 190.807C99.2734 190.807 112.19 195.258 111.421 197.141Z" fill="#6C63FF"/>
<path d="M135.704 234.309C135.704 234.309 132.82 234.248 131.283 235.592C129.745 236.935 122.313 235.887 122.633 235.592C122.954 235.297 122.928 233.113 122.928 233.113C118.568 227.155 122.287 224.737 122.287 224.737C122.287 224.737 120.34 215.358 119.987 211.878C119.741 209.448 119.436 202.916 119.273 199.186C119.202 197.583 119.161 196.48 119.161 196.48L122.723 195.762L123.181 195.669L131.773 193.943C131.773 193.943 132.01 195.547 132.17 196.858C132.25 197.418 132.295 197.983 132.305 198.548C132.247 199.189 132.305 201.197 132.305 201.197L132.596 207.216C132.406 207.847 132.308 208.503 132.305 209.162C132.362 209.929 133.48 220.902 133.48 220.902C133.48 220.902 135.425 227.45 134.762 227.921C134.099 228.393 135.704 234.309 135.704 234.309Z" fill="#6C63FF"/>
<path opacity="0.1" d="M121.438 77.3997C121.214 77.9705 121.179 78.9614 121.24 80.0709C119.472 81.1368 117.439 81.6817 115.375 81.6432C113.311 81.6046 111.3 80.984 109.573 79.8528C109.478 78.277 109.288 76.7082 109.006 75.155C109.006 75.155 122.207 75.4468 121.438 77.3997Z" fill="black"/>
<path d="M126.542 70.3129C126.544 71.4685 126.362 72.617 126.003 73.7152C125.201 76.1759 123.555 78.2734 121.357 79.6369C119.159 81.0005 116.55 81.5423 113.991 81.1666C111.433 80.7909 109.089 79.5219 107.375 77.5839C105.661 75.6459 104.686 73.1637 104.623 70.5759C104.623 70.4861 104.623 70.4027 104.623 70.3129C104.598 68.8563 104.863 67.4094 105.403 66.0564C105.943 64.7034 106.746 63.4716 107.766 62.4327C108.787 61.3938 110.003 60.5687 111.346 60.0054C112.688 59.4422 114.129 59.1521 115.584 59.1521C117.039 59.1521 118.48 59.4422 119.822 60.0054C121.165 60.5687 122.381 61.3938 123.402 62.4327C124.422 63.4716 125.225 64.7034 125.765 66.0564C126.305 67.4094 126.57 68.8563 126.545 70.3129H126.542Z" fill="#CF6F80"/>
<path opacity="0.1" d="M117.316 94.3951C113.087 92.7501 107.647 87.3147 109.006 84.775C109.307 84.1342 109.487 83.4425 109.534 82.7356L115.323 87.4975L118.904 90.4381L121.627 83.4988C121.858 84.9546 122.089 86.0641 122.089 86.0641C122.089 86.0641 121.281 87.1961 120.807 87.257C120.333 87.3179 123.383 96.7392 117.316 94.3951Z" fill="black"/>
<path d="M132.285 115.441L127.451 196.73L121.147 197.144L104.822 150.009L107.5 94.0489L108.064 82.2258L115.323 88.1935L118.908 91.134L121.711 83.9927L126.923 88.5398L132.285 115.441Z" fill="#6C63FF"/>
<path opacity="0.1" d="M111.421 197.141C111.206 197.672 111.043 198.223 110.934 198.786C106.347 198.077 101.891 196.683 97.7165 194.652L97.63 194.607L97.6588 194.091L97.6748 193.822L99.2766 190.833C99.2766 190.833 112.19 195.258 111.421 197.141Z" fill="black"/>
<path opacity="0.1" d="M122.797 198.798C121.624 198.998 120.441 199.133 119.254 199.202C119.183 197.599 119.142 196.496 119.142 196.496L122.704 195.778L122.797 198.798Z" fill="black"/>
<path opacity="0.1" d="M132.151 196.874C129.873 197.468 126.356 198.135 123.207 197.718L123.162 195.685L131.754 193.959C131.754 193.959 131.991 195.547 132.151 196.874Z" fill="black"/>
<path opacity="0.1" d="M123.149 198.09C110.015 200.334 97.9856 193.899 97.9856 193.899L98.1009 191.718C98.1009 191.718 98.3988 166.998 97.5723 165.103C96.7458 163.207 96.1019 153.597 96.5696 152.122C97.0373 150.647 94.8621 128.527 94.8621 128.527L94.5098 119.548L81.6125 114.318L87.3788 102.287C88.1576 100.6 88.8275 98.8647 89.3842 97.092C90.3869 93.9686 95.0415 90.8999 95.0415 90.8999C95.0415 90.8999 99.8148 87.8343 101.702 87.9497C103.588 88.0651 106.062 85.2368 106.062 85.2368C107.888 80.5775 109.541 82.6875 109.541 82.6875C109.541 82.9088 109.541 82.6875 109.451 83.377C108.81 88.4916 119.811 104.653 119.968 104.939L121.016 130.483L122.076 162.81L123.149 198.09Z" fill="black"/>
<path d="M122.797 198.09C109.662 200.334 97.63 193.899 97.63 193.899L97.7485 191.718C97.7485 191.718 98.0464 166.998 97.2167 165.103C96.387 163.207 95.7463 153.597 96.2172 152.122C96.6881 150.647 94.5098 128.527 94.5098 128.527L94.1542 119.548L81.2505 114.299L87.0168 102.268C87.7939 100.58 88.4637 98.8449 89.0222 97.0727C90.0216 93.9494 94.6795 90.8806 94.6795 90.8806C94.6795 90.8806 99.4528 87.815 101.336 87.9304C103.22 88.0459 105.696 85.2176 105.696 85.2176C107.526 80.5582 109.541 82.6682 109.541 82.6682C109.541 82.8895 109.348 82.9889 109.451 83.3577C110.86 88.3184 119.459 104.634 119.616 104.919L120.676 130.464L121.736 162.79L122.797 198.09Z" fill="white"/>
<path opacity="0.1" d="M119.257 105.648C117.844 105.057 110.361 96.5053 110.361 96.5053V94.5588C110.088 93.9175 108.471 94.3087 107.157 94.7576L107.721 82.9346L108.362 83.4669C109.765 88.4244 119.093 105.362 119.257 105.648Z" fill="black"/>
<path d="M119.612 104.939C118.196 104.349 110.713 95.7965 110.713 95.7965V93.8501C110.441 93.2087 108.823 93.5999 107.51 94.0489L108.077 82.2258L108.717 82.7581C110.124 87.7157 119.455 104.657 119.612 104.939Z" fill="white"/>
<path opacity="0.1" d="M97.9856 147.591C98.1618 147.591 107.119 146.648 107.119 146.648C107.119 146.648 112.542 157.323 112.187 159.92C111.831 162.518 111.187 164.817 109.006 164.41C106.824 164.003 97.2648 164.73 97.2648 164.73L97.9856 147.591Z" fill="black"/>
<path d="M97.63 146.882C97.8062 146.882 106.763 145.939 106.763 145.939C106.763 145.939 112.184 156.618 111.831 159.212C111.479 161.806 110.828 164.109 108.65 163.701C106.472 163.294 96.9092 164.022 96.9092 164.022L97.63 146.882Z" fill="white"/>
<path d="M104.38 141.87C104.38 141.87 112.6 146.292 112.776 147.642C112.952 148.992 108.592 147.052 107.651 146.818C107.031 146.669 106.4 146.57 105.764 146.523L99.4817 146.693L104.38 141.87Z" fill="#CF6F80"/>
<path opacity="0.1" d="M116.963 106.199C117.441 106.199 117.828 105.811 117.828 105.333C117.828 104.855 117.441 104.467 116.963 104.467C116.485 104.467 116.098 104.855 116.098 105.333C116.098 105.811 116.485 106.199 116.963 106.199Z" fill="black"/>
<path d="M116.963 105.846C117.441 105.846 117.828 105.459 117.828 104.981C117.828 104.502 117.441 104.115 116.963 104.115C116.485 104.115 116.098 104.502 116.098 104.981C116.098 105.459 116.485 105.846 116.963 105.846Z" fill="#3F3D56"/>
<path opacity="0.1" d="M118.555 143.679C119.033 143.679 119.42 143.291 119.42 142.813C119.42 142.335 119.033 141.947 118.555 141.947C118.078 141.947 117.69 142.335 117.69 142.813C117.69 143.291 118.078 143.679 118.555 143.679Z" fill="black"/>
<path d="M118.555 143.323C119.033 143.323 119.42 142.935 119.42 142.457C119.42 141.979 119.033 141.591 118.555 141.591C118.078 141.591 117.69 141.979 117.69 142.457C117.69 142.935 118.078 143.323 118.555 143.323Z" fill="#3F3D56"/>
<path opacity="0.1" d="M117.825 124.939C118.303 124.939 118.69 124.551 118.69 124.073C118.69 123.595 118.303 123.207 117.825 123.207C117.347 123.207 116.96 123.595 116.96 124.073C116.96 124.551 117.347 124.939 117.825 124.939Z" fill="black"/>
<path d="M117.825 124.586C118.303 124.586 118.69 124.198 118.69 123.72C118.69 123.242 118.303 122.854 117.825 122.854C117.347 122.854 116.96 123.242 116.96 123.72C116.96 124.198 117.347 124.586 117.825 124.586Z" fill="#3F3D56"/>
<path d="M137.764 146.343C137.764 146.343 138.353 147.228 137.764 147.642C137.174 148.056 137.821 149.056 137.821 149.056C137.821 149.056 136.351 149.919 136.998 150.695C137.645 151.471 137.235 154.976 137.235 154.976L135.467 157.907C135.467 157.907 135.572 159.795 135.579 162.348C135.579 166.331 135.345 171.93 134.051 174.482L134.23 195.425C134.23 195.425 128.038 197.689 122.854 196.999L122.086 163.393C122.086 163.393 123.207 144.336 123.62 140.68C123.862 138.783 123.96 136.869 123.915 134.956C123.915 134.956 123.739 129.236 123.146 126.581C123.146 126.581 122.505 115.078 122.441 111.894C122.412 110.371 122.492 105.926 122.582 101.7C122.681 97.0791 122.794 92.7212 122.794 92.7212L121.624 83.4603C121.624 83.4603 122.794 83.3417 123.146 83.8131C123.304 83.9607 123.475 84.0927 123.658 84.2075C125.677 85.5735 132.808 89.7743 132.808 89.7743C132.808 89.7743 136.754 91.3456 137.699 93.5967C138.644 95.8477 139.301 97.4447 139.759 98.086C140.217 98.7274 140.467 101.742 140.467 101.742C140.467 101.742 141.826 107.289 142.886 108.229C143.946 109.168 144.722 115.146 144.722 115.146L135.351 122.521C135.351 122.521 134.528 134.79 134.352 135.264C134.176 135.739 137.764 146.343 137.764 146.343Z" fill="white"/>
<path d="M138.119 146.343C138.119 146.343 138.705 147.229 138.119 147.642C137.533 148.056 138.174 149.056 138.174 149.056C138.174 149.056 136.713 149.929 137.353 150.705C137.994 151.481 137.591 154.986 137.591 154.986L135.822 157.916C135.822 157.916 135.928 159.805 135.938 162.358C135.938 166.34 135.704 171.939 134.409 174.492L134.586 195.435C134.586 195.435 128.384 197.699 123.207 197.009L122.441 163.403C122.441 163.403 123.562 144.346 123.976 140.69C124.218 138.792 124.315 136.879 124.267 134.966C124.267 134.966 124.091 129.245 123.502 126.59C123.502 126.59 122.861 115.088 122.794 111.904C122.765 110.381 122.848 105.936 122.934 101.71C123.034 97.0888 123.146 92.7309 123.146 92.7309L121.602 83.345C121.602 83.345 123.146 83.345 123.502 83.8228C123.658 83.9721 123.83 84.1043 124.014 84.2172C126.032 85.5832 133.166 89.784 133.166 89.784C133.166 89.784 137.11 91.3553 138.055 93.6064C139 95.8575 139.657 97.4544 140.118 98.0957C140.579 98.7371 140.823 101.751 140.823 101.751C140.823 101.751 142.181 107.299 143.242 108.238C144.302 109.178 145.068 115.142 145.068 115.142L135.697 122.518C135.697 122.518 134.874 134.787 134.695 135.261C134.515 135.736 138.119 146.343 138.119 146.343Z" fill="white"/>
<path opacity="0.1" d="M126.897 95.4533L127.743 97.9224L123.29 102.412C123.389 97.7942 123.501 93.4331 123.501 93.4331L121.957 84.0471C121.957 84.0471 123.501 84.0471 123.857 84.5249C124.013 84.6738 124.185 84.805 124.37 84.9161L128.156 95.8509L126.897 95.4533Z" fill="black"/>
<path d="M126.542 94.7448L127.391 97.2139L122.938 101.703C123.037 97.0825 123.149 92.7246 123.149 92.7246L121.602 83.3386C121.602 83.3386 123.149 83.3386 123.501 83.8164C123.659 83.9649 123.83 84.097 124.014 84.2108L127.804 95.1424L126.542 94.7448Z" fill="white"/>
<path opacity="0.1" d="M126.542 70.313C126.544 71.4685 126.362 72.617 126.003 73.7153C125.943 73.7247 125.881 73.7219 125.822 73.707C125.762 73.6922 125.706 73.6655 125.657 73.6287C125.574 70.7427 124.155 68.033 122.409 65.7274C121.919 65.0313 121.325 64.4148 120.647 63.8996C119.962 63.3846 119.11 63.1434 118.257 63.223C117.296 63.3544 116.447 64.0086 115.477 64.092C114.195 64.1978 113.048 63.3096 111.777 63.2647C111.26 63.2696 110.75 63.3848 110.281 63.6027C109.812 63.8206 109.394 64.136 109.057 64.5281C108.389 65.3193 107.892 66.241 107.599 67.2345C107.096 68.7412 106.821 70.3151 106.786 71.9035C106.77 72.8013 106.683 73.9269 105.85 74.254C105.913 73.5936 105.838 72.9275 105.63 72.2977C105.422 71.6678 105.086 71.0881 104.642 70.5951L104.623 70.5759C104.623 70.4861 104.623 70.4027 104.623 70.313C104.598 68.8564 104.863 67.4094 105.403 66.0564C105.943 64.7035 106.746 63.4716 107.766 62.4327C108.787 61.3938 110.003 60.5687 111.346 60.0054C112.688 59.4422 114.129 59.1521 115.584 59.1521C117.039 59.1521 118.48 59.4422 119.822 60.0054C121.165 60.5687 122.381 61.3938 123.402 62.4327C124.422 63.4716 125.225 64.7035 125.765 66.0564C126.305 67.4094 126.57 68.8564 126.545 70.313H126.542Z" fill="black"/>
<path d="M120.122 52.8909C118.457 52.1071 116.564 51.9589 114.798 52.4741C113.91 52.737 113.074 53.1635 112.174 53.3784C110.252 53.8433 108.009 53.3399 106.36 54.4654C105.443 55.1068 104.892 56.1201 104.38 57.1045L103.098 59.548C102.4 60.8852 101.695 62.2448 101.404 63.7167C101.112 65.1886 101.288 66.8368 102.221 68.0201C102.9 68.8827 103.902 69.4246 104.639 70.2359C105.081 70.7294 105.416 71.3088 105.623 71.9378C105.83 72.5669 105.905 73.232 105.844 73.8915C106.68 73.5708 106.76 72.4421 106.779 71.5442C106.815 69.9559 107.089 68.3819 107.593 66.8753C107.885 65.8814 108.382 64.9596 109.05 64.1688C109.388 63.7771 109.806 63.4618 110.274 63.244C110.743 63.0262 111.253 62.9107 111.77 62.9054C113.052 62.9503 114.202 63.8354 115.47 63.7295C116.431 63.6494 117.283 62.992 118.251 62.8637C119.104 62.7829 119.956 63.0243 120.641 63.5403C121.318 64.0548 121.911 64.6714 122.399 65.3682C124.149 67.6738 125.568 70.377 125.651 73.2694C126.013 73.5356 126.535 73.1893 126.715 72.7788C126.894 72.3683 126.9 71.8873 127.128 71.4961C127.391 71.044 127.893 70.8035 128.288 70.4636C129.287 69.601 129.537 68.1483 129.498 66.8304C129.46 65.5125 129.204 64.1753 129.454 62.8798C129.604 62.0845 129.944 61.3406 130.13 60.5549C130.315 59.7693 130.338 58.8874 129.899 58.2108C129.258 57.2168 127.91 57.0212 126.734 56.9282C125.398 56.8127 124.203 56.9602 123.351 55.8347C122.951 55.2473 122.501 54.6958 122.005 54.1864C121.836 54.0197 120.122 52.9615 120.122 52.8909Z" fill="#512E4E"/>
<path opacity="0.1" d="M85.3029 120.514L81.9552 114.318L80.8949 123.877C80.8949 123.877 81.4843 128.123 81.3658 128.774C81.2473 129.425 83.7812 135.261 83.7812 135.261C83.7812 135.261 92.152 150.185 95.5701 150.955L107.119 142.694L104.056 138.801C104.056 138.801 102.996 138.388 102.73 138.801C102.73 138.801 97.0437 129.008 96.4543 128.3C95.8649 127.591 95.9802 126.177 95.9802 126.177C95.9802 126.177 95.096 125.234 95.3907 124.349C95.6855 123.464 93.6833 120.395 93.6833 120.395L95.5093 118.686L85.3029 120.514Z" fill="black"/>
<path d="M82.1314 113.613L81.2472 114.318L80.1869 123.877C80.1869 123.877 80.7763 128.123 80.6578 128.774C80.5393 129.425 83.0765 135.261 83.0765 135.261C83.0765 135.261 91.444 150.185 94.8621 150.955L106.414 142.694L103.348 138.801C103.348 138.801 102.288 138.388 102.022 138.801C102.022 138.801 96.3358 129.008 95.7463 128.299C95.1569 127.591 95.2754 126.177 95.2754 126.177C95.2754 126.177 94.3912 125.234 94.686 124.349C94.9807 123.464 92.9753 120.395 92.9753 120.395L94.8013 118.686L82.1314 113.613Z" fill="white"/>
<path opacity="0.1" d="M136.998 151.06C137.639 151.84 137.235 155.338 137.235 155.338L135.467 158.269C135.467 158.269 135.572 160.161 135.579 162.71L132.606 163.64C132.337 163.724 132.052 163.743 131.775 163.694C131.498 163.646 131.236 163.531 131.012 163.361C130.788 163.191 130.608 162.969 130.487 162.715C130.365 162.46 130.307 162.181 130.315 161.899L130.828 145.349L137.763 148.005C137.174 148.415 137.821 149.422 137.821 149.422C137.821 149.422 136.351 150.281 136.998 151.06Z" fill="black"/>
<path d="M137.353 150.704C137.994 151.484 137.591 154.985 137.591 154.985L135.822 157.916C135.822 157.916 135.928 159.805 135.938 162.358L132.91 163.304C132.647 163.385 132.368 163.403 132.097 163.355C131.825 163.307 131.569 163.195 131.35 163.029C131.131 162.862 130.954 162.645 130.836 162.396C130.717 162.147 130.659 161.873 130.668 161.598L131.183 144.997L138.122 147.652C137.53 148.062 138.177 149.066 138.177 149.066C138.177 149.066 136.713 149.928 137.353 150.704Z" fill="white"/>
<path d="M139.65 142.816C139.65 142.816 139.179 145.827 138.001 146.003C136.822 146.18 136.293 150.874 135.117 150.708C133.942 150.541 134.72 146.343 134.762 145.529C134.803 144.714 133.48 141.341 134.47 140.575C135.46 139.808 138.593 140.575 138.593 140.575L139.65 142.816Z" fill="#CF6F80"/>
<path opacity="0.1" d="M142.159 119.629L144.382 115.139C144.382 115.139 145.266 118.561 145.266 120.388C145.266 122.216 146.503 122.396 146.503 122.396C146.503 122.396 147.858 123.999 147.143 125.166C146.429 126.334 146.141 129.239 146.141 129.239C146.141 129.239 146.375 134.783 145.314 135.55C144.254 136.316 144.033 138.147 144.033 138.147C144.033 138.147 142.085 141.626 142.146 142.454C142.207 143.281 139.436 148.883 139.436 148.883C139.436 148.883 140.791 141.921 132.894 138.914C132.894 138.914 132.833 136.55 133.423 135.902C134.012 135.255 134.932 134.96 134.355 131.686C133.778 128.412 134.188 124.499 134.188 123.714C134.188 122.928 135.957 118.028 135.957 118.028L142.159 119.629Z" fill="black"/>
<path d="M143.12 114.498L145.061 115.139C145.061 115.139 145.948 118.561 145.948 120.388C145.948 122.216 147.185 122.396 147.185 122.396C147.185 122.396 148.54 123.999 147.826 125.166C147.111 126.334 146.826 129.239 146.826 129.239C146.826 129.239 147.06 134.783 146 135.55C144.939 136.316 144.702 138.147 144.702 138.147C144.702 138.147 142.758 141.626 142.819 142.454C142.879 143.281 140.105 148.883 140.105 148.883C140.105 148.883 141.464 141.921 133.564 138.913C133.564 138.913 133.506 136.55 134.095 135.902C134.685 135.255 135.604 134.96 135.028 131.686C134.451 128.412 134.861 124.499 134.861 123.714C134.861 122.928 136.629 118.028 136.629 118.028L143.12 114.498Z" fill="white"/>
<path opacity="0.1" d="M100.241 230.859C100.241 230.859 103.335 228.912 105.366 230.327C107.397 231.741 100.241 230.859 100.241 230.859Z" fill="black"/>
<path opacity="0.1" d="M124.286 224.84C124.286 224.84 127.025 224.487 129.325 226.966C131.626 229.445 124.286 224.84 124.286 224.84Z" fill="black"/>
<g opacity="0.1">
<path opacity="0.1" d="M128.294 69.7615C127.9 70.1014 127.394 70.3452 127.131 70.7973C126.907 71.1853 126.9 71.6631 126.721 72.08C126.542 72.4968 126.019 72.8368 125.657 72.5738C125.574 69.6878 124.152 66.9781 122.406 64.6693C121.918 63.9726 121.324 63.3559 120.647 62.8415C119.962 62.3255 119.108 62.0842 118.254 62.1649C117.293 62.2964 116.447 62.9505 115.477 63.0307C114.195 63.1397 113.045 62.2515 111.773 62.2066C111.257 62.2117 110.747 62.3274 110.278 62.5459C109.81 62.7643 109.393 63.0805 109.057 63.4732C108.388 64.2628 107.892 65.1836 107.599 66.1765C107.096 67.6832 106.822 69.2571 106.786 70.8454C106.766 71.7401 106.683 72.856 105.857 73.1895C105.876 73.4264 105.876 73.6645 105.857 73.9014C106.689 73.5807 106.773 72.4519 106.792 71.5541C106.828 69.9657 107.102 68.3918 107.606 66.8851C107.898 65.8913 108.395 64.9695 109.063 64.1787C109.4 63.7871 109.817 63.4718 110.286 63.2539C110.754 63.0361 111.263 62.9206 111.78 62.9153C113.061 62.9602 114.215 63.8452 115.483 63.7394C116.444 63.6592 117.296 63.0019 118.261 62.8736C119.115 62.7929 119.968 63.0342 120.654 63.5502C121.331 64.0646 121.924 64.6812 122.412 65.378C124.158 67.6836 125.581 70.3868 125.664 73.2793C126.026 73.5454 126.548 73.1991 126.727 72.7886C126.907 72.3782 126.913 71.8972 127.137 71.506C127.4 71.0538 127.906 70.8133 128.3 70.4734C129.3 69.6108 129.55 68.1582 129.511 66.8403C129.511 66.7986 129.511 66.7569 129.511 66.7184C129.45 67.86 129.146 69.024 128.294 69.7615Z" fill="black"/>
<path opacity="0.1" d="M104.646 69.534C103.909 68.7227 102.903 68.1807 102.227 67.3213C101.658 66.5606 101.333 65.6448 101.295 64.6951C101.194 65.8818 101.525 67.0651 102.227 68.0268C102.903 68.8894 103.909 69.4313 104.646 70.2426C105.353 71.0362 105.778 72.0421 105.853 73.103C105.902 72.4573 105.821 71.8084 105.613 71.1952C105.406 70.5819 105.077 70.0169 104.646 69.534Z" fill="black"/>
<path opacity="0.1" d="M130.136 59.8529C129.947 60.6386 129.611 61.3857 129.457 62.1778C129.366 62.707 129.332 63.2447 129.357 63.7811C129.368 63.4755 129.401 63.1711 129.457 62.8704C129.611 62.0752 129.947 61.3312 130.136 60.5456C130.246 60.1123 130.282 59.6633 130.242 59.218C130.222 59.4319 130.186 59.6441 130.136 59.8529Z" fill="black"/>
</g>
<path opacity="0.1" d="M42.5201 243.897C59.7596 243.897 73.7351 241.65 73.7351 238.879C73.7351 236.107 59.7596 233.86 42.5201 233.86C25.2806 233.86 11.3052 236.107 11.3052 238.879C11.3052 241.65 25.2806 243.897 42.5201 243.897Z" fill="#6C63FF"/>
<path d="M43.526 142.742H41.5174V188.011H43.526V142.742Z" fill="#3F3D56"/>
<path d="M56.1478 187.873L56.0229 189.913L55.8435 192.799L55.7698 193.998L55.5936 196.884L55.5167 198.083L55.3373 200.969L53.3127 233.7C53.2247 235.108 52.6039 236.43 51.5767 237.396C50.5495 238.363 49.1931 238.901 47.7834 238.901H37.2567C35.8475 238.901 34.4914 238.362 33.4647 237.396C32.438 236.43 31.8179 235.108 31.7307 233.7L29.7157 200.947L29.5363 198.061L29.4626 196.862L29.2832 193.976L29.2095 192.776L29.0301 189.89L28.902 187.851C28.8797 187.458 28.9378 187.065 29.0727 186.696C29.2076 186.327 29.4165 185.989 29.6864 185.704C29.9564 185.418 30.2818 185.191 30.6427 185.036C31.0036 184.88 31.3924 184.801 31.7852 184.801H53.3159C53.7072 184.805 54.0936 184.888 54.4514 185.047C54.8091 185.206 55.1306 185.436 55.396 185.724C55.6613 186.012 55.865 186.351 55.9943 186.721C56.1236 187.09 56.1758 187.483 56.1478 187.873Z" fill="#3F3D56"/>
<path d="M56.0229 189.913L55.8435 192.789H29.1967L29.0173 189.913H56.0229Z" fill="#9D9CB5"/>
<path d="M55.7698 193.988L55.5936 196.868H29.4498L29.2704 193.988H55.7698Z" fill="#9D9CB5"/>
<path d="M55.5167 198.071L55.3405 200.947H29.7029L29.5235 198.071H55.5167Z" fill="#9D9CB5"/>
<path d="M25.9516 159.709C37.6476 168.181 42.5297 181.431 42.5297 181.431C42.5297 181.431 28.4343 180.947 16.7351 172.475C5.03591 164.003 0.163376 150.756 0.163376 150.756C0.163376 150.756 14.2524 151.237 25.9516 159.709Z" fill="#13F1FC"/>
<path d="M0.153778 150.756C0.153778 150.756 14.7874 158.885 19.4805 165.616C24.1736 172.346 42.5297 181.431 42.5297 181.431" stroke="#3F3D56" stroke-width="2" stroke-miterlimit="10"/>
<path d="M33.5022 142.643C39.8676 147.251 42.5297 154.463 42.5297 154.463C42.5297 154.463 34.8573 154.2 28.4888 149.592C22.1202 144.984 19.4645 137.769 19.4645 137.769C19.4645 137.769 27.1337 138.032 33.5022 142.643Z" fill="#13F1FC"/>
<path d="M19.4645 137.769C19.4645 137.769 27.4284 142.194 29.9816 145.856C32.5348 149.518 42.5297 154.463 42.5297 154.463" stroke="#3F3D56" stroke-width="2" stroke-miterlimit="10"/>
<path d="M51.7718 154.097C44.4582 162.143 42.9109 172.658 42.9109 172.658C42.9109 172.658 53.223 170.124 60.5302 162.075C67.8374 154.027 69.3911 143.515 69.3911 143.515C69.3911 143.515 59.0854 146.052 51.7718 154.097Z" fill="#13F1FC"/>
<path d="M69.3975 143.518C69.3975 143.518 59.8703 151.766 57.4484 157.448C55.0266 163.13 42.9109 172.657 42.9109 172.657" stroke="#3F3D56" stroke-width="2" stroke-miterlimit="10"/>
<path d="M320.245 151.266C320.245 151.266 314.956 124.926 316.98 121.649C316.98 121.649 317.054 118.602 316.932 114.719C316.932 114.572 316.932 114.424 316.932 114.273C317.288 114.511 317.66 114.725 318.044 114.915C319.909 115.874 322.051 116.151 324.099 115.697L322.497 113.911C322.112 113.485 321.712 113.023 321.629 112.458C321.545 111.894 321.776 111.391 321.975 110.887C323.496 107.039 323.576 102.2 320.645 99.2629C318.169 96.7937 317.567 93.6063 314.879 91.352C312.915 89.7006 311.836 87.2795 310.817 84.9386C309.955 82.9601 309.087 80.9655 308.594 78.8684C308.209 77.2298 308.055 75.5334 307.527 73.9333C306.998 72.3332 306.008 70.7779 304.461 70.0628C303.91 69.8095 303.298 69.6652 302.795 69.3285C302.135 68.8828 301.738 68.1581 301.261 67.5231C298.836 64.3165 290.715 66.2052 286.871 67.5071C285.825 67.835 284.858 68.3717 284.026 69.0848L284.061 69.0271C284.09 68.979 284.125 68.9309 284.157 68.8828C283.736 69.2234 283.373 69.6294 283.081 70.0853C282.52 70.9735 282.286 72.0093 281.819 72.9713C281.255 74.1097 278.119 77.2875 279.467 78.567C279.562 78.6529 279.67 78.7223 279.788 78.7722C280.294 78.9831 280.851 79.0389 281.389 78.9325L281.332 79.0704C280.871 80.1993 280.635 81.4072 280.637 82.6266C280.637 87.8952 284.977 92.1665 290.337 92.1665C291.344 92.1675 292.346 92.0128 293.306 91.7079C293.329 91.8298 293.348 91.9517 293.371 92.0735C293.371 92.1216 293.387 92.1697 293.393 92.2178L293.223 92.4551C293.215 92.4405 293.205 92.4265 293.194 92.4134L288.165 99.4489C287.396 99.9908 282.969 103.197 282.719 105.603C282.456 108.235 282.193 111.317 282.193 111.317L282.158 111.977C281.938 112.161 281.681 112.295 281.405 112.37C281.128 112.445 280.839 112.458 280.556 112.41C278.987 112.154 278.987 118.182 278.987 118.182C278.987 118.182 277.942 119.144 277.225 118.311C276.507 117.477 274.611 120.302 274.611 120.302L262.726 120.815L262.453 120.831L261.813 118.846C261.744 118.637 261.595 118.463 261.399 118.363C261.203 118.263 260.975 118.244 260.765 118.311C260.716 118.327 260.667 118.347 260.621 118.372L260.576 118.397L260.493 118.455L260.451 118.493C260.428 118.514 260.407 118.537 260.387 118.561L260.349 118.606L260.33 118.625C260.256 118.727 260.207 118.846 260.187 118.97C260.167 119.095 260.176 119.223 260.214 119.343L260.765 121.046C258.472 121.508 256.127 122.81 258.039 126.395L248.345 124.602L251.481 127.238L267.672 130.583C267.457 130.967 267.598 131.525 268.268 132.311C271.151 135.7 276.405 136.621 278.519 136.858C279.077 138.108 279.775 139.292 280.598 140.385L280.416 143.762C280.416 143.762 275.062 169.499 274.082 170.804C274.577 170.243 275.03 169.646 275.437 169.018C273.884 174.306 271.712 181.543 271.141 182.627C270.225 184.359 269.376 191.365 270.421 191.814C270.741 191.952 271.657 191.885 272.964 191.785V192.366L272.907 214.36C272.907 214.36 273.169 227.851 272.448 229.137C271.728 230.423 271.535 233.119 271.535 233.119C271.535 233.119 268.652 238.439 266.368 240.578C266.353 240.595 266.335 240.61 266.317 240.623L266.246 240.123C266.246 240.123 263.501 243.593 257.427 243.397C257.427 243.397 253.772 245.776 259.192 245.905C264.613 246.033 271.535 245.712 271.535 245.712C271.535 245.712 276.37 238.337 280.419 239.299V244.888H281.658V239.209C282.233 238.83 282.726 238.338 283.105 237.763C283.484 237.188 283.743 236.542 283.866 235.864C283.972 235.166 283.894 234.451 283.64 233.791C283.386 233.132 282.965 232.55 282.418 232.103C282.172 231.881 281.975 231.61 281.839 231.307C281.702 231.005 281.63 230.677 281.626 230.346L281.582 230.384C281.582 230.272 281.553 230.157 281.54 230.038C281.184 227.152 280.739 221.197 282.312 216.791C284.468 210.75 285.121 202.335 283.552 197.326C283.045 195.725 282.629 194.097 282.306 192.449C282.267 192.241 282.232 192.042 282.2 191.856C283.273 192.001 284.335 192.215 285.381 192.497C289.017 193.501 296.971 193.687 303.763 193.632C303.779 193.818 303.798 194.014 303.82 194.21C303.941 195.569 304.195 196.914 304.576 198.224C305.428 200.79 305.819 212.1 305.819 212.1C305.819 212.1 306.918 221.399 306.319 225.183C305.999 227.287 305.678 229.4 305.496 231.523V231.564C305.496 231.564 303.695 236.695 302.379 239.482C302.347 239.552 302.311 239.623 302.279 239.69C301.928 239.722 301.583 239.799 301.251 239.918C301.251 239.918 299.486 243.445 297.727 244.029C295.969 244.612 296.552 246.533 300.534 245.828C304.515 245.122 310.528 244.545 310.528 244.545L310.788 240.947L312.012 239.414L311.691 243.003L312.995 242.746L312.822 238.382L314.824 235.874C314.824 235.874 317.243 233.719 313.649 229.48V229.573C313.61 229.512 313.575 229.448 313.533 229.387V229.368C312.938 228.444 312.463 226.722 313.332 223.666C314.901 218.144 315.814 213.132 315.814 213.132C315.814 213.132 319.319 199.706 315.106 193.353H315.292C314.86 192.46 314.555 191.51 314.385 190.532C314.364 190.416 314.345 190.297 314.328 190.176C317.445 189.996 320.504 189.432 323 188.213C322.99 188.2 321.488 156.339 320.245 151.266ZM280.672 129.043V129.107L280.031 129.14L280.672 129.043ZM278.474 129.348C278.369 129.371 278.27 129.419 278.186 129.486C277.91 129.876 277.737 130.329 277.683 130.804L276.683 130.579C276.683 130.579 275.982 130.429 274.973 130.259L274.495 129.778C275.809 129.669 277.174 129.508 278.474 129.348Z" fill="url(#paint1_linear)"/>
<path d="M311.544 238.427L311.163 242.971L312.441 242.714L312.249 237.785L311.544 238.427Z" fill="#1D2366"/>
<path d="M282.382 216.852C280.842 221.245 281.277 227.174 281.623 230.054C281.751 231.119 281.87 231.766 281.87 231.766C281.87 231.766 279.567 237.019 279.374 237.218C279.182 237.416 272.596 241.441 272.596 241.441L267.992 244.131C267.992 244.131 263.322 242.082 265.561 241.377C266.018 241.193 266.43 240.912 266.769 240.553C269.011 238.42 271.827 233.119 271.827 233.119C271.827 233.119 272.019 230.429 272.724 229.15C273.429 227.87 273.172 214.425 273.172 214.425L273.227 192.507V189.65L281.988 189.714C282.044 190.684 282.17 191.648 282.366 192.6C282.681 194.242 283.088 195.865 283.587 197.461C285.131 202.46 284.49 210.833 282.382 216.852Z" fill="#FFB0B1"/>
<path opacity="0.1" d="M281.87 231.766C281.87 231.766 279.567 237.019 279.374 237.218C279.182 237.416 272.596 241.441 272.596 241.441L267.992 244.131C267.992 244.131 263.322 242.082 265.561 241.377C266.018 241.193 266.43 240.912 266.769 240.553L266.967 241.954L268.502 241.89L281.636 230.06C281.751 231.119 281.87 231.766 281.87 231.766Z" fill="black"/>
<path d="M281.71 230.359L268.502 242.268L266.967 242.332L266.647 240.088C266.647 240.088 263.962 243.545 257.997 243.352C257.997 243.352 254.416 245.722 259.724 245.85C265.032 245.978 271.811 245.658 271.811 245.658C271.811 245.658 276.546 238.282 280.508 239.244V244.814H281.726V239.193C282.292 238.812 282.775 238.32 283.146 237.746C283.517 237.173 283.768 236.531 283.885 235.858C283.99 235.165 283.916 234.456 283.668 233.8C283.421 233.144 283.009 232.563 282.472 232.113C282.232 231.888 282.041 231.616 281.91 231.314C281.779 231.013 281.711 230.688 281.71 230.359Z" fill="#1D2366"/>
<path d="M312.761 223.701C311.909 226.748 312.374 228.463 312.957 229.384V229.403C313.704 230.539 314.225 231.81 314.488 233.145L314.539 233.434L308.529 242.204L305.268 243.487C305.268 243.487 300.024 241.694 300.982 241.181C301.222 241.056 301.597 240.389 302.026 239.469C303.308 236.695 305.076 231.577 305.076 231.577V231.535C305.262 229.422 305.557 227.315 305.883 225.218C306.47 221.444 305.393 212.18 305.393 212.18C305.393 212.18 305.009 200.915 304.176 198.353C303.8 197.05 303.55 195.714 303.429 194.364C303.256 192.76 303.218 191.439 303.218 191.439C303.218 191.439 306.671 186.629 313.002 191.824C313.508 192.238 313.953 192.722 314.325 193.26C318.697 199.488 315.177 213.206 315.177 213.206C315.177 213.206 314.296 218.196 312.761 223.701Z" fill="#FFB0B1"/>
<path opacity="0.1" d="M314.549 233.434L308.539 242.204L305.278 243.487C305.278 243.487 300.034 241.694 300.992 241.181C301.232 241.056 301.607 240.389 302.036 239.469C304.256 239.45 305.406 241.566 305.406 241.566L308.219 241.117C308.219 241.117 311.928 233.819 312.761 233.373C313.594 232.927 312.889 230.041 312.889 230.041V229.307C312.912 229.333 312.931 229.361 312.957 229.387V229.406C313.704 230.543 314.225 231.814 314.488 233.149L314.549 233.434Z" fill="black"/>
<path d="M305.598 241.755C305.598 241.755 303.996 238.812 300.928 239.899C300.928 239.899 299.201 243.426 297.474 243.997C295.747 244.568 296.324 246.492 300.226 245.789C304.128 245.087 310.01 244.507 310.01 244.507L310.266 240.918L314.232 235.861C314.232 235.861 316.596 233.716 313.078 229.493V230.227C313.078 230.227 313.783 233.113 312.95 233.559C312.117 234.005 308.421 241.306 308.421 241.306L305.598 241.755Z" fill="#1D2366"/>
<path opacity="0.1" d="M281.998 189.707C282.053 190.677 282.18 191.642 282.376 192.593C278.769 192.064 275.421 192.327 273.227 192.5V189.643L281.998 189.707Z" fill="black"/>
<path opacity="0.1" d="M314.68 194.059C314.68 194.059 309.555 194.309 303.442 194.36C303.269 192.757 303.231 191.436 303.231 191.436C303.231 191.436 306.684 186.626 313.014 191.821C313.521 192.235 313.966 192.719 314.337 193.257C314.437 193.531 314.551 193.798 314.68 194.059Z" fill="black"/>
<path d="M314.68 193.482C314.68 193.482 292.23 194.569 285.387 192.648C278.545 190.727 271.763 192.392 270.741 191.946C269.719 191.5 270.549 184.519 271.446 182.791C272.343 181.062 277.263 163.583 277.263 163.583L281.998 138.872L286.986 137.496L287.338 137.397L296.029 134.998L302.398 133.238C302.398 133.238 315.061 182.727 313.975 186.376C313.581 187.773 313.517 189.243 313.79 190.67C313.955 191.644 314.255 192.59 314.68 193.482Z" fill="#1D2366"/>
<path d="M265.494 121.973C265.494 121.973 261.009 126.783 264.404 129.463C267.8 132.144 270.033 129.72 270.033 129.72L265.494 121.973Z" fill="#C7DAF5"/>
<path opacity="0.1" d="M265.494 121.973C265.494 121.973 261.009 126.783 264.404 129.463C267.8 132.144 270.033 129.72 270.033 129.72L265.494 121.973Z" fill="black"/>
<path d="M301.728 90.3482C301.728 90.3482 301.203 90.8485 300.412 91.586C299.284 92.641 297.615 94.1834 296.135 95.4757C294.085 97.2619 292.393 98.5734 292.999 97.4543C293.604 96.3351 293.489 94.3855 293.188 92.5609C293.165 92.439 293.146 92.3171 293.124 92.1985C292.874 90.8585 292.544 89.5349 292.134 88.235C292.134 88.235 295.446 83.9509 297.279 82.261C297.961 81.6196 298.438 81.3567 298.467 81.8024C298.499 82.4021 298.948 83.7264 299.505 85.131C299.521 85.1759 299.537 85.2175 299.556 85.2624C299.928 86.2244 300.348 87.2121 300.716 88.0651C301.28 89.3734 301.728 90.3482 301.728 90.3482Z" fill="#FFB0B1"/>
<path opacity="0.1" d="M299.556 85.2626C299.245 86.9385 298.49 88.5 297.37 89.7839C296.249 91.0677 294.805 92.0269 293.188 92.561C292.933 91.0972 292.581 89.652 292.134 88.2352C292.134 88.2352 298.371 80.1704 298.467 81.8026C298.49 82.4215 298.977 83.7939 299.556 85.2626Z" fill="black"/>
<path opacity="0.1" d="M292.566 94.7158L293.374 93.5774C293.374 93.5774 293.909 96.8418 295.876 95.402C297.843 93.9622 297.939 106.237 297.939 106.237L295.828 137.833L280.572 136.919L281.005 121.652L282.732 113.956L287.002 102.768L289.542 99.0704L292.566 94.7158Z" fill="black"/>
<path d="M297.939 106.433L296.017 135.001L295.815 138.029L287.309 137.519L286.989 137.499L280.582 137.115L281.015 121.844L282.741 114.148L287.012 102.96L289.552 99.2629L292.576 94.8922L293.383 93.7571C293.383 93.7571 293.918 97.0215 295.885 95.5817L295.927 95.5528C297.849 94.3343 297.939 106.433 297.939 106.433Z" fill="#1D2366"/>
<path d="M282.956 111.474C282.956 111.474 282.19 113.077 280.653 112.818C279.115 112.558 279.118 118.59 279.118 118.59C279.118 118.59 278.096 119.552 277.391 118.718C276.687 117.884 274.829 120.703 274.829 120.703L263.187 121.216C263.187 121.216 268.367 123.586 267.352 130.756C267.352 130.756 284.939 129.666 285.515 128.001C286.092 126.337 282.956 111.474 282.956 111.474Z" fill="white"/>
<path opacity="0.03" d="M282.956 111.474C282.956 111.474 282.19 113.077 280.653 112.818C279.115 112.558 279.118 118.59 279.118 118.59C279.118 118.59 278.096 119.552 277.391 118.718C276.687 117.884 274.829 120.703 274.829 120.703L263.187 121.216C263.187 121.216 268.367 123.586 267.352 130.756C267.352 130.756 284.939 129.666 285.515 128.001C286.092 126.337 282.956 111.474 282.956 111.474Z" fill="black"/>
<path d="M249.124 124.984L252.193 127.607L277.455 132.92L274.322 129.72L249.124 124.984Z" fill="white"/>
<path d="M292.614 95.7258C292.195 96.3671 290.993 99.6508 289.991 102.518C289.155 104.907 288.456 107.007 288.456 107.007C288.456 107.007 286.826 117.634 285.993 119.555C285.16 121.475 285.612 128.966 285.612 128.966L282.507 147.466C282.507 147.466 281.101 157.006 278.929 162.704C276.786 168.312 274.399 170.942 274.326 171.025C275.287 169.723 280.524 144.089 280.524 144.089L282.254 111.759C282.254 111.759 282.507 108.687 282.764 106.061C283.02 103.435 288.21 99.8496 288.21 99.8496L293.213 92.7275C293.716 93.4009 293.38 94.5746 292.614 95.7258Z" fill="white"/>
<path d="M279.567 137.275C279.567 137.275 272.199 136.954 268.63 132.664C265.061 128.373 276.879 130.951 276.879 130.951L279.951 131.657L279.567 137.275Z" fill="#FFB0B1"/>
<path opacity="0.1" d="M313.975 186.379C313.581 187.776 313.517 189.246 313.79 190.673C305.752 191.243 297.154 189.069 297.154 189.069C295.552 190.544 291.333 192.718 291.333 192.718L289.033 164.179C287.563 160.331 286.986 140.171 286.986 140.171C286.986 140.171 287.117 139.116 287.306 137.535C287.306 137.496 287.306 137.454 287.322 137.416C287.896 133 289.033 124.711 289.59 123.592C290.359 122.053 287.226 117.958 287.226 117.958L288.652 105.788L288.825 104.32C291.83 102.976 294.133 98.6856 294.133 98.6856L295.901 95.5848C297.823 94.3502 297.923 106.449 297.923 106.449L296.001 135.017L302.369 133.257C302.369 133.257 315.061 182.73 313.975 186.379Z" fill="black"/>
<path d="M322.224 188.351C313.463 192.706 297.538 188.672 297.538 188.672C295.937 190.147 291.717 192.321 291.717 192.321L289.414 163.781C287.947 159.933 287.37 139.773 287.37 139.773C287.37 139.773 289.222 124.73 289.991 123.194C290.215 122.745 290.106 122.078 289.84 121.36C288.533 117.941 288.052 114.261 288.437 110.621L289.052 105.391L289.222 103.925C292.23 102.579 294.533 98.2881 294.533 98.2881L296.135 95.479L299.082 90.3034L300.479 87.8535L300.716 88.0684L302.526 89.7102C302.526 89.7102 303.295 90.3515 304.448 91.3135C306.957 93.4299 311.291 97.1561 313.527 99.4361C315.494 101.443 316.115 109.252 316.295 115.13C316.413 119 316.343 122.034 316.343 122.034C314.36 125.301 319.546 151.535 319.546 151.535C320.754 156.605 322.224 188.351 322.224 188.351Z" fill="white"/>
<path opacity="0.03" d="M305.406 98.224C305.406 98.224 299.393 109.682 300.091 114.036C300.79 118.391 302.776 123.32 301.818 124.471C301.489 124.907 301.064 125.261 300.575 125.505C300.087 125.749 299.548 125.877 299.002 125.878C298.041 125.943 295.478 127.735 295.478 127.928C295.478 128.12 293.111 128.12 290.993 129.018C288.876 129.916 285.749 130.426 285.749 130.426C285.749 130.426 279.663 130.233 279.096 130.81C278.529 131.388 277.946 134.841 279.16 137.596C280.374 140.35 281.723 142.406 282.741 142.781C283.76 143.156 290.225 140.988 295.469 140.475C300.713 139.962 306.406 135.803 306.406 135.803C306.406 135.803 312.675 133.558 313.774 129.784C314.872 126.01 312.431 105.266 312.431 105.266C312.431 105.266 310.586 95.5977 305.406 98.224Z" fill="black"/>
<path opacity="0.03" d="M304.637 97.262C304.637 97.262 298.624 108.723 299.329 113.074C300.034 117.426 302.014 122.357 301.053 123.512C300.725 123.949 300.3 124.303 299.812 124.547C299.324 124.792 298.786 124.919 298.24 124.92C297.279 124.984 294.716 126.776 294.716 126.969C294.716 127.161 292.349 127.161 290.231 128.056C288.114 128.95 284.987 129.463 284.987 129.463C284.987 129.463 278.9 129.271 278.336 129.848C277.773 130.425 277.183 133.882 278.401 136.634C279.618 139.385 280.963 141.444 281.982 141.819C283.001 142.194 289.465 140.026 294.71 139.516C299.954 139.007 305.646 134.841 305.646 134.841C305.646 134.841 311.912 132.596 312.998 128.825C314.084 125.054 311.656 104.304 311.656 104.304C311.656 104.304 309.817 94.6389 304.637 97.262Z" fill="black"/>
<path d="M305.217 97.6468C305.217 97.6468 299.204 109.108 299.909 113.459C300.614 117.81 302.593 122.742 301.635 123.894C301.308 124.331 300.882 124.686 300.394 124.931C299.905 125.176 299.366 125.304 298.82 125.304C297.859 125.369 295.296 127.161 295.296 127.35C295.296 127.54 292.932 127.543 290.811 128.441C288.69 129.338 285.567 129.848 285.567 129.848C285.567 129.848 279.48 129.656 278.913 130.233C278.346 130.81 277.763 134.267 278.977 137.018C280.191 139.77 281.54 141.828 282.559 142.204C283.577 142.579 290.042 140.411 295.286 139.898C300.53 139.385 306.223 135.226 306.223 135.226C306.223 135.226 312.492 132.981 313.591 129.207C314.69 125.433 312.265 104.689 312.265 104.689C312.265 104.689 310.394 95.0366 305.217 97.6468Z" fill="white"/>
<path opacity="0.1" d="M305.086 128.386C305.086 128.386 300.28 127.424 301.953 129.027C303.625 130.631 303.615 132.035 305.662 131.971C307.709 131.907 305.086 128.386 305.086 128.386Z" fill="black"/>
<path opacity="0.1" d="M313.207 162.884C313.207 162.884 311.035 164.355 315.19 167.748C319.345 171.141 313.207 162.884 313.207 162.884Z" fill="black"/>
<path opacity="0.1" d="M309.061 174.982C309.061 175.175 308.292 182.037 311.169 183.753C314.046 185.468 309.061 174.982 309.061 174.982Z" fill="black"/>
<path d="M263.386 121.2C261.066 121.28 256.056 121.989 258.654 126.84C260.951 131.134 264.811 128.264 266.983 126.087C266.453 124.057 265.166 122.308 263.386 121.2Z" fill="#FFB0B1"/>
<path d="M267.012 126.048L267.109 125.949L267.012 126.048Z" fill="#FFB0B1"/>
<path opacity="0.1" d="M304.448 91.5091C301.988 93.1927 299.925 94.6132 299.521 94.9082C298.419 95.7259 296.318 100.526 294.963 102.976C293.883 104.948 290.375 105.455 289.052 105.58L289.222 104.115C292.23 102.768 294.533 98.4773 294.533 98.4773L300.479 88.0427L302.526 89.9058C302.526 89.9058 303.295 90.5471 304.448 91.5091Z" fill="black"/>
<path d="M304.448 91.3168C301.988 93.0003 299.925 94.4208 299.521 94.7191C298.419 95.5336 296.318 100.334 294.963 102.784C293.883 104.756 290.375 105.263 289.052 105.388L289.222 103.922C292.23 102.575 294.533 98.2849 294.533 98.2849L300.479 87.8503L302.526 89.707C302.526 89.707 303.295 90.3419 304.448 91.3168Z" fill="#DCE7FF"/>
<path d="M299.713 83.1461C299.715 85.071 299.132 86.9509 298.041 88.5365C296.753 90.4113 294.837 91.7618 292.639 92.3431C290.442 92.9244 288.109 92.6979 286.064 91.7048C284.019 90.7117 282.398 89.0177 281.494 86.9302C280.59 84.8427 280.464 82.5 281.138 80.3272C281.812 78.1544 283.242 76.2954 285.168 75.0876C287.094 73.8798 289.389 73.4032 291.636 73.7442C293.883 74.0852 295.934 75.2213 297.416 76.9463C298.898 78.6713 299.713 80.8709 299.713 83.1461Z" fill="#FFB0B1"/>
<path opacity="0.1" d="M316.295 115.133C314.994 114.332 313.934 113.192 313.229 111.836C312.694 110.778 312.338 109.556 311.425 108.806C310.602 108.133 309.503 107.969 308.478 107.668C305.108 106.67 302.283 103.592 302.177 100.077C302.126 98.4228 302.641 96.7713 302.408 95.1327C302.275 94.2053 301.906 93.3276 301.338 92.5834C301.055 92.2275 300.746 91.8941 300.412 91.5861C299.963 91.1629 299.492 90.7524 299.082 90.3035C298.824 90.0255 298.598 89.7189 298.41 89.3896C298.257 89.1201 298.134 88.8352 298.041 88.5398C297.4 86.5773 297.983 84.2492 297.279 82.2643L297.24 82.1553C296.974 81.4498 296.433 80.7443 295.68 80.6898C294.927 80.6353 294.283 81.2606 293.566 81.5396C292.063 82.1232 290.442 81.1291 289.19 80.1158C287.937 79.1025 286.525 77.9449 284.932 78.1694C283.878 78.3201 283.046 79.0384 282.075 79.4104C281.856 79.4953 281.63 79.5607 281.399 79.606C282.22 77.5553 283.73 75.8551 285.667 74.7973C287.605 73.7395 289.85 73.3902 292.018 73.8095C294.185 74.2288 296.138 75.3904 297.543 77.0948C298.947 78.7992 299.715 80.94 299.713 83.1493C299.714 83.8165 299.645 84.4819 299.505 85.1343C299.521 85.1792 299.537 85.2209 299.556 85.2658C299.928 86.2278 300.348 87.2154 300.716 88.0684L302.526 89.7102C302.526 89.7102 303.295 90.3516 304.448 91.3136C306.957 93.43 311.291 97.1561 313.527 99.4361C315.494 101.45 316.109 109.255 316.295 115.133Z" fill="black"/>
<path d="M281.963 73.5518C282.421 72.6186 282.648 71.5732 283.196 70.6882C284 69.4055 285.403 68.5846 286.845 68.0876C290.609 66.7889 298.563 64.9033 300.94 68.0876C301.408 68.7289 301.796 69.4408 302.443 69.8833C302.936 70.22 303.532 70.3643 304.073 70.6176C305.589 71.3295 306.556 72.8816 307.072 74.4657C307.588 76.0498 307.741 77.7493 308.119 79.3815C308.603 81.4755 309.452 83.4604 310.298 85.4325C311.294 87.7606 312.351 90.1752 314.273 91.8202C316.897 94.0649 317.477 97.2427 319.912 99.7055C322.795 102.63 322.702 107.456 321.215 111.288C321.02 111.791 320.799 112.317 320.876 112.853C320.953 113.388 321.35 113.876 321.725 114.302L323.301 116.082C319.572 116.983 315.353 115.033 313.617 111.612C313.082 110.554 312.726 109.335 311.81 108.582C310.99 107.908 309.888 107.748 308.866 107.446C305.496 106.446 302.67 103.364 302.565 99.8498C302.513 98.1983 303.029 96.5469 302.795 94.9115C302.665 93.9779 302.295 93.094 301.722 92.3461C300.841 91.1949 299.512 90.4221 298.794 89.1394C297.58 86.9942 298.502 84.2076 297.628 81.9052C297.359 81.1997 296.821 80.4942 296.068 80.4397C295.315 80.3852 294.671 81.0105 293.95 81.2895C292.451 81.8731 290.83 80.8822 289.578 79.8657C288.325 78.8492 286.912 77.6948 285.317 77.9225C284.263 78.07 283.433 78.7883 282.463 79.1635C281.745 79.4392 280.291 79.6861 279.663 79.0801C278.336 77.8583 281.409 74.6933 281.963 73.5518Z" fill="#591D4B"/>
<path opacity="0.1" d="M314.507 110.554C313.969 109.495 313.617 108.277 312.7 107.527C311.88 106.853 310.778 106.69 309.753 106.388C306.386 105.391 303.561 102.309 303.452 98.7947C303.401 97.1433 303.916 95.4886 303.686 93.8532C303.552 92.9256 303.182 92.0479 302.613 91.3039C301.728 90.1527 300.399 89.3799 299.685 88.0972C298.47 85.9552 299.393 83.1686 298.515 80.863C298.249 80.1607 297.708 79.4552 296.958 79.3975C296.209 79.3398 295.558 79.9715 294.841 80.2505C293.342 80.8341 291.718 79.84 290.468 78.8267C289.219 77.8134 287.8 76.6558 286.207 76.8803C285.154 77.031 284.321 77.7493 283.353 78.1212C282.636 78.397 281.178 78.6471 280.55 78.0411C279.23 76.7584 282.302 73.5998 282.853 72.4646C283.312 71.5283 283.539 70.4861 284.09 69.6011C284.119 69.553 284.151 69.5049 284.183 69.4568C283.771 69.7986 283.415 70.2033 283.129 70.6561C282.581 71.5411 282.354 72.5801 281.896 73.5197C281.341 74.6548 278.269 77.823 279.592 79.0961C280.233 79.7053 281.675 79.4552 282.392 79.1794C283.353 78.8043 284.192 78.086 285.246 77.9385C286.848 77.7108 288.258 78.8684 289.507 79.8817C290.756 80.895 292.39 81.8891 293.883 81.3055C294.601 81.0265 295.229 80.398 295.997 80.4557C296.766 80.5134 297.279 81.2157 297.557 81.9212C298.432 84.2236 297.509 87.0102 298.724 89.1554C299.441 90.4157 300.771 91.2045 301.652 92.3621C302.225 93.11 302.595 93.9939 302.725 94.9275C302.959 96.5629 302.443 98.2143 302.494 99.8658C302.6 103.393 305.425 106.462 308.795 107.462C309.811 107.764 310.919 107.924 311.739 108.598C312.659 109.351 313.021 110.57 313.546 111.628C315.282 115.049 319.501 116.999 323.23 116.098L322.487 115.258C319.255 115.306 315.984 113.465 314.507 110.554Z" fill="black"/>
<path opacity="0.1" d="M292.422 95.9185C292.003 96.5598 290.801 99.8435 289.799 102.71C288.86 102.345 288.008 100.013 288.008 100.013L293.012 92.8882C293.524 93.5937 293.188 94.7641 292.422 95.9185Z" fill="black"/>
<path d="M292.614 95.7258C292.195 96.3672 290.993 99.6508 289.991 102.518C289.052 102.155 288.2 99.8208 288.2 99.8208L293.204 92.6987C293.716 93.401 293.38 94.5746 292.614 95.7258Z" fill="#DCE7FF"/>
<path d="M263.52 128.485L260.746 119.728C260.713 119.625 260.701 119.517 260.71 119.41C260.719 119.303 260.749 119.198 260.798 119.103C260.848 119.007 260.915 118.922 260.998 118.853C261.08 118.784 261.175 118.731 261.278 118.699C261.484 118.634 261.708 118.654 261.9 118.754C262.092 118.853 262.237 119.025 262.303 119.231L265.077 127.979L264.802 129.81L263.52 128.485Z" fill="#BE8B87"/>
<path opacity="0.1" d="M261.009 118.959C261.216 118.893 261.44 118.912 261.633 119.012C261.825 119.112 261.971 119.284 262.037 119.491L264.811 128.239L264.603 129.611L264.805 129.823L265.08 127.992L262.29 119.244C262.224 119.038 262.079 118.866 261.887 118.767C261.695 118.667 261.471 118.647 261.265 118.712C261.091 118.768 260.941 118.881 260.839 119.032C260.893 119.003 260.95 118.978 261.009 118.959Z" fill="white"/>
<path d="M263.52 128.486L265.077 127.992L264.85 129.492L264.802 129.823L264.347 129.348L263.52 128.486Z" fill="#EFC8C4"/>
<path d="M264.347 129.348C264.374 129.314 264.408 129.285 264.446 129.265C264.469 129.25 264.495 129.243 264.521 129.243C264.548 129.243 264.574 129.25 264.597 129.265C264.618 129.291 264.637 129.32 264.651 129.351C264.672 129.387 264.701 129.417 264.735 129.44C264.77 129.462 264.809 129.477 264.85 129.483L264.802 129.803L264.347 129.348Z" fill="#727A9C"/>
<path d="M260.73 122.838C260.73 122.838 266.294 122.806 264.984 125.176C263.674 127.546 261.627 127.831 261.627 127.831L260.73 122.838Z" fill="#FFB0B1"/>
<path d="M226.123 16.4888H225.882C216.323 16.4888 207.869 21.5521 203.006 29.0237C198.143 21.5521 189.689 16.4888 180.13 16.4888H179.89C172.716 16.5572 165.858 19.4569 160.808 24.5577C155.758 29.6584 152.923 36.5481 152.919 43.7295C152.919 52.6473 156.821 65.3009 164.429 75.713C178.925 95.5528 203.006 112.911 203.006 112.911C203.006 112.911 227.087 95.556 241.579 75.713C249.191 65.3009 253.09 52.6473 253.09 43.7295C253.086 36.5487 250.251 29.6595 245.202 24.5588C240.152 19.4581 233.296 16.558 226.123 16.4888ZM222.685 77.2394C221.596 77.2352 220.535 76.9017 219.639 76.2825C218.743 75.6633 218.055 74.7874 217.665 73.7698H211.95C211.574 73.7674 211.208 73.6475 210.903 73.4267C210.598 73.206 210.369 72.8954 210.249 72.5384L208.494 67.2442L202.939 86.6735C202.831 87.0475 202.604 87.3763 202.293 87.6105C201.983 87.8446 201.604 87.9715 201.215 87.9722H201.103C200.697 87.9525 200.31 87.7941 200.007 87.5232C199.704 87.2524 199.503 86.8857 199.437 86.4843L193.713 52.0188L189.529 72.4133C189.433 72.8008 189.21 73.1449 188.896 73.3907C188.582 73.6366 188.195 73.77 187.796 73.7698H179.745C179.504 73.78 179.263 73.7412 179.037 73.6558C178.811 73.5704 178.605 73.4402 178.43 73.2729C178.256 73.1055 178.117 72.9047 178.023 72.6823C177.928 72.4599 177.879 72.2206 177.879 71.9788C177.879 71.737 177.928 71.4978 178.023 71.2754C178.117 71.053 178.256 70.8521 178.43 70.6848C178.605 70.5175 178.811 70.3872 179.037 70.3018C179.263 70.2164 179.504 70.1777 179.745 70.1879H186.386L192.313 42.7675C192.41 42.3621 192.645 42.0031 192.977 41.7519C193.31 41.5007 193.719 41.3729 194.135 41.3904C194.551 41.4078 194.949 41.5693 195.259 41.8475C195.569 42.1256 195.773 42.5029 195.837 42.9151L201.683 78.0731L206.661 60.6897C206.765 60.3236 206.984 60.0008 207.286 59.7697C207.588 59.5385 207.957 59.4113 208.337 59.407H208.372C208.748 59.4071 209.115 59.5263 209.42 59.7474C209.725 59.9685 209.952 60.2803 210.07 60.6384L213.244 70.1975H217.595C217.904 69.2569 218.467 68.4201 219.221 67.7794C219.976 67.1388 220.892 66.7193 221.87 66.5672C222.848 66.4151 223.848 66.5363 224.761 66.9174C225.674 67.2986 226.464 67.9248 227.044 68.7271C227.624 69.5294 227.972 70.4764 228.048 71.4638C228.124 72.4511 227.926 73.4404 227.476 74.3223C227.026 75.2042 226.342 75.9445 225.498 76.4616C224.654 76.9786 223.684 77.2522 222.695 77.2522L222.685 77.2394Z" fill="#13F1FC"/>
</g>
<defs>
<linearGradient id="paint0_linear" x1="114.15" y1="248.476" x2="114.15" y2="51.1564" gradientUnits="userSpaceOnUse">
<stop stop-color="#808080" stop-opacity="0.25"/>
<stop offset="0.54" stop-color="#808080" stop-opacity="0.12"/>
<stop offset="1" stop-color="#808080" stop-opacity="0.1"/>
</linearGradient>
<linearGradient id="paint1_linear" x1="71507.2" y1="148881" x2="71507.2" y2="47594.5" gradientUnits="userSpaceOnUse">
<stop stop-color="#808080" stop-opacity="0.25"/>
<stop offset="0.54" stop-color="#808080" stop-opacity="0.12"/>
<stop offset="1" stop-color="#808080" stop-opacity="0.1"/>
</linearGradient>
<clipPath id="clip0">
<rect width="354" height="251" fill="white"/>
</clipPath>
</defs>
</svg>
