<svg width="273" height="219" viewBox="0 0 273 219" fill="none" xmlns="http://www.w3.org/2000/svg">
<ellipse cx="23" cy="128.706" rx="12" ry="3.29412" fill="#F2F2F2"/>
<path fill-rule="evenodd" clip-rule="evenodd" d="M22.5385 122.588C22.5385 122.588 31.3077 115.059 31.3077 108.941C31.3077 104.003 27.3816 100 22.5385 100C17.6954 100 13.7692 104.003 13.7692 108.941C13.7692 115.529 22.5385 122.588 22.5385 122.588ZM22.5384 112.235C24.8325 112.235 26.6923 110.339 26.6923 108C26.6923 105.661 24.8325 103.765 22.5384 103.765C20.2443 103.765 18.3846 105.661 18.3846 108C18.3846 110.339 20.2443 112.235 22.5384 112.235Z" fill="#13F1FC"/>
<path d="M47.68 112.062C48.508 112.062 49.234 112.23 49.858 112.566C50.482 112.89 50.962 113.358 51.298 113.97C51.646 114.57 51.82 115.272 51.82 116.076C51.82 116.916 51.628 117.654 51.244 118.29C50.86 118.914 50.332 119.394 49.66 119.73C48.988 120.066 48.226 120.234 47.374 120.234C46.702 120.234 46.066 120.15 45.466 119.982C44.878 119.802 44.356 119.556 43.9 119.244L44.386 117.354C44.89 117.654 45.37 117.882 45.826 118.038C46.294 118.194 46.792 118.272 47.32 118.272C48.04 118.272 48.616 118.074 49.048 117.678C49.492 117.282 49.714 116.748 49.714 116.076C49.714 115.344 49.468 114.78 48.976 114.384C48.496 113.976 47.824 113.772 46.96 113.772C46.264 113.772 45.454 113.874 44.53 114.078L45.34 107.4H51.28L51.154 109.416H46.942L46.6 112.134C47.056 112.086 47.416 112.062 47.68 112.062ZM53.5315 117.75H55.7275V120H53.5315V117.75ZM62.713 120.252C61.645 120.252 60.709 119.976 59.905 119.424C59.113 118.86 58.495 118.074 58.051 117.066C57.619 116.058 57.403 114.9 57.403 113.592C57.403 112.332 57.625 111.216 58.069 110.244C58.513 109.26 59.137 108.498 59.941 107.958C60.745 107.418 61.669 107.148 62.713 107.148C63.769 107.148 64.699 107.418 65.503 107.958C66.307 108.498 66.925 109.254 67.357 110.226C67.801 111.198 68.023 112.32 68.023 113.592C68.023 114.9 67.801 116.058 67.357 117.066C66.925 118.074 66.307 118.86 65.503 119.424C64.711 119.976 63.781 120.252 62.713 120.252ZM62.713 118.38C63.697 118.38 64.471 117.978 65.035 117.174C65.599 116.37 65.881 115.176 65.881 113.592C65.881 112.092 65.593 110.952 65.017 110.172C64.441 109.392 63.673 109.002 62.713 109.002C61.753 109.002 60.979 109.392 60.391 110.172C59.815 110.952 59.527 112.092 59.527 113.592C59.527 115.164 59.809 116.358 60.373 117.174C60.949 117.978 61.729 118.38 62.713 118.38ZM70.0772 106.5H72.0932V114.852L75.0452 111.072H77.3672L74.0012 115.302L77.4392 120H75.1172L72.0932 115.824V120H70.0772V106.5ZM88.7554 110.91C89.9314 110.91 90.8074 111.258 91.3834 111.954C91.9594 112.638 92.2474 113.628 92.2474 114.924V120H90.2314V115.032C90.2314 114.192 90.0874 113.58 89.7994 113.196C89.5234 112.8 89.0614 112.602 88.4134 112.602C87.7054 112.602 87.1954 112.818 86.8834 113.25C86.5714 113.682 86.4154 114.252 86.4154 114.96V120H84.4174V115.158C84.4174 114.246 84.2614 113.592 83.9494 113.196C83.6494 112.8 83.1874 112.602 82.5634 112.602C81.7114 112.602 81.0574 112.902 80.6014 113.502V120H78.5854V111.072H80.2594L80.3854 111.864C81.1774 111.228 82.0714 110.91 83.0674 110.91C84.2914 110.91 85.1854 111.384 85.7494 112.332C86.0614 111.876 86.4694 111.528 86.9734 111.288C87.4894 111.036 88.0834 110.91 88.7554 110.91Z" fill="#C4C4C4"/>
<path opacity="0.1" d="M75.68 210.01C62.9233 210.01 51.7433 206.713 42.14 200.12C32.68 193.383 25.2983 183.995 19.995 171.955C14.835 159.915 12.255 146.083 12.255 130.46C12.255 115.41 14.9067 102.08 20.21 90.47C25.5133 78.7167 32.9667 69.615 42.57 63.165C52.1733 56.715 63.21 53.49 75.68 53.49C88.2933 53.49 99.4017 56.715 109.005 63.165C118.608 69.615 125.99 78.645 131.15 90.255C136.453 101.865 139.105 115.267 139.105 130.46C139.105 146.083 136.453 159.915 131.15 171.955C125.99 183.995 118.608 193.383 109.005 200.12C99.545 206.713 88.4367 210.01 75.68 210.01ZM75.68 187.65C87.4333 187.65 96.6783 182.848 103.415 173.245C110.152 163.642 113.52 149.38 113.52 130.46C113.52 112.543 110.08 98.9267 103.2 89.61C96.32 80.2933 87.1467 75.635 75.68 75.635C64.2133 75.635 54.9683 80.2933 47.945 89.61C41.065 98.9267 37.625 112.543 37.625 130.46C37.625 149.237 40.9933 163.498 47.73 173.245C54.61 182.848 63.9267 187.65 75.68 187.65ZM201.697 145.51C209.724 133.327 215.314 123.867 218.467 117.13C221.764 110.393 223.412 104.087 223.412 98.21C223.412 91.6167 221.549 86.385 217.822 82.515C214.095 78.645 208.935 76.71 202.342 76.71C189.872 76.71 177.689 82.6583 165.792 94.555L162.782 69.185C175.825 58.7217 190.445 53.49 206.642 53.49C215.385 53.49 222.839 55.3533 229.002 59.08C235.309 62.6633 240.039 67.5367 243.192 73.7C246.345 79.8633 247.922 86.7433 247.922 94.34C247.922 103.083 246.059 111.827 242.332 120.57C238.749 129.17 232.442 140.35 223.412 154.11L203.847 183.78H253.297V207H161.707L201.697 145.51Z" fill="#C7CCE1"/>
</svg>
