<svg width="1440" height="918" viewBox="0 0 1440 918" fill="none" xmlns="http://www.w3.org/2000/svg">
<path opacity="0.2" d="M612.893 829.5C225.623 848.31 46.3251 770 -1 743V630.5H1920V845C1604.72 1021 1193.54 795.465 883.513 814.5C696.212 826 705.544 825 612.893 829.5Z" fill="url(#paint0_linear)"/>
<path opacity="0.2" d="M1920 2H0.333138V740C564.235 704 530.241 928 1086.14 851C1386.52 809.394 1635.38 922 1920 843V2Z" fill="url(#paint1_linear)"/>
<path d="M0.33313 0H1920V845C1488.07 690 1416.09 925.5 838.854 800C545.475 736.215 392.265 676.5 0.33313 740.5V0Z" fill="url(#paint2_linear)"/>
<defs>
<linearGradient id="paint0_linear" x1="55.6564" y1="553.001" x2="2129.21" y2="1301.44" gradientUnits="userSpaceOnUse">
<stop stop-color="#0470DC"/>
<stop offset="1" stop-color="#13F1FC"/>
</linearGradient>
<linearGradient id="paint1_linear" x1="108.981" y1="763" x2="1511.61" y2="-684.289" gradientUnits="userSpaceOnUse">
<stop stop-color="#0470DC"/>
<stop offset="1" stop-color="#13F1FC"/>
</linearGradient>
<linearGradient id="paint2_linear" x1="0.333268" y1="-63.0002" x2="2028.36" y2="1644.82" gradientUnits="userSpaceOnUse">
<stop stop-color="#0470DC"/>
<stop offset="1" stop-color="#13F1FC"/>
</linearGradient>
</defs>
</svg>
