<svg width="54" height="55" viewBox="0 0 54 55" fill="none" xmlns="http://www.w3.org/2000/svg">
<circle cx="27" cy="27.54" r="26.5" stroke="#13F1FC"/>
<path d="M32.5508 25.4463C32.569 25.5192 32.5781 25.6377 32.5781 25.8018C32.5781 26.7679 32.3958 27.734 32.0312 28.7002C31.6667 29.6481 31.1471 30.5231 30.4727 31.3252C29.8164 32.109 28.9596 32.7471 27.9023 33.2393C26.8451 33.7314 25.6784 33.9775 24.4023 33.9775C22.7982 33.9775 21.3307 33.5492 20 32.6924C20.2005 32.7106 20.4284 32.7197 20.6836 32.7197C22.0143 32.7197 23.2083 32.3096 24.2656 31.4893C23.6276 31.4893 23.0625 31.307 22.5703 30.9424C22.0964 30.5596 21.7682 30.0856 21.5859 29.5205C21.7682 29.5387 21.9414 29.5479 22.1055 29.5479C22.3607 29.5479 22.6159 29.5205 22.8711 29.4658C22.4336 29.3747 22.0417 29.1924 21.6953 28.9189C21.349 28.6455 21.0755 28.3174 20.875 27.9346C20.6745 27.5335 20.5742 27.1051 20.5742 26.6494V26.5947C20.9753 26.8317 21.4036 26.9593 21.8594 26.9775C21.0026 26.3942 20.5742 25.5921 20.5742 24.5713C20.5742 24.0609 20.7109 23.5778 20.9844 23.1221C21.6953 24.0153 22.5612 24.7262 23.582 25.2549C24.6211 25.7835 25.724 26.0752 26.8906 26.1299C26.8542 25.9111 26.8359 25.6924 26.8359 25.4736C26.8359 24.6898 27.1094 24.0153 27.6562 23.4502C28.2214 22.8851 28.8958 22.6025 29.6797 22.6025C30.5182 22.6025 31.2201 22.9033 31.7852 23.5049C32.4414 23.3773 33.0521 23.1494 33.6172 22.8213C33.3984 23.4958 32.9792 24.0244 32.3594 24.4072C32.9062 24.3343 33.4531 24.1794 34 23.9424C33.599 24.5257 33.1159 25.027 32.5508 25.4463Z" fill="#13F1FC"/>
</svg>
