<svg width="54" height="55" viewBox="0 0 54 55" fill="none" xmlns="http://www.w3.org/2000/svg">
<circle cx="27" cy="27.54" r="26.5" stroke="#F2F3F3"/>
<path d="M32.5508 25.4463C32.569 25.5192 32.5781 25.6377 32.5781 25.8018C32.5781 27.1143 32.2591 28.3812 31.6211 29.6025C30.9648 30.8968 30.0443 31.9268 28.8594 32.6924C27.5651 33.5492 26.0794 33.9775 24.4023 33.9775C22.7982 33.9775 21.3307 33.5492 20 32.6924C20.2005 32.7106 20.4284 32.7197 20.6836 32.7197C22.0143 32.7197 23.2083 32.3096 24.2656 31.4893C23.6276 31.4893 23.0625 31.307 22.5703 30.9424C22.0964 30.5596 21.7682 30.0856 21.5859 29.5205C21.7682 29.5387 21.9414 29.5479 22.1055 29.5479C22.3607 29.5479 22.6159 29.5205 22.8711 29.4658C22.2148 29.32 21.668 28.9827 21.2305 28.4541C20.793 27.9255 20.5742 27.3239 20.5742 26.6494V26.5947C20.9753 26.8317 21.4036 26.9593 21.8594 26.9775C21.4766 26.7041 21.1667 26.3577 20.9297 25.9385C20.6927 25.5192 20.5742 25.0635 20.5742 24.5713C20.5742 24.0609 20.7109 23.5778 20.9844 23.1221C21.6953 24.0153 22.5612 24.7262 23.582 25.2549C24.6211 25.7835 25.724 26.0752 26.8906 26.1299C26.8542 25.9111 26.8359 25.6924 26.8359 25.4736C26.8359 24.9632 26.9635 24.4893 27.2188 24.0518C27.474 23.596 27.8203 23.2406 28.2578 22.9854C28.6953 22.7301 29.1693 22.6025 29.6797 22.6025C30.099 22.6025 30.4818 22.6846 30.8281 22.8486C31.1927 23.0127 31.5117 23.2314 31.7852 23.5049C32.4414 23.3773 33.0521 23.1494 33.6172 22.8213C33.3984 23.4958 32.9792 24.0244 32.3594 24.4072C32.9062 24.3343 33.4531 24.1794 34 23.9424C33.599 24.5257 33.1159 25.027 32.5508 25.4463Z" fill="#BDD3DF"/>
</svg>
